{
copyright = "Copyright (c) 2015, Cadson Demak (info@cadsondemak.com)";
customParameters = (
{
name = vendorID;
value = CDK;
},
{
name = description;
value = "Copyright (c) 2015, Cadson Demak (info@cadsondemak.com)";
},
{
name = license;

glyphs = (
{
glyphname = A;
lastChange = "2015-07-21 17:02:26 +0000";
layers = (
{
layerId = "180D1874-17C2-44EB-BA68-42C2D2C9E124";
name = Light;
paths = (
{
closed = 1;
nodes = (
"178 0 LINE SMOOTH",
"184 0 OFFCURVE",
"185 5 OFFCURVE",
"185 8 CURVE SMOOTH",
"185 16 OFFCURVE",
"179 20 OFFCURVE",
"169 21 CURVE SMOOTH",
"106 27 LINE",
"182 245 LINE",
"479 245 LINE",
"554 26 LINE",
"504 26 LINE SMOOTH",
"492 26 OFFCURVE",
"487 20 OFFCURVE",
"487 12 CURVE SMOOTH",
"487 5 OFFCURVE",
"491 0 OFFCURVE",
"496 0 CURVE SMOOTH",
"650 0 LINE SMOOTH",
"656 0 OFFCURVE",
"657 5 OFFCURVE",
"657 8 CURVE SMOOTH",
"657 16 OFFCURVE",
"651 20 OFFCURVE",
"641 21 CURVE SMOOTH",
"590 27 LINE",
"356 695 LINE",
"310 695 LINE",
"74 26 LINE",
"32 26 LINE SMOOTH",
"20 26 OFFCURVE",
"15 20 OFFCURVE",
"15 12 CURVE SMOOTH",
"15 5 OFFCURVE",
"19 0 OFFCURVE",
"24 0 CURVE SMOOTH"
);
},
{
closed = 1;
nodes = (
"330 665 LINE",
"468 273 LINE",
"192 273 LINE"
);
}
);
width = 672;
}
);
leftKerningGroup = A;
note = A;
rightKerningGroup = A;
unicode = 0041;
},
{
glyphname = Aacute;
lastChange = "2015-07-21 14:41:09 +0000";
layers = (
{
components = (
{
name = A;
}
);
layerId = "180D1874-17C2-44EB-BA68-42C2D2C9E124";
name = Light;
paths = (
{
closed = 1;
nodes = (
"389 862 LINE",
"359 880 LINE",
"287 762 LINE",
"309 749 LINE"
);
}
);
width = 672;
}
);
leftKerningGroup = A;
note = Aacute;
rightKerningGroup = A;
unicode = 00C1;
},
{
glyphname = Abreve;
lastChange = "2015-07-21 14:41:09 +0000";
layers = (
{
components = (
{
name = A;
}
);
layerId = "180D1874-17C2-44EB-BA68-42C2D2C9E124";
name = Light;
paths = (
{
closed = 1;
nodes = (
"385 747 OFFCURVE",
"436 776 OFFCURVE",
"457 851 CURVE",
"430 861 LINE",
"418 814 OFFCURVE",
"385 775 OFFCURVE",
"330 775 CURVE SMOOTH",
"275 775 OFFCURVE",
"242 814 OFFCURVE",
"230 861 CURVE",
"203 851 LINE",
"224 776 OFFCURVE",
"275 747 OFFCURVE",
"330 747 CURVE SMOOTH"
);
}
);
width = 672;
}
);
leftKerningGroup = A;
note = Abreve;
rightKerningGroup = A;
unicode = 0102;
},
{
glyphname = Abreveacute;
lastChange = "2015-07-21 14:41:09 +0000";
layers = (
{
layerId = "180D1874-17C2-44EB-BA68-42C2D2C9E124";
name = Light;
paths = (
{
closed = 1;
nodes = (
"178 0 LINE SMOOTH",
"184 0 OFFCURVE",
"185 5 OFFCURVE",
"185 8 CURVE SMOOTH",
"185 16 OFFCURVE",
"179 20 OFFCURVE",
"169 21 CURVE SMOOTH",
"106 27 LINE",
"182 245 LINE",
"479 245 LINE",
"554 26 LINE",
"504 26 LINE SMOOTH",
"492 26 OFFCURVE",
"487 20 OFFCURVE",
"487 12 CURVE SMOOTH",
"487 5 OFFCURVE",
"491 0 OFFCURVE",
"496 0 CURVE SMOOTH",
"650 0 LINE SMOOTH",
"656 0 OFFCURVE",
"657 5 OFFCURVE",
"657 8 CURVE SMOOTH",
"657 16 OFFCURVE",
"651 20 OFFCURVE",
"641 21 CURVE SMOOTH",
"590 27 LINE",
"356 695 LINE",
"310 695 LINE",
"74 26 LINE",
"32 26 LINE SMOOTH",
"20 26 OFFCURVE",
"15 20 OFFCURVE",
"15 12 CURVE SMOOTH",
"15 5 OFFCURVE",
"19 0 OFFCURVE",
"24 0 CURVE SMOOTH"
);
},
{
closed = 1;
nodes = (
"330 665 LINE",
"468 273 LINE",
"192 273 LINE"
);
},
{
closed = 1;
nodes = (
"385 747 OFFCURVE",
"436 776 OFFCURVE",
"457 851 CURVE",
"430 861 LINE",
"418 814 OFFCURVE",
"385 775 OFFCURVE",
"330 775 CURVE SMOOTH",
"275 775 OFFCURVE",
"242 814 OFFCURVE",
"230 861 CURVE",
"203 851 LINE",
"224 776 OFFCURVE",
"275 747 OFFCURVE",
"330 747 CURVE SMOOTH"
);
},
{
closed = 1;
nodes = (
"406 966 LINE",
"376 984 LINE",
"304 866 LINE",
"326 853 LINE"
);
}
);
width = 672;
}
);
leftKerningGroup = A;
note = Abreveacute;
rightKerningGroup = A;
unicode = 1EAE;
},
{
glyphname = Abrevedotbelow;
lastChange = "2015-07-21 14:41:09 +0000";
layers = (
{
layerId = "180D1874-17C2-44EB-BA68-42C2D2C9E124";
name = Light;
paths = (
{
closed = 1;
nodes = (
"178 0 LINE SMOOTH",
"184 0 OFFCURVE",
"185 5 OFFCURVE",
"185 8 CURVE SMOOTH",
"185 16 OFFCURVE",
"179 20 OFFCURVE",
"169 21 CURVE SMOOTH",
"106 27 LINE",
"182 245 LINE",
"479 245 LINE",
"554 26 LINE",
"504 26 LINE SMOOTH",
"492 26 OFFCURVE",
"487 20 OFFCURVE",
"487 12 CURVE SMOOTH",
"487 5 OFFCURVE",
"491 0 OFFCURVE",
"496 0 CURVE SMOOTH",
"650 0 LINE SMOOTH",
"656 0 OFFCURVE",
"657 5 OFFCURVE",
"657 8 CURVE SMOOTH",
"657 16 OFFCURVE",
"651 20 OFFCURVE",
"641 21 CURVE SMOOTH",
"590 27 LINE",
"356 695 LINE",
"310 695 LINE",
"74 26 LINE",
"32 26 LINE SMOOTH",
"20 26 OFFCURVE",
"15 20 OFFCURVE",
"15 12 CURVE SMOOTH",
"15 5 OFFCURVE",
"19 0 OFFCURVE",
"24 0 CURVE SMOOTH"
);
},
{
closed = 1;
nodes = (
"350 -135 OFFCURVE",
"365 -120 OFFCURVE",
"365 -100 CURVE SMOOTH",
"365 -80 OFFCURVE",
"350 -65 OFFCURVE",
"330 -65 CURVE SMOOTH",
"310 -65 OFFCURVE",
"295 -80 OFFCURVE",
"295 -100 CURVE SMOOTH",
"295 -120 OFFCURVE",
"310 -135 OFFCURVE",
"330 -135 CURVE SMOOTH"
);
},
{
closed = 1;
nodes = (
"330 665 LINE",
"468 273 LINE",
"192 273 LINE"
);
},
{
closed = 1;
nodes = (
"385 747 OFFCURVE",
"436 776 OFFCURVE",
"457 851 CURVE",
"430 861 LINE",
"418 814 OFFCURVE",
"385 775 OFFCURVE",
"330 775 CURVE SMOOTH",
"275 775 OFFCURVE",
"242 814 OFFCURVE",
"230 861 CURVE",
"203 851 LINE",
"224 776 OFFCURVE",
"275 747 OFFCURVE",
"330 747 CURVE SMOOTH"
);
}
);
width = 672;
}
);
leftKerningGroup = A;
note = Abrevedotbelow;
rightKerningGroup = A;
unicode = 1EB6;
},
{
glyphname = Abrevegrave;
lastChange = "2015-07-21 14:41:09 +0000";
layers = (
{
layerId = "180D1874-17C2-44EB-BA68-42C2D2C9E124";
name = Light;
paths = (
{
closed = 1;
nodes = (
"178 0 LINE SMOOTH",
"184 0 OFFCURVE",
"185 5 OFFCURVE",
"185 8 CURVE SMOOTH",
"185 16 OFFCURVE",
"179 20 OFFCURVE",
"169 21 CURVE SMOOTH",
"106 27 LINE",
"182 245 LINE",
"479 245 LINE",
"554 26 LINE",
"504 26 LINE SMOOTH",
"492 26 OFFCURVE",
"487 20 OFFCURVE",
"487 12 CURVE SMOOTH",
"487 5 OFFCURVE",
"491 0 OFFCURVE",
"496 0 CURVE SMOOTH",
"650 0 LINE SMOOTH",
"656 0 OFFCURVE",
"657 5 OFFCURVE",
"657 8 CURVE SMOOTH",
"657 16 OFFCURVE",
"651 20 OFFCURVE",
"641 21 CURVE SMOOTH",
"590 27 LINE",
"356 695 LINE",
"310 695 LINE",
"74 26 LINE",
"32 26 LINE SMOOTH",
"20 26 OFFCURVE",
"15 20 OFFCURVE",
"15 12 CURVE SMOOTH",
"15 5 OFFCURVE",
"19 0 OFFCURVE",
"24 0 CURVE SMOOTH"
);
},
{
closed = 1;
nodes = (
"330 665 LINE",
"468 273 LINE",
"192 273 LINE"
);
},
{
closed = 1;
nodes = (
"385 747 OFFCURVE",
"436 776 OFFCURVE",
"457 851 CURVE",
"430 861 LINE",
"418 814 OFFCURVE",
"385 775 OFFCURVE",
"330 775 CURVE SMOOTH",
"275 775 OFFCURVE",
"242 814 OFFCURVE",
"230 861 CURVE",
"203 851 LINE",
"224 776 OFFCURVE",
"275 747 OFFCURVE",
"330 747 CURVE SMOOTH"
);
},
{
closed = 1;
nodes = (
"356 866 LINE",
"284 984 LINE",
"254 966 LINE",
"334 853 LINE"
);
}
);
width = 672;
}
);
leftKerningGroup = A;
note = Abrevegrave;
rightKerningGroup = A;
unicode = 1EB0;
},
{
glyphname = Abrevehookabove;
lastChange = "2015-07-21 14:41:09 +0000";
layers = (
{
layerId = "180D1874-17C2-44EB-BA68-42C2D2C9E124";
name = Light;
paths = (
{
closed = 1;
nodes = (
"178 0 LINE SMOOTH",
"184 0 OFFCURVE",
"185 5 OFFCURVE",
"185 8 CURVE SMOOTH",
"185 16 OFFCURVE",
"179 20 OFFCURVE",
"169 21 CURVE SMOOTH",
"106 27 LINE",
"182 245 LINE",
"479 245 LINE",
"554 26 LINE",
"504 26 LINE SMOOTH",
"492 26 OFFCURVE",
"487 20 OFFCURVE",
"487 12 CURVE SMOOTH",
"487 5 OFFCURVE",
"491 0 OFFCURVE",
"496 0 CURVE SMOOTH",
"650 0 LINE SMOOTH",
"656 0 OFFCURVE",
"657 5 OFFCURVE",
"657 8 CURVE SMOOTH",
"657 16 OFFCURVE",
"651 20 OFFCURVE",
"641 21 CURVE SMOOTH",
"590 27 LINE",
"356 695 LINE",
"310 695 LINE",
"74 26 LINE",
"32 26 LINE SMOOTH",
"20 26 OFFCURVE",
"15 20 OFFCURVE",
"15 12 CURVE SMOOTH",
"15 5 OFFCURVE",
"19 0 OFFCURVE",
"24 0 CURVE SMOOTH"
);
},
{
closed = 1;
nodes = (
"330 665 LINE",
"468 273 LINE",
"192 273 LINE"
);
},
{
closed = 1;
nodes = (
"385 747 OFFCURVE",
"436 776 OFFCURVE",
"457 851 CURVE",
"430 861 LINE",
"418 814 OFFCURVE",
"385 775 OFFCURVE",
"330 775 CURVE SMOOTH",
"275 775 OFFCURVE",
"242 814 OFFCURVE",
"230 861 CURVE",
"203 851 LINE",
"224 776 OFFCURVE",
"275 747 OFFCURVE",
"330 747 CURVE SMOOTH"
);
},
{
closed = 1;
nodes = (
"345 853 LINE",
"350 893 LINE",
"372 900 OFFCURVE",
"387 917 OFFCURVE",
"387 939 CURVE SMOOTH",
"387 973 OFFCURVE",
"360 988 OFFCURVE",
"332 988 CURVE SMOOTH",
"316 988 OFFCURVE",
"299 983 OFFCURVE",
"287 979 CURVE",
"292 959 LINE",
"301 962 OFFCURVE",
"315 965 OFFCURVE",
"327 965 CURVE SMOOTH",
"344 965 OFFCURVE",
"359 957 OFFCURVE",
"359 939 CURVE SMOOTH",
"359 921 OFFCURVE",
"346 908 OFFCURVE",
"320 900 CURVE",
"323 853 LINE"
);
}
);
width = 672;
}
);
leftKerningGroup = A;
note = Abrevehookabove;
rightKerningGroup = A;
unicode = 1EB2;
},
{
glyphname = Abrevetilde;
lastChange = "2015-07-21 14:41:09 +0000";
layers = (
{
layerId = "180D1874-17C2-44EB-BA68-42C2D2C9E124";
name = Light;
paths = (
{
closed = 1;
nodes = (
"178 0 LINE SMOOTH",
"184 0 OFFCURVE",
"185 5 OFFCURVE",
"185 8 CURVE SMOOTH",
"185 16 OFFCURVE",
"179 20 OFFCURVE",
"169 21 CURVE SMOOTH",
"106 27 LINE",
"182 245 LINE",
"479 245 LINE",
"554 26 LINE",
"504 26 LINE SMOOTH",
"492 26 OFFCURVE",
"487 20 OFFCURVE",
"487 12 CURVE SMOOTH",
"487 5 OFFCURVE",
"491 0 OFFCURVE",
"496 0 CURVE SMOOTH",
"650 0 LINE SMOOTH",
"656 0 OFFCURVE",
"657 5 OFFCURVE",
"657 8 CURVE SMOOTH",
"657 16 OFFCURVE",
"651 20 OFFCURVE",
"641 21 CURVE SMOOTH",
"590 27 LINE",
"356 695 LINE",
"310 695 LINE",
"74 26 LINE",
"32 26 LINE SMOOTH",
"20 26 OFFCURVE",
"15 20 OFFCURVE",
"15 12 CURVE SMOOTH",
"15 5 OFFCURVE",
"19 0 OFFCURVE",
"24 0 CURVE SMOOTH"
);
},
{
closed = 1;
nodes = (
"330 665 LINE",
"468 273 LINE",
"192 273 LINE"
);
},
{
closed = 1;
nodes = (
"385 747 OFFCURVE",
"436 776 OFFCURVE",
"457 851 CURVE",
"430 861 LINE",
"418 814 OFFCURVE",
"385 775 OFFCURVE",
"330 775 CURVE SMOOTH",
"275 775 OFFCURVE",
"242 814 OFFCURVE",
"230 861 CURVE",
"203 851 LINE",
"224 776 OFFCURVE",
"275 747 OFFCURVE",
"330 747 CURVE SMOOTH"
);
},
{
closed = 1;
nodes = (
"389 906 OFFCURVE",
"412 920 OFFCURVE",
"429 935 CURVE",
"418 958 LINE",
"403 946 OFFCURVE",
"386 936 OFFCURVE",
"367 936 CURVE SMOOTH",
"347 936 OFFCURVE",
"318 960 OFFCURVE",
"294 960 CURVE SMOOTH",
"273 960 OFFCURVE",
"250 946 OFFCURVE",
"233 931 CURVE",
"244 908 LINE",
"259 920 OFFCURVE",
"275 930 OFFCURVE",
"294 930 CURVE SMOOTH",
"320 930 OFFCURVE",
"340 906 OFFCURVE",
"368 906 CURVE SMOOTH"
);
}
);
width = 672;
}
);
leftKerningGroup = A;
note = Abrevetilde;
rightKerningGroup = A;
unicode = 1EB4;
},
{
glyphname = Acaron;
lastChange = "2015-07-21 14:41:09 +0000";
layers = (
{
layerId = "180D1874-17C2-44EB-BA68-42C2D2C9E124";
name = Light;
paths = (
{
closed = 1;
nodes = (
"178 0 LINE SMOOTH",
"184 0 OFFCURVE",
"185 5 OFFCURVE",
"185 8 CURVE SMOOTH",
"185 16 OFFCURVE",
"179 20 OFFCURVE",
"169 21 CURVE SMOOTH",
"106 27 LINE",
"182 245 LINE",
"479 245 LINE",
"554 26 LINE",
"504 26 LINE SMOOTH",
"492 26 OFFCURVE",
"487 20 OFFCURVE",
"487 12 CURVE SMOOTH",
"487 5 OFFCURVE",
"491 0 OFFCURVE",
"496 0 CURVE SMOOTH",
"650 0 LINE SMOOTH",
"656 0 OFFCURVE",
"657 5 OFFCURVE",
"657 8 CURVE SMOOTH",
"657 16 OFFCURVE",
"651 20 OFFCURVE",
"641 21 CURVE SMOOTH",
"590 27 LINE",
"356 695 LINE",
"310 695 LINE",
"74 26 LINE",
"32 26 LINE SMOOTH",
"20 26 OFFCURVE",
"15 20 OFFCURVE",
"15 12 CURVE SMOOTH",
"15 5 OFFCURVE",
"19 0 OFFCURVE",
"24 0 CURVE SMOOTH"
);
},
{
closed = 1;
nodes = (
"330 665 LINE",
"468 273 LINE",
"192 273 LINE"
);
},
{
closed = 1;
nodes = (
"343 749 LINE",
"438 867 LINE",
"417 881 LINE",
"330 790 LINE",
"243 881 LINE",
"222 867 LINE",
"317 749 LINE"
);
}
);
width = 672;
}
);
leftKerningGroup = A;
note = Acaron;
rightKerningGroup = A;
unicode = 01CD;
},
{
glyphname = Acircumflex;
lastChange = "2015-07-21 14:41:09 +0000";
layers = (
{
components = (
{
name = A;
}
);
layerId = "180D1874-17C2-44EB-BA68-42C2D2C9E124";
name = Light;
paths = (
{
closed = 1;
nodes = (
"330 840 LINE",
"417 749 LINE",
"438 763 LINE",
"343 881 LINE",
"317 881 LINE",
"222 763 LINE",
"243 749 LINE"
);
}
);
width = 672;
}
);
leftKerningGroup = A;
note = Acircumflex;
rightKerningGroup = A;
unicode = 00C2;
},
{
glyphname = Acircumflexacute;
lastChange = "2015-07-21 14:41:09 +0000";
layers = (
{
layerId = "180D1874-17C2-44EB-BA68-42C2D2C9E124";
name = Light;
paths = (
{
closed = 1;
nodes = (
"178 0 LINE SMOOTH",
"184 0 OFFCURVE",
"185 5 OFFCURVE",
"185 8 CURVE SMOOTH",
"185 16 OFFCURVE",
"179 20 OFFCURVE",
"169 21 CURVE SMOOTH",
"106 27 LINE",
"182 245 LINE",
"479 245 LINE",
"554 26 LINE",
"504 26 LINE SMOOTH",
"492 26 OFFCURVE",
"487 20 OFFCURVE",
"487 12 CURVE SMOOTH",
"487 5 OFFCURVE",
"491 0 OFFCURVE",
"496 0 CURVE SMOOTH",
"650 0 LINE SMOOTH",
"656 0 OFFCURVE",
"657 5 OFFCURVE",
"657 8 CURVE SMOOTH",
"657 16 OFFCURVE",
"651 20 OFFCURVE",
"641 21 CURVE SMOOTH",
"590 27 LINE",
"356 695 LINE",
"310 695 LINE",
"74 26 LINE",
"32 26 LINE SMOOTH",
"20 26 OFFCURVE",
"15 20 OFFCURVE",
"15 12 CURVE SMOOTH",
"15 5 OFFCURVE",
"19 0 OFFCURVE",
"24 0 CURVE SMOOTH"
);
},
{
closed = 1;
nodes = (
"330 665 LINE",
"468 273 LINE",
"192 273 LINE"
);
},
{
closed = 1;
nodes = (
"330 840 LINE",
"417 749 LINE",
"438 763 LINE",
"343 881 LINE",
"317 881 LINE",
"222 763 LINE",
"243 749 LINE"
);
},
{
closed = 1;
nodes = (
"500 920 LINE",
"470 938 LINE",
"412 842 LINE",
"434 829 LINE"
);
}
);
width = 672;
}
);
leftKerningGroup = A;
note = Acircumflexacute;
rightKerningGroup = A;
unicode = 1EA4;
},
{
glyphname = Acircumflexdotbelow;
lastChange = "2015-07-21 14:41:09 +0000";
layers = (
{
layerId = "180D1874-17C2-44EB-BA68-42C2D2C9E124";
name = Light;
paths = (
{
closed = 1;
nodes = (
"178 0 LINE SMOOTH",
"184 0 OFFCURVE",
"185 5 OFFCURVE",
"185 8 CURVE SMOOTH",
"185 16 OFFCURVE",
"179 20 OFFCURVE",
"169 21 CURVE SMOOTH",
"106 27 LINE",
"182 245 LINE",
"479 245 LINE",
"554 26 LINE",
"504 26 LINE SMOOTH",
"492 26 OFFCURVE",
"487 20 OFFCURVE",
"487 12 CURVE SMOOTH",
"487 5 OFFCURVE",
"491 0 OFFCURVE",
"496 0 CURVE SMOOTH",
"650 0 LINE SMOOTH",
"656 0 OFFCURVE",
"657 5 OFFCURVE",
"657 8 CURVE SMOOTH",
"657 16 OFFCURVE",
"651 20 OFFCURVE",
"641 21 CURVE SMOOTH",
"590 27 LINE",
"356 695 LINE",
"310 695 LINE",
"74 26 LINE",
"32 26 LINE SMOOTH",
"20 26 OFFCURVE",
"15 20 OFFCURVE",
"15 12 CURVE SMOOTH",
"15 5 OFFCURVE",
"19 0 OFFCURVE",
"24 0 CURVE SMOOTH"
);
},
{
closed = 1;
nodes = (
"350 -135 OFFCURVE",
"365 -120 OFFCURVE",
"365 -100 CURVE SMOOTH",
"365 -80 OFFCURVE",
"350 -65 OFFCURVE",
"330 -65 CURVE SMOOTH",
"310 -65 OFFCURVE",
"295 -80 OFFCURVE",
"295 -100 CURVE SMOOTH",
"295 -120 OFFCURVE",
"310 -135 OFFCURVE",
"330 -135 CURVE SMOOTH"
);
},
{
closed = 1;
nodes = (
"330 665 LINE",
"468 273 LINE",
"192 273 LINE"
);
},
{
closed = 1;
nodes = (
"330 840 LINE",
"417 749 LINE",
"438 763 LINE",
"343 881 LINE",
"317 881 LINE",
"222 763 LINE",
"243 749 LINE"
);
}
);
width = 672;
}
);
leftKerningGroup = A;
note = Acircumflexdotbelow;
rightKerningGroup = A;
unicode = 1EAC;
},
{
glyphname = Acircumflexgrave;
lastChange = "2015-07-21 14:41:09 +0000";
layers = (
{
layerId = "180D1874-17C2-44EB-BA68-42C2D2C9E124";
name = Light;
paths = (
{
closed = 1;
nodes = (
"178 0 LINE SMOOTH",
"184 0 OFFCURVE",
"185 5 OFFCURVE",
"185 8 CURVE SMOOTH",
"185 16 OFFCURVE",
"179 20 OFFCURVE",
"169 21 CURVE SMOOTH",
"106 27 LINE",
"182 245 LINE",
"479 245 LINE",
"554 26 LINE",
"504 26 LINE SMOOTH",
"492 26 OFFCURVE",
"487 20 OFFCURVE",
"487 12 CURVE SMOOTH",
"487 5 OFFCURVE",
"491 0 OFFCURVE",
"496 0 CURVE SMOOTH",
"650 0 LINE SMOOTH",
"656 0 OFFCURVE",
"657 5 OFFCURVE",
"657 8 CURVE SMOOTH",
"657 16 OFFCURVE",
"651 20 OFFCURVE",
"641 21 CURVE SMOOTH",
"590 27 LINE",
"356 695 LINE",
"310 695 LINE",
"74 26 LINE",
"32 26 LINE SMOOTH",
"20 26 OFFCURVE",
"15 20 OFFCURVE",
"15 12 CURVE SMOOTH",
"15 5 OFFCURVE",
"19 0 OFFCURVE",
"24 0 CURVE SMOOTH"
);
},
{
closed = 1;
nodes = (
"330 665 LINE",
"468 273 LINE",
"192 273 LINE"
);
},
{
closed = 1;
nodes = (
"248 842 LINE",
"190 938 LINE",
"160 920 LINE",
"226 829 LINE"
);
},
{
closed = 1;
nodes = (
"330 840 LINE",
"417 749 LINE",
"438 763 LINE",
"343 881 LINE",
"317 881 LINE",
"222 763 LINE",
"243 749 LINE"
);
}
);
width = 672;
}
);
leftKerningGroup = A;
note = Acircumflexgrave;
rightKerningGroup = A;
unicode = 1EA6;
},
{
glyphname = Acircumflexhookabove;
lastChange = "2015-07-21 14:41:09 +0000";
layers = (
{
layerId = "180D1874-17C2-44EB-BA68-42C2D2C9E124";
name = Light;
paths = (
{
closed = 1;
nodes = (
"178 0 LINE SMOOTH",
"184 0 OFFCURVE",
"185 5 OFFCURVE",
"185 8 CURVE SMOOTH",
"185 16 OFFCURVE",
"179 20 OFFCURVE",
"169 21 CURVE SMOOTH",
"106 27 LINE",
"182 245 LINE",
"479 245 LINE",
"554 26 LINE",
"504 26 LINE SMOOTH",
"492 26 OFFCURVE",
"487 20 OFFCURVE",
"487 12 CURVE SMOOTH",
"487 5 OFFCURVE",
"491 0 OFFCURVE",
"496 0 CURVE SMOOTH",
"650 0 LINE SMOOTH",
"656 0 OFFCURVE",
"657 5 OFFCURVE",
"657 8 CURVE SMOOTH",
"657 16 OFFCURVE",
"651 20 OFFCURVE",
"641 21 CURVE SMOOTH",
"590 27 LINE",
"356 695 LINE",
"310 695 LINE",
"74 26 LINE",
"32 26 LINE SMOOTH",
"20 26 OFFCURVE",
"15 20 OFFCURVE",
"15 12 CURVE SMOOTH",
"15 5 OFFCURVE",
"19 0 OFFCURVE",
"24 0 CURVE SMOOTH"
);
},
{
closed = 1;
nodes = (
"330 665 LINE",
"468 273 LINE",
"192 273 LINE"
);
},
{
closed = 1;
nodes = (
"330 840 LINE",
"417 749 LINE",
"438 763 LINE",
"343 881 LINE",
"317 881 LINE",
"222 763 LINE",
"243 749 LINE"
);
},
{
closed = 1;
nodes = (
"463 819 LINE",
"468 859 LINE",
"490 866 OFFCURVE",
"505 883 OFFCURVE",
"505 905 CURVE SMOOTH",
"505 939 OFFCURVE",
"478 954 OFFCURVE",
"450 954 CURVE SMOOTH",
"434 954 OFFCURVE",
"417 949 OFFCURVE",
"405 945 CURVE",
"410 925 LINE",
"419 928 OFFCURVE",
"433 931 OFFCURVE",
"445 931 CURVE SMOOTH",
"462 931 OFFCURVE",
"477 923 OFFCURVE",
"477 905 CURVE SMOOTH",
"477 887 OFFCURVE",
"464 874 OFFCURVE",
"438 866 CURVE",
"441 819 LINE"
);
}
);
width = 672;
}
);
leftKerningGroup = A;
note = Acircumflexhookabove;
rightKerningGroup = A;
unicode = 1EA8;
},
{
glyphname = Acircumflextilde;
lastChange = "2015-07-21 14:41:09 +0000";
layers = (
{
layerId = "180D1874-17C2-44EB-BA68-42C2D2C9E124";
name = Light;
paths = (
{
closed = 1;
nodes = (
"178 0 LINE SMOOTH",
"184 0 OFFCURVE",
"185 5 OFFCURVE",
"185 8 CURVE SMOOTH",
"185 16 OFFCURVE",
"179 20 OFFCURVE",
"169 21 CURVE SMOOTH",
"106 27 LINE",
"182 245 LINE",
"479 245 LINE",
"554 26 LINE",
"504 26 LINE SMOOTH",
"492 26 OFFCURVE",
"487 20 OFFCURVE",
"487 12 CURVE SMOOTH",
"487 5 OFFCURVE",
"491 0 OFFCURVE",
"496 0 CURVE SMOOTH",
"650 0 LINE SMOOTH",
"656 0 OFFCURVE",
"657 5 OFFCURVE",
"657 8 CURVE SMOOTH",
"657 16 OFFCURVE",
"651 20 OFFCURVE",
"641 21 CURVE SMOOTH",
"590 27 LINE",
"356 695 LINE",
"310 695 LINE",
"74 26 LINE",
"32 26 LINE SMOOTH",
"20 26 OFFCURVE",
"15 20 OFFCURVE",
"15 12 CURVE SMOOTH",
"15 5 OFFCURVE",
"19 0 OFFCURVE",
"24 0 CURVE SMOOTH"
);
},
{
closed = 1;
nodes = (
"330 665 LINE",
"468 273 LINE",
"192 273 LINE"
);
},
{
closed = 1;
nodes = (
"330 840 LINE",
"417 749 LINE",
"438 763 LINE",
"343 881 LINE",
"317 881 LINE",
"222 763 LINE",
"243 749 LINE"
);
},
{
closed = 1;
nodes = (
"389 912 OFFCURVE",
"412 926 OFFCURVE",
"429 941 CURVE",
"418 964 LINE",
"403 952 OFFCURVE",
"386 942 OFFCURVE",
"367 942 CURVE SMOOTH",
"347 942 OFFCURVE",
"318 966 OFFCURVE",
"294 966 CURVE SMOOTH",
"273 966 OFFCURVE",
"250 952 OFFCURVE",
"233 937 CURVE",
"244 914 LINE",
"259 926 OFFCURVE",
"275 936 OFFCURVE",
"294 936 CURVE SMOOTH",
"320 936 OFFCURVE",
"340 912 OFFCURVE",
"368 912 CURVE SMOOTH"
);
}
);
width = 672;
}
);
leftKerningGroup = A;
note = Acircumflextilde;
rightKerningGroup = A;
unicode = 1EAA;
},
{
glyphname = Adieresis;
lastChange = "2015-07-21 14:41:09 +0000";
layers = (
{
components = (
{
name = A;
}
);
layerId = "180D1874-17C2-44EB-BA68-42C2D2C9E124";
name = Light;
paths = (
{
closed = 1;
nodes = (
"437 760 OFFCURVE",
"453 774 OFFCURVE",
"453 794 CURVE SMOOTH",
"453 814 OFFCURVE",
"437 828 OFFCURVE",
"419 828 CURVE SMOOTH",
"401 828 OFFCURVE",
"385 814 OFFCURVE",
"385 794 CURVE SMOOTH",
"385 774 OFFCURVE",
"401 760 OFFCURVE",
"419 760 CURVE SMOOTH"
);
},
{
closed = 1;
nodes = (
"259 760 OFFCURVE",
"275 774 OFFCURVE",
"275 794 CURVE SMOOTH",
"275 814 OFFCURVE",
"259 828 OFFCURVE",
"241 828 CURVE SMOOTH",
"223 828 OFFCURVE",
"207 814 OFFCURVE",
"207 794 CURVE SMOOTH",
"207 774 OFFCURVE",
"223 760 OFFCURVE",
"241 760 CURVE SMOOTH"
);
}
);
width = 672;
}
);
leftKerningGroup = A;
note = Adieresis;
rightKerningGroup = A;
unicode = 00C4;
},
{
glyphname = Adotbelow;
lastChange = "2015-07-21 14:41:09 +0000";
layers = (
{
layerId = "180D1874-17C2-44EB-BA68-42C2D2C9E124";
name = Light;
paths = (
{
closed = 1;
nodes = (
"178 0 LINE SMOOTH",
"184 0 OFFCURVE",
"185 5 OFFCURVE",
"185 8 CURVE SMOOTH",
"185 16 OFFCURVE",
"179 20 OFFCURVE",
"169 21 CURVE SMOOTH",
"106 27 LINE",
"182 245 LINE",
"479 245 LINE",
"554 26 LINE",
"504 26 LINE SMOOTH",
"492 26 OFFCURVE",
"487 20 OFFCURVE",
"487 12 CURVE SMOOTH",
"487 5 OFFCURVE",
"491 0 OFFCURVE",
"496 0 CURVE SMOOTH",
"650 0 LINE SMOOTH",
"656 0 OFFCURVE",
"657 5 OFFCURVE",
"657 8 CURVE SMOOTH",
"657 16 OFFCURVE",
"651 20 OFFCURVE",
"641 21 CURVE SMOOTH",
"590 27 LINE",
"356 695 LINE",
"310 695 LINE",
"74 26 LINE",
"32 26 LINE SMOOTH",
"20 26 OFFCURVE",
"15 20 OFFCURVE",
"15 12 CURVE SMOOTH",
"15 5 OFFCURVE",
"19 0 OFFCURVE",
"24 0 CURVE SMOOTH"
);
},
{
closed = 1;
nodes = (
"350 -135 OFFCURVE",
"365 -120 OFFCURVE",
"365 -100 CURVE SMOOTH",
"365 -80 OFFCURVE",
"350 -65 OFFCURVE",
"330 -65 CURVE SMOOTH",
"310 -65 OFFCURVE",
"295 -80 OFFCURVE",
"295 -100 CURVE SMOOTH",
"295 -120 OFFCURVE",
"310 -135 OFFCURVE",
"330 -135 CURVE SMOOTH"
);
},
{
closed = 1;
nodes = (
"330 665 LINE",
"468 273 LINE",
"192 273 LINE"
);
}
);
width = 672;
}
);
leftKerningGroup = A;
note = Adotbelow;
rightKerningGroup = A;
unicode = 1EA0;
},
{
glyphname = Agrave;
lastChange = "2015-07-21 14:41:09 +0000";
layers = (
{
components = (
{
name = A;
}
);
layerId = "180D1874-17C2-44EB-BA68-42C2D2C9E124";
name = Light;
paths = (
{
closed = 1;
nodes = (
"379 763 LINE",
"307 881 LINE",
"277 863 LINE",
"357 750 LINE"
);
}
);
width = 672;
}
);
leftKerningGroup = A;
note = Agrave;
rightKerningGroup = A;
unicode = 00C0;
},
{
glyphname = Ahookabove;
lastChange = "2015-07-21 14:41:09 +0000";
layers = (
{
layerId = "180D1874-17C2-44EB-BA68-42C2D2C9E124";
name = Light;
paths = (
{
closed = 1;
nodes = (
"178 0 LINE SMOOTH",
"184 0 OFFCURVE",
"185 5 OFFCURVE",
"185 8 CURVE SMOOTH",
"185 16 OFFCURVE",
"179 20 OFFCURVE",
"169 21 CURVE SMOOTH",
"106 27 LINE",
"182 245 LINE",
"479 245 LINE",
"554 26 LINE",
"504 26 LINE SMOOTH",
"492 26 OFFCURVE",
"487 20 OFFCURVE",
"487 12 CURVE SMOOTH",
"487 5 OFFCURVE",
"491 0 OFFCURVE",
"496 0 CURVE SMOOTH",
"650 0 LINE SMOOTH",
"656 0 OFFCURVE",
"657 5 OFFCURVE",
"657 8 CURVE SMOOTH",
"657 16 OFFCURVE",
"651 20 OFFCURVE",
"641 21 CURVE SMOOTH",
"590 27 LINE",
"356 695 LINE",
"310 695 LINE",
"74 26 LINE",
"32 26 LINE SMOOTH",
"20 26 OFFCURVE",
"15 20 OFFCURVE",
"15 12 CURVE SMOOTH",
"15 5 OFFCURVE",
"19 0 OFFCURVE",
"24 0 CURVE SMOOTH"
);
},
{
closed = 1;
nodes = (
"330 665 LINE",
"468 273 LINE",
"192 273 LINE"
);
},
{
closed = 1;
nodes = (
"339 750 LINE",
"344 793 LINE",
"369 801 OFFCURVE",
"385 820 OFFCURVE",
"385 844 CURVE SMOOTH",
"385 881 OFFCURVE",
"355 898 OFFCURVE",
"324 898 CURVE SMOOTH",
"307 898 OFFCURVE",
"288 893 OFFCURVE",
"275 888 CURVE",
"280 866 LINE",
"290 869 OFFCURVE",
"306 873 OFFCURVE",
"319 873 CURVE SMOOTH",
"338 873 OFFCURVE",
"354 864 OFFCURVE",
"354 844 CURVE SMOOTH",
"354 824 OFFCURVE",
"340 810 OFFCURVE",
"311 801 CURVE",
"315 750 LINE"
);
}
);
width = 672;
}
);
leftKerningGroup = A;
note = Ahookabove;
rightKerningGroup = A;
unicode = 1EA2;
},
{
glyphname = Amacron;
lastChange = "2015-07-21 14:41:09 +0000";
layers = (
{
components = (
{
name = A;
}
);
layerId = "180D1874-17C2-44EB-BA68-42C2D2C9E124";
name = Light;
paths = (
{
closed = 1;
nodes = (
"465 772 LINE",
"465 800 LINE",
"195 800 LINE",
"195 772 LINE"
);
}
);
width = 672;
}
);
leftKerningGroup = A;
note = Amacron;
rightKerningGroup = A;
unicode = 0100;
},
{
glyphname = Aogonek;
lastChange = "2015-07-21 14:41:09 +0000";
layers = (
{
layerId = "180D1874-17C2-44EB-BA68-42C2D2C9E124";
name = Light;
paths = (
{
closed = 1;
nodes = (
"590 -201 OFFCURVE",
"607 -198 OFFCURVE",
"622 -192 CURVE",
"617 -174 LINE",
"606 -177 OFFCURVE",
"594 -179 OFFCURVE",
"582 -179 CURVE SMOOTH",
"544 -179 OFFCURVE",
"508 -162 OFFCURVE",
"508 -112 CURVE SMOOTH",
"508 -59 OFFCURVE",
"549 -19 OFFCURVE",
"589 0 CURVE",
"650 0 LINE SMOOTH",
"656 0 OFFCURVE",
"657 5 OFFCURVE",
"657 8 CURVE SMOOTH",
"657 16 OFFCURVE",
"651 20 OFFCURVE",
"641 21 CURVE SMOOTH",
"590 27 LINE",
"356 695 LINE",
"310 695 LINE",
"74 26 LINE",
"32 26 LINE SMOOTH",
"20 26 OFFCURVE",
"15 20 OFFCURVE",
"15 12 CURVE SMOOTH",
"15 5 OFFCURVE",
"19 0 OFFCURVE",
"24 0 CURVE SMOOTH",
"178 0 LINE SMOOTH",
"184 0 OFFCURVE",
"185 5 OFFCURVE",
"185 8 CURVE SMOOTH",
"185 16 OFFCURVE",
"179 20 OFFCURVE",
"169 21 CURVE SMOOTH",
"106 27 LINE",
"182 245 LINE",
"479 245 LINE",
"554 26 LINE",
"504 26 LINE SMOOTH",
"492 26 OFFCURVE",
"487 20 OFFCURVE",
"487 12 CURVE SMOOTH",
"487 5 OFFCURVE",
"491 0 OFFCURVE",
"496 0 CURVE SMOOTH",
"555 0 LINE",
"515 -19 OFFCURVE",
"479 -60 OFFCURVE",
"479 -112 CURVE SMOOTH",
"479 -172 OFFCURVE",
"523 -201 OFFCURVE",
"574 -201 CURVE SMOOTH"
);
},
{
closed = 1;
nodes = (
"330 665 LINE",
"468 273 LINE",
"192 273 LINE"
);
}
);
width = 672;
}
);
leftKerningGroup = A;
note = Aogonek;
rightKerningGroup = A;
unicode = 0104;
},
{
glyphname = Aring;
lastChange = "2015-07-21 14:41:09 +0000";
layers = (
{
components = (
{
name = A;
}
);
layerId = "180D1874-17C2-44EB-BA68-42C2D2C9E124";
name = Light;
paths = (
{
closed = 1;
nodes = (
"381 730 OFFCURVE",
"409 763 OFFCURVE",
"409 802 CURVE SMOOTH",
"409 841 OFFCURVE",
"381 874 OFFCURVE",
"334 874 CURVE SMOOTH",
"287 874 OFFCURVE",
"259 841 OFFCURVE",
"259 802 CURVE SMOOTH",
"259 763 OFFCURVE",
"287 730 OFFCURVE",
"334 730 CURVE SMOOTH"
);
},
{
closed = 1;
nodes = (
"307 753 OFFCURVE",
"286 770 OFFCURVE",
"286 802 CURVE SMOOTH",
"286 834 OFFCURVE",
"307 851 OFFCURVE",
"334 851 CURVE SMOOTH",
"361 851 OFFCURVE",
"382 834 OFFCURVE",
"382 802 CURVE SMOOTH",
"382 770 OFFCURVE",
"361 753 OFFCURVE",
"334 753 CURVE SMOOTH"
);
}
);
width = 672;
}
);
leftKerningGroup = A;
note = Aring;
rightKerningGroup = A;
unicode = 00C5;
},
{
glyphname = Aringacute;
lastChange = "2015-07-21 14:41:09 +0000";
layers = (
{
components = (
{
name = A;
}
);
layerId = "180D1874-17C2-44EB-BA68-42C2D2C9E124";
name = Light;
paths = (
{
closed = 1;
nodes = (
"377 728 OFFCURVE",
"405 761 OFFCURVE",
"405 800 CURVE SMOOTH",
"405 839 OFFCURVE",
"377 872 OFFCURVE",
"330 872 CURVE SMOOTH",
"283 872 OFFCURVE",
"255 839 OFFCURVE",
"255 800 CURVE SMOOTH",
"255 761 OFFCURVE",
"283 728 OFFCURVE",
"330 728 CURVE SMOOTH"
);
},
{
closed = 1;
nodes = (
"303 751 OFFCURVE",
"282 768 OFFCURVE",
"282 800 CURVE SMOOTH",
"282 832 OFFCURVE",
"303 849 OFFCURVE",
"330 849 CURVE SMOOTH",
"357 849 OFFCURVE",
"378 832 OFFCURVE",
"378 800 CURVE SMOOTH",
"378 768 OFFCURVE",
"357 751 OFFCURVE",
"330 751 CURVE SMOOTH"
);
},
{
closed = 1;
nodes = (
"393 1008 LINE",
"363 1026 LINE",
"291 908 LINE",
"313 895 LINE"
);
}
);
width = 672;
}
);
leftKerningGroup = A;
note = Aringacute;
rightKerningGroup = A;
unicode = 01FA;
},
{
glyphname = Atilde;
lastChange = "2015-07-21 14:41:09 +0000";
layers = (
{
components = (
{
name = A;
}
);
layerId = "180D1874-17C2-44EB-BA68-42C2D2C9E124";
name = Light;
paths = (
{
closed = 1;
nodes = (
"412 760 OFFCURVE",
"443 779 OFFCURVE",
"466 800 CURVE",
"451 818 LINE",
"429 802 OFFCURVE",
"407 790 OFFCURVE",
"382 790 CURVE SMOOTH",
"354 790 OFFCURVE",
"314 821 OFFCURVE",
"280 821 CURVE SMOOTH",
"251 821 OFFCURVE",
"218 802 OFFCURVE",
"195 781 CURVE",
"210 763 LINE",
"232 779 OFFCURVE",
"254 791 OFFCURVE",
"279 791 CURVE SMOOTH",
"316 791 OFFCURVE",
"344 760 OFFCURVE",
"383 760 CURVE SMOOTH"
);
}
);
width = 672;
}
);
leftKerningGroup = A;
note = Atilde;
rightKerningGroup = A;
unicode = 00C3;
},
{
glyphname = AE;
lastChange = "2015-07-21 14:41:45 +0000";
layers = (
{
layerId = "180D1874-17C2-44EB-BA68-42C2D2C9E124";
name = Light;
paths = (
{
closed = 1;
nodes = (
"189 0 LINE SMOOTH",
"195 0 OFFCURVE",
"196 5 OFFCURVE",
"196 8 CURVE SMOOTH",
"196 16 OFFCURVE",
"190 20 OFFCURVE",
"180 21 CURVE SMOOTH",
"117 27 LINE",
"274 245 LINE",
"572 245 LINE",
"572 28 LINE",
"526 22 LINE SMOOTH",
"516 21 OFFCURVE",
"507 18 OFFCURVE",
"507 9 CURVE SMOOTH",
"507 4 OFFCURVE",
"510 0 OFFCURVE",
"515 0 CURVE SMOOTH",
"1021 0 LINE",
"1021 103 LINE SMOOTH",
"1021 108 OFFCURVE",
"1018 112 OFFCURVE",
"1012 112 CURVE SMOOTH",
"1003 112 OFFCURVE",
"999 106 OFFCURVE",
"997 90 CURVE SMOOTH",
"990 27 LINE",
"606 27 LINE",
"606 342 LINE",
"931 342 LINE",
"939 291 LINE SMOOTH",
"942 274 OFFCURVE",
"945 269 OFFCURVE",
"953 269 CURVE SMOOTH",
"959 269 OFFCURVE",
"962 272 OFFCURVE",
"962 278 CURVE SMOOTH",
"962 434 LINE SMOOTH",
"962 440 OFFCURVE",
"959 443 OFFCURVE",
"953 443 CURVE SMOOTH",
"945 443 OFFCURVE",
"942 438 OFFCURVE",
"939 421 CURVE SMOOTH",
"931 370 LINE",
"606 370 LINE",
"606 668 LINE",
"978 668 LINE",
"985 611 LINE SMOOTH",
"987 595 OFFCURVE",
"991 589 OFFCURVE",
"1000 589 CURVE SMOOTH",
"1006 589 OFFCURVE",
"1009 593 OFFCURVE",
"1009 598 CURVE SMOOTH",
"1009 695 LINE",
"475 695 LINE SMOOTH",
"470 695 OFFCURVE",
"467 691 OFFCURVE",
"467 686 CURVE SMOOTH",
"467 677 OFFCURVE",
"474 675 OFFCURVE",
"486 673 CURVE SMOOTH",
"532 667 LINE",
"76 26 LINE",
"34 26 LINE SMOOTH",
"22 26 OFFCURVE",
"17 20 OFFCURVE",
"17 12 CURVE SMOOTH",
"17 5 OFFCURVE",
"21 0 OFFCURVE",
"26 0 CURVE SMOOTH"
);
},
{
closed = 1;
nodes = (
"572 667 LINE",
"572 273 LINE",
"291 273 LINE"
);
}
);
width = 1098;
}
);
leftKerningGroup = A;
note = AE;
rightKerningGroup = E;
unicode = 00C6;
},
{
glyphname = AEacute;
lastChange = "2015-07-21 14:41:45 +0000";
layers = (
{
layerId = "180D1874-17C2-44EB-BA68-42C2D2C9E124";
name = Light;
paths = (
{
closed = 1;
nodes = (
"189 0 LINE SMOOTH",
"195 0 OFFCURVE",
"196 5 OFFCURVE",
"196 8 CURVE SMOOTH",
"196 16 OFFCURVE",
"190 20 OFFCURVE",
"180 21 CURVE SMOOTH",
"117 27 LINE",
"274 245 LINE",
"572 245 LINE",
"572 28 LINE",
"526 22 LINE SMOOTH",
"516 21 OFFCURVE",
"507 18 OFFCURVE",
"507 9 CURVE SMOOTH",
"507 4 OFFCURVE",
"510 0 OFFCURVE",
"515 0 CURVE SMOOTH",
"1021 0 LINE",
"1021 103 LINE SMOOTH",
"1021 108 OFFCURVE",
"1018 112 OFFCURVE",
"1012 112 CURVE SMOOTH",
"1003 112 OFFCURVE",
"999 106 OFFCURVE",
"997 90 CURVE SMOOTH",
"990 27 LINE",
"606 27 LINE",
"606 342 LINE",
"931 342 LINE",
"939 291 LINE SMOOTH",
"942 274 OFFCURVE",
"945 269 OFFCURVE",
"953 269 CURVE SMOOTH",
"959 269 OFFCURVE",
"962 272 OFFCURVE",
"962 278 CURVE SMOOTH",
"962 434 LINE SMOOTH",
"962 440 OFFCURVE",
"959 443 OFFCURVE",
"953 443 CURVE SMOOTH",
"945 443 OFFCURVE",
"942 438 OFFCURVE",
"939 421 CURVE SMOOTH",
"931 370 LINE",
"606 370 LINE",
"606 668 LINE",
"978 668 LINE",
"985 611 LINE SMOOTH",
"987 595 OFFCURVE",
"991 589 OFFCURVE",
"1000 589 CURVE SMOOTH",
"1006 589 OFFCURVE",
"1009 593 OFFCURVE",
"1009 598 CURVE SMOOTH",
"1009 695 LINE",
"475 695 LINE SMOOTH",
"470 695 OFFCURVE",
"467 691 OFFCURVE",
"467 686 CURVE SMOOTH",
"467 677 OFFCURVE",
"474 675 OFFCURVE",
"486 673 CURVE SMOOTH",
"532 667 LINE",
"76 26 LINE",
"34 26 LINE SMOOTH",
"22 26 OFFCURVE",
"17 20 OFFCURVE",
"17 12 CURVE SMOOTH",
"17 5 OFFCURVE",
"21 0 OFFCURVE",
"26 0 CURVE SMOOTH"
);
},
{
closed = 1;
nodes = (
"572 667 LINE",
"572 273 LINE",
"291 273 LINE"
);
},
{
closed = 1;
nodes = (
"827 862 LINE",
"797 880 LINE",
"725 762 LINE",
"747 749 LINE"
);
}
);
width = 1098;
}
);
leftKerningGroup = A;
note = AEacute;
rightKerningGroup = E;
unicode = 01FC;
},
{
glyphname = B;
lastChange = "2015-07-21 10:04:08 +0000";
layers = (
{
layerId = "180D1874-17C2-44EB-BA68-42C2D2C9E124";
name = Light;
paths = (
{
closed = 1;
nodes = (
"368 0 LINE SMOOTH",
"498 0 OFFCURVE",
"586 61 OFFCURVE",
"586 189 CURVE SMOOTH",
"586 290 OFFCURVE",
"523 345 OFFCURVE",
"440 367 CURVE",
"440 371 LINE",
"500 395 OFFCURVE",
"542 440 OFFCURVE",
"542 521 CURVE SMOOTH",
"542 646 OFFCURVE",
"448 695 OFFCURVE",
"333 695 CURVE SMOOTH",
"73 695 LINE SMOOTH",
"68 695 OFFCURVE",
"65 691 OFFCURVE",
"65 686 CURVE SMOOTH",
"65 677 OFFCURVE",
"74 674 OFFCURVE",
"84 673 CURVE SMOOTH",
"130 667 LINE",
"130 28 LINE",
"84 22 LINE SMOOTH",
"74 21 OFFCURVE",
"65 18 OFFCURVE",
"65 9 CURVE SMOOTH",
"65 4 OFFCURVE",
"68 0 OFFCURVE",
"73 0 CURVE SMOOTH"
);
},
{
closed = 1;
nodes = (
"164 349 LINE",
"376 349 LINE SMOOTH",
"488 349 OFFCURVE",
"551 285 OFFCURVE",
"551 189 CURVE SMOOTH",
"551 91 OFFCURVE",
"491 28 OFFCURVE",
"364 28 CURVE SMOOTH",
"164 28 LINE"
);
},
{
closed = 1;
nodes = (
"164 667 LINE",
"328 667 LINE SMOOTH",
"443 667 OFFCURVE",
"507 617 OFFCURVE",
"507 521 CURVE SMOOTH",
"507 425 OFFCURVE",
"440 377 OFFCURVE",
"358 377 CURVE SMOOTH",
"164 377 LINE"
);
}
);
width = 651;
}
);
note = B;
unicode = 0042;
},
{
glyphname = C;
lastChange = "2015-07-21 16:31:53 +0000";
layers = (
{
layerId = "180D1874-17C2-44EB-BA68-42C2D2C9E124";
name = Light;
paths = (
{
closed = 1;
nodes = (
"446 -10 OFFCURVE",
"512 6 OFFCURVE",
"555 31 CURVE SMOOTH",
"567 38 OFFCURVE",
"579 47 OFFCURVE",
"579 56 CURVE SMOOTH",
"579 62 OFFCURVE",
"575 69 OFFCURVE",
"568 69 CURVE SMOOTH",
"563 69 OFFCURVE",
"561 67 OFFCURVE",
"555 63 CURVE SMOOTH",
"507 31 OFFCURVE",
"441 19 OFFCURVE",
"379 19 CURVE SMOOTH",
"202 19 OFFCURVE",
"89 141 OFFCURVE",
"89 347 CURVE SMOOTH",
"89 553 OFFCURVE",
"194 676 OFFCURVE",
"366 676 CURVE SMOOTH",
"431 676 OFFCURVE",
"497 660 OFFCURVE",
"542 623 CURVE",
"552 554 LINE SMOOTH",
"554 539 OFFCURVE",
"558 532 OFFCURVE",
"567 532 CURVE SMOOTH",
"573 532 OFFCURVE",
"576 536 OFFCURVE",
"576 541 CURVE SMOOTH",
"576 634 LINE",
"523 679 OFFCURVE",
"441 705 OFFCURVE",
"366 705 CURVE SMOOTH",
"178 705 OFFCURVE",
"54 582 OFFCURVE",
"54 347 CURVE SMOOTH",
"54 112 OFFCURVE",
"186 -10 OFFCURVE",
"379 -10 CURVE SMOOTH"
);
}
);
width = 639;
}
);
leftKerningGroup = C;
note = C;
rightKerningGroup = C;
unicode = 0043;
},
{
glyphname = Cacute;
lastChange = "2015-07-21 14:41:19 +0000";
layers = (
{
components = (
{
name = C;
}
);
layerId = "180D1874-17C2-44EB-BA68-42C2D2C9E124";
name = Light;
paths = (
{
closed = 1;
nodes = (
"430 863 LINE",
"400 881 LINE",
"328 763 LINE",
"350 750 LINE"
);
}
);
width = 639;
}
);
leftKerningGroup = C;
note = Cacute;
rightKerningGroup = C;
unicode = 0106;
},
{
glyphname = Ccaron;
lastChange = "2015-07-21 14:41:19 +0000";
layers = (
{
components = (
{
name = C;
}
);
layerId = "180D1874-17C2-44EB-BA68-42C2D2C9E124";
name = Light;
paths = (
{
closed = 1;
nodes = (
"371 749 LINE",
"466 867 LINE",
"445 881 LINE",
"358 790 LINE",
"271 881 LINE",
"250 867 LINE",
"345 749 LINE"
);
}
);
width = 639;
}
);
leftKerningGroup = C;
note = Ccaron;
rightKerningGroup = C;
unicode = 010C;
},
{
glyphname = Ccedilla;
lastChange = "2015-07-21 14:41:19 +0000";
layers = (
{
layerId = "180D1874-17C2-44EB-BA68-42C2D2C9E124";
name = Light;
paths = (
{
closed = 1;
nodes = (
"360 -192 OFFCURVE",
"407 -160 OFFCURVE",
"407 -117 CURVE SMOOTH",
"407 -76 OFFCURVE",
"381 -58 OFFCURVE",
"358 -48 CURVE",
"376 -10 LINE",
"379 -10 LINE SMOOTH",
"446 -10 OFFCURVE",
"512 6 OFFCURVE",
"555 31 CURVE SMOOTH",
"567 38 OFFCURVE",
"579 47 OFFCURVE",
"579 56 CURVE SMOOTH",
"579 62 OFFCURVE",
"575 69 OFFCURVE",
"568 69 CURVE SMOOTH",
"563 69 OFFCURVE",
"561 67 OFFCURVE",
"555 63 CURVE SMOOTH",
"507 31 OFFCURVE",
"441 19 OFFCURVE",
"379 19 CURVE SMOOTH",
"202 19 OFFCURVE",
"89 141 OFFCURVE",
"89 347 CURVE SMOOTH",
"89 553 OFFCURVE",
"194 676 OFFCURVE",
"366 676 CURVE SMOOTH",
"431 676 OFFCURVE",
"497 660 OFFCURVE",
"542 623 CURVE",
"552 554 LINE SMOOTH",
"554 539 OFFCURVE",
"558 532 OFFCURVE",
"567 532 CURVE SMOOTH",
"573 532 OFFCURVE",
"576 536 OFFCURVE",
"576 541 CURVE SMOOTH",
"576 634 LINE",
"523 679 OFFCURVE",
"441 705 OFFCURVE",
"366 705 CURVE SMOOTH",
"178 705 OFFCURVE",
"54 582 OFFCURVE",
"54 347 CURVE SMOOTH",
"54 125 OFFCURVE",
"172 4 OFFCURVE",
"347 -9 CURVE",
"328 -60 LINE",
"366 -71 OFFCURVE",
"377 -89 OFFCURVE",
"377 -117 CURVE SMOOTH",
"377 -145 OFFCURVE",
"353 -171 OFFCURVE",
"307 -186 CURVE",
"314 -205 LINE"
);
}
);
width = 639;
}
);
leftKerningGroup = C;
note = Ccedilla;
rightKerningGroup = C;
unicode = 00C7;
},
{
glyphname = Ccircumflex;
lastChange = "2015-07-21 14:41:19 +0000";
layers = (
{
components = (
{
name = C;
}
);
layerId = "180D1874-17C2-44EB-BA68-42C2D2C9E124";
name = Light;
paths = (
{
closed = 1;
nodes = (
"359 840 LINE",
"446 749 LINE",
"467 763 LINE",
"372 881 LINE",
"346 881 LINE",
"251 763 LINE",
"272 749 LINE"
);
}
);
width = 639;
}
);
leftKerningGroup = C;
note = Ccircumflex;
rightKerningGroup = C;
unicode = 0108;
},
{
glyphname = Cdotaccent;
lastChange = "2015-07-21 14:41:19 +0000";
layers = (
{
components = (
{
name = C;
}
);
layerId = "180D1874-17C2-44EB-BA68-42C2D2C9E124";
name = Light;
paths = (
{
closed = 1;
nodes = (
"375 765 OFFCURVE",
"390 780 OFFCURVE",
"390 800 CURVE SMOOTH",
"390 820 OFFCURVE",
"375 835 OFFCURVE",
"355 835 CURVE SMOOTH",
"335 835 OFFCURVE",
"320 820 OFFCURVE",
"320 800 CURVE SMOOTH",
"320 780 OFFCURVE",
"335 765 OFFCURVE",
"355 765 CURVE SMOOTH"
);
}
);
width = 639;
}
);
leftKerningGroup = C;
note = Cdotaccent;
rightKerningGroup = C;
unicode = 010A;
},
{
glyphname = D;
lastChange = "2015-07-21 14:41:25 +0000";
layers = (
{
layerId = "180D1874-17C2-44EB-BA68-42C2D2C9E124";
name = Light;
paths = (
{
closed = 1;
nodes = (
"336 0 LINE SMOOTH",
"524 0 OFFCURVE",
"658 112 OFFCURVE",
"658 347 CURVE SMOOTH",
"658 582 OFFCURVE",
"524 695 OFFCURVE",
"336 695 CURVE SMOOTH",
"73 695 LINE SMOOTH",
"68 695 OFFCURVE",
"65 691 OFFCURVE",
"65 686 CURVE SMOOTH",
"65 677 OFFCURVE",
"74 674 OFFCURVE",
"84 673 CURVE SMOOTH",
"130 667 LINE",
"130 28 LINE",
"84 22 LINE SMOOTH",
"74 21 OFFCURVE",
"65 18 OFFCURVE",
"65 9 CURVE SMOOTH",
"65 4 OFFCURVE",
"68 0 OFFCURVE",
"73 0 CURVE SMOOTH"
);
},
{
closed = 1;
nodes = (
"164 667 LINE",
"336 667 LINE SMOOTH",
"508 667 OFFCURVE",
"623 553 OFFCURVE",
"623 347 CURVE SMOOTH",
"623 141 OFFCURVE",
"508 28 OFFCURVE",
"336 28 CURVE SMOOTH",
"164 28 LINE"
);
}
);
width = 713;
}
);
note = D;
rightKerningGroup = D;
unicode = 0044;
},
{
glyphname = Eth;
lastChange = "2015-07-21 14:41:25 +0000";
layers = (
{
layerId = "180D1874-17C2-44EB-BA68-42C2D2C9E124";
name = Light;
paths = (
{
closed = 1;
nodes = (
"338 0 LINE SMOOTH",
"526 0 OFFCURVE",
"660 112 OFFCURVE",
"660 347 CURVE SMOOTH",
"660 582 OFFCURVE",
"526 695 OFFCURVE",
"338 695 CURVE SMOOTH",
"75 695 LINE SMOOTH",
"70 695 OFFCURVE",
"67 691 OFFCURVE",
"67 686 CURVE SMOOTH",
"67 677 OFFCURVE",
"76 674 OFFCURVE",
"86 673 CURVE SMOOTH",
"132 667 LINE",
"132 369 LINE",
"67 369 LINE",
"67 339 LINE",
"132 339 LINE",
"132 28 LINE",
"86 22 LINE SMOOTH",
"76 21 OFFCURVE",
"67 18 OFFCURVE",
"67 9 CURVE SMOOTH",
"67 4 OFFCURVE",
"70 0 OFFCURVE",
"75 0 CURVE SMOOTH"
);
},
{
closed = 1;
nodes = (
"166 339 LINE",
"375 339 LINE",
"375 369 LINE",
"166 369 LINE",
"166 667 LINE",
"338 667 LINE SMOOTH",
"510 667 OFFCURVE",
"625 553 OFFCURVE",
"625 347 CURVE SMOOTH",
"625 141 OFFCURVE",
"510 28 OFFCURVE",
"338 28 CURVE SMOOTH",
"166 28 LINE"
);
}
);
width = 715;
}
);
note = Eth;
rightKerningGroup = D;
unicode = 00D0;
},
{
glyphname = Dcaron;
lastChange = "2015-07-21 14:41:25 +0000";
layers = (
{
layerId = "180D1874-17C2-44EB-BA68-42C2D2C9E124";
name = Light;
paths = (
{
closed = 1;
nodes = (
"336 0 LINE SMOOTH",
"524 0 OFFCURVE",
"658 112 OFFCURVE",
"658 347 CURVE SMOOTH",
"658 582 OFFCURVE",
"524 695 OFFCURVE",
"336 695 CURVE SMOOTH",
"73 695 LINE SMOOTH",
"68 695 OFFCURVE",
"65 691 OFFCURVE",
"65 686 CURVE SMOOTH",
"65 677 OFFCURVE",
"74 674 OFFCURVE",
"84 673 CURVE SMOOTH",
"130 667 LINE",
"130 28 LINE",
"84 22 LINE SMOOTH",
"74 21 OFFCURVE",
"65 18 OFFCURVE",
"65 9 CURVE SMOOTH",
"65 4 OFFCURVE",
"68 0 OFFCURVE",
"73 0 CURVE SMOOTH"
);
},
{
closed = 1;
nodes = (
"164 667 LINE",
"336 667 LINE SMOOTH",
"508 667 OFFCURVE",
"623 553 OFFCURVE",
"623 347 CURVE SMOOTH",
"623 141 OFFCURVE",
"508 28 OFFCURVE",
"336 28 CURVE SMOOTH",
"164 28 LINE"
);
},
{
closed = 1;
nodes = (
"361 749 LINE",
"456 867 LINE",
"435 881 LINE",
"348 790 LINE",
"261 881 LINE",
"240 867 LINE",
"335 749 LINE"
);
}
);
width = 713;
}
);
note = Dcaron;
rightKerningGroup = D;
unicode = 010E;
},
{
glyphname = Dcroat;
lastChange = "2015-07-21 14:41:25 +0000";
layers = (
{
layerId = "180D1874-17C2-44EB-BA68-42C2D2C9E124";
name = Light;
paths = (
{
closed = 1;
nodes = (
"338 0 LINE SMOOTH",
"526 0 OFFCURVE",
"660 112 OFFCURVE",
"660 347 CURVE SMOOTH",
"660 582 OFFCURVE",
"526 695 OFFCURVE",
"338 695 CURVE SMOOTH",
"75 695 LINE SMOOTH",
"70 695 OFFCURVE",
"67 691 OFFCURVE",
"67 686 CURVE SMOOTH",
"67 677 OFFCURVE",
"76 674 OFFCURVE",
"86 673 CURVE SMOOTH",
"132 667 LINE",
"132 369 LINE",
"67 369 LINE",
"67 339 LINE",
"132 339 LINE",
"132 28 LINE",
"86 22 LINE SMOOTH",
"76 21 OFFCURVE",
"67 18 OFFCURVE",
"67 9 CURVE SMOOTH",
"67 4 OFFCURVE",
"70 0 OFFCURVE",
"75 0 CURVE SMOOTH"
);
},
{
closed = 1;
nodes = (
"166 339 LINE",
"375 339 LINE",
"375 369 LINE",
"166 369 LINE",
"166 667 LINE",
"338 667 LINE SMOOTH",
"510 667 OFFCURVE",
"625 553 OFFCURVE",
"625 347 CURVE SMOOTH",
"625 141 OFFCURVE",
"510 28 OFFCURVE",
"338 28 CURVE SMOOTH",
"166 28 LINE"
);
}
);
width = 715;
}
);
note = Dcroat;
rightKerningGroup = D;
unicode = 0110;
},
{
glyphname = Ddotbelow;
lastChange = "2015-07-21 14:41:25 +0000";
layers = (
{
layerId = "180D1874-17C2-44EB-BA68-42C2D2C9E124";
name = Light;
paths = (
{
closed = 1;
nodes = (
"336 0 LINE SMOOTH",
"524 0 OFFCURVE",
"658 112 OFFCURVE",
"658 347 CURVE SMOOTH",
"658 582 OFFCURVE",
"524 695 OFFCURVE",
"336 695 CURVE SMOOTH",
"73 695 LINE SMOOTH",
"68 695 OFFCURVE",
"65 691 OFFCURVE",
"65 686 CURVE SMOOTH",
"65 677 OFFCURVE",
"74 674 OFFCURVE",
"84 673 CURVE SMOOTH",
"130 667 LINE",
"130 28 LINE",
"84 22 LINE SMOOTH",
"74 21 OFFCURVE",
"65 18 OFFCURVE",
"65 9 CURVE SMOOTH",
"65 4 OFFCURVE",
"68 0 OFFCURVE",
"73 0 CURVE SMOOTH"
);
},
{
closed = 1;
nodes = (
"378 -135 OFFCURVE",
"393 -120 OFFCURVE",
"393 -100 CURVE SMOOTH",
"393 -80 OFFCURVE",
"378 -65 OFFCURVE",
"358 -65 CURVE SMOOTH",
"338 -65 OFFCURVE",
"323 -80 OFFCURVE",
"323 -100 CURVE SMOOTH",
"323 -120 OFFCURVE",
"338 -135 OFFCURVE",
"358 -135 CURVE SMOOTH"
);
},
{
closed = 1;
nodes = (
"164 667 LINE",
"336 667 LINE SMOOTH",
"508 667 OFFCURVE",
"623 553 OFFCURVE",
"623 347 CURVE SMOOTH",
"623 141 OFFCURVE",
"508 28 OFFCURVE",
"336 28 CURVE SMOOTH",
"164 28 LINE"
);
}
);
width = 713;
}
);
note = Ddotbelow;
rightKerningGroup = D;
unicode = 1E0C;
},
{
glyphname = Dlinebelow;
lastChange = "2015-07-21 14:41:25 +0000";
layers = (
{
layerId = "180D1874-17C2-44EB-BA68-42C2D2C9E124";
name = Light;
paths = (
{
closed = 1;
nodes = (
"336 0 LINE SMOOTH",
"524 0 OFFCURVE",
"658 112 OFFCURVE",
"658 347 CURVE SMOOTH",
"658 582 OFFCURVE",
"524 695 OFFCURVE",
"336 695 CURVE SMOOTH",
"73 695 LINE SMOOTH",
"68 695 OFFCURVE",
"65 691 OFFCURVE",
"65 686 CURVE SMOOTH",
"65 677 OFFCURVE",
"74 674 OFFCURVE",
"84 673 CURVE SMOOTH",
"130 667 LINE",
"130 28 LINE",
"84 22 LINE SMOOTH",
"74 21 OFFCURVE",
"65 18 OFFCURVE",
"65 9 CURVE SMOOTH",
"65 4 OFFCURVE",
"68 0 OFFCURVE",
"73 0 CURVE SMOOTH"
);
},
{
closed = 1;
nodes = (
"507 -114 LINE",
"507 -88 LINE",
"153 -88 LINE",
"153 -114 LINE"
);
},
{
closed = 1;
nodes = (
"164 667 LINE",
"336 667 LINE SMOOTH",
"508 667 OFFCURVE",
"623 553 OFFCURVE",
"623 347 CURVE SMOOTH",
"623 141 OFFCURVE",
"508 28 OFFCURVE",
"336 28 CURVE SMOOTH",
"164 28 LINE"
);
}
);
width = 713;
}
);
note = Dlinebelow;
rightKerningGroup = D;
unicode = 1E0E;
},
{
glyphname = E;
lastChange = "2015-07-21 14:41:36 +0000";
layers = (
{
layerId = "180D1874-17C2-44EB-BA68-42C2D2C9E124";
name = Light;
paths = (
{
closed = 1;
nodes = (
"579 0 LINE",
"579 103 LINE SMOOTH",
"579 108 OFFCURVE",
"576 112 OFFCURVE",
"570 112 CURVE SMOOTH",
"561 112 OFFCURVE",
"557 106 OFFCURVE",
"555 90 CURVE SMOOTH",
"548 27 LINE",
"164 27 LINE",
"164 342 LINE",
"489 342 LINE",
"497 291 LINE SMOOTH",
"500 274 OFFCURVE",
"503 269 OFFCURVE",
"511 269 CURVE SMOOTH",
"517 269 OFFCURVE",
"520 272 OFFCURVE",
"520 278 CURVE SMOOTH",
"520 434 LINE SMOOTH",
"520 440 OFFCURVE",
"517 443 OFFCURVE",
"511 443 CURVE SMOOTH",
"503 443 OFFCURVE",
"500 438 OFFCURVE",
"497 421 CURVE SMOOTH",
"489 370 LINE",
"164 370 LINE",
"164 668 LINE",
"536 668 LINE",
"543 611 LINE SMOOTH",
"545 595 OFFCURVE",
"549 589 OFFCURVE",
"558 589 CURVE SMOOTH",
"564 589 OFFCURVE",
"567 593 OFFCURVE",
"567 598 CURVE SMOOTH",
"567 695 LINE",
"73 695 LINE SMOOTH",
"68 695 OFFCURVE",
"65 691 OFFCURVE",
"65 686 CURVE SMOOTH",
"65 677 OFFCURVE",
"72 675 OFFCURVE",
"84 673 CURVE SMOOTH",
"130 667 LINE",
"130 28 LINE",
"84 22 LINE SMOOTH",
"74 21 OFFCURVE",
"65 18 OFFCURVE",
"65 9 CURVE SMOOTH",
"65 4 OFFCURVE",
"68 0 OFFCURVE",
"73 0 CURVE SMOOTH"
);
}
);
width = 656;
}
);
leftKerningGroup = E;
note = E;
rightKerningGroup = E;
unicode = 0045;
},
{
glyphname = Eacute;
lastChange = "2015-07-21 14:41:36 +0000";
layers = (
{
components = (
{
name = E;
}
);
layerId = "180D1874-17C2-44EB-BA68-42C2D2C9E124";
name = Light;
paths = (
{
closed = 1;
nodes = (
"384 863 LINE",
"354 881 LINE",
"282 763 LINE",
"304 750 LINE"
);
}
);
width = 656;
}
);
leftKerningGroup = E;
note = Eacute;
rightKerningGroup = E;
unicode = 00C9;
},
{
glyphname = Ebreve;
lastChange = "2015-07-21 14:41:36 +0000";
layers = (
{
components = (
{
name = E;
}
);
layerId = "180D1874-17C2-44EB-BA68-42C2D2C9E124";
name = Light;
paths = (
{
closed = 1;
nodes = (
"391 747 OFFCURVE",
"442 776 OFFCURVE",
"463 851 CURVE",
"436 861 LINE",
"424 814 OFFCURVE",
"391 775 OFFCURVE",
"336 775 CURVE SMOOTH",
"281 775 OFFCURVE",
"248 814 OFFCURVE",
"236 861 CURVE",
"209 851 LINE",
"230 776 OFFCURVE",
"281 747 OFFCURVE",
"336 747 CURVE SMOOTH"
);
}
);
width = 656;
}
);
leftKerningGroup = E;
note = Ebreve;
rightKerningGroup = E;
unicode = 0114;
},
{
glyphname = Ecaron;
lastChange = "2015-07-21 14:41:36 +0000";
layers = (
{
components = (
{
name = E;
}
);
layerId = "180D1874-17C2-44EB-BA68-42C2D2C9E124";
name = Light;
paths = (
{
closed = 1;
nodes = (
"348 749 LINE",
"443 867 LINE",
"422 881 LINE",
"335 790 LINE",
"248 881 LINE",
"227 867 LINE",
"322 749 LINE"
);
}
);
width = 656;
}
);
leftKerningGroup = E;
note = Ecaron;
rightKerningGroup = E;
unicode = 011A;
},
{
glyphname = Ecircumflex;
lastChange = "2015-07-21 14:41:36 +0000";
layers = (
{
components = (
{
name = E;
}
);
layerId = "180D1874-17C2-44EB-BA68-42C2D2C9E124";
name = Light;
paths = (
{
closed = 1;
nodes = (
"337 840 LINE",
"424 749 LINE",
"445 763 LINE",
"350 881 LINE",
"324 881 LINE",
"229 763 LINE",
"250 749 LINE"
);
}
);
width = 656;
}
);
leftKerningGroup = E;
note = Ecircumflex;
rightKerningGroup = E;
unicode = 00CA;
},
{
glyphname = Ecircumflexacute;
lastChange = "2015-07-21 14:41:36 +0000";
layers = (
{
layerId = "180D1874-17C2-44EB-BA68-42C2D2C9E124";
name = Light;
paths = (
{
closed = 1;
nodes = (
"579 0 LINE",
"579 103 LINE SMOOTH",
"579 108 OFFCURVE",
"576 112 OFFCURVE",
"570 112 CURVE SMOOTH",
"561 112 OFFCURVE",
"557 106 OFFCURVE",
"555 90 CURVE SMOOTH",
"548 27 LINE",
"164 27 LINE",
"164 342 LINE",
"489 342 LINE",
"497 291 LINE SMOOTH",
"500 274 OFFCURVE",
"503 269 OFFCURVE",
"511 269 CURVE SMOOTH",
"517 269 OFFCURVE",
"520 272 OFFCURVE",
"520 278 CURVE SMOOTH",
"520 434 LINE SMOOTH",
"520 440 OFFCURVE",
"517 443 OFFCURVE",
"511 443 CURVE SMOOTH",
"503 443 OFFCURVE",
"500 438 OFFCURVE",
"497 421 CURVE SMOOTH",
"489 370 LINE",
"164 370 LINE",
"164 668 LINE",
"536 668 LINE",
"543 611 LINE SMOOTH",
"545 595 OFFCURVE",
"549 589 OFFCURVE",
"558 589 CURVE SMOOTH",
"564 589 OFFCURVE",
"567 593 OFFCURVE",
"567 598 CURVE SMOOTH",
"567 695 LINE",
"73 695 LINE SMOOTH",
"68 695 OFFCURVE",
"65 691 OFFCURVE",
"65 686 CURVE SMOOTH",
"65 677 OFFCURVE",
"72 675 OFFCURVE",
"84 673 CURVE SMOOTH",
"130 667 LINE",
"130 28 LINE",
"84 22 LINE SMOOTH",
"74 21 OFFCURVE",
"65 18 OFFCURVE",
"65 9 CURVE SMOOTH",
"65 4 OFFCURVE",
"68 0 OFFCURVE",
"73 0 CURVE SMOOTH"
);
},
{
closed = 1;
nodes = (
"337 840 LINE",
"424 749 LINE",
"445 763 LINE",
"350 881 LINE",
"324 881 LINE",
"229 763 LINE",
"250 749 LINE"
);
},
{
closed = 1;
nodes = (
"507 920 LINE",
"477 938 LINE",
"419 842 LINE",
"441 829 LINE"
);
}
);
width = 656;
}
);
leftKerningGroup = E;
note = Ecircumflexacute;
rightKerningGroup = E;
unicode = 1EBE;
},
{
glyphname = Ecircumflexdotbelow;
lastChange = "2015-07-21 14:41:36 +0000";
layers = (
{
layerId = "180D1874-17C2-44EB-BA68-42C2D2C9E124";
name = Light;
paths = (
{
closed = 1;
nodes = (
"579 0 LINE",
"579 103 LINE SMOOTH",
"579 108 OFFCURVE",
"576 112 OFFCURVE",
"570 112 CURVE SMOOTH",
"561 112 OFFCURVE",
"557 106 OFFCURVE",
"555 90 CURVE SMOOTH",
"548 27 LINE",
"164 27 LINE",
"164 342 LINE",
"489 342 LINE",
"497 291 LINE SMOOTH",
"500 274 OFFCURVE",
"503 269 OFFCURVE",
"511 269 CURVE SMOOTH",
"517 269 OFFCURVE",
"520 272 OFFCURVE",
"520 278 CURVE SMOOTH",
"520 434 LINE SMOOTH",
"520 440 OFFCURVE",
"517 443 OFFCURVE",
"511 443 CURVE SMOOTH",
"503 443 OFFCURVE",
"500 438 OFFCURVE",
"497 421 CURVE SMOOTH",
"489 370 LINE",
"164 370 LINE",
"164 668 LINE",
"536 668 LINE",
"543 611 LINE SMOOTH",
"545 595 OFFCURVE",
"549 589 OFFCURVE",
"558 589 CURVE SMOOTH",
"564 589 OFFCURVE",
"567 593 OFFCURVE",
"567 598 CURVE SMOOTH",
"567 695 LINE",
"73 695 LINE SMOOTH",
"68 695 OFFCURVE",
"65 691 OFFCURVE",
"65 686 CURVE SMOOTH",
"65 677 OFFCURVE",
"72 675 OFFCURVE",
"84 673 CURVE SMOOTH",
"130 667 LINE",
"130 28 LINE",
"84 22 LINE SMOOTH",
"74 21 OFFCURVE",
"65 18 OFFCURVE",
"65 9 CURVE SMOOTH",
"65 4 OFFCURVE",
"68 0 OFFCURVE",
"73 0 CURVE SMOOTH"
);
},
{
closed = 1;
nodes = (
"365 -135 OFFCURVE",
"380 -120 OFFCURVE",
"380 -100 CURVE SMOOTH",
"380 -80 OFFCURVE",
"365 -65 OFFCURVE",
"345 -65 CURVE SMOOTH",
"325 -65 OFFCURVE",
"310 -80 OFFCURVE",
"310 -100 CURVE SMOOTH",
"310 -120 OFFCURVE",
"325 -135 OFFCURVE",
"345 -135 CURVE SMOOTH"
);
},
{
closed = 1;
nodes = (
"337 840 LINE",
"424 749 LINE",
"445 763 LINE",
"350 881 LINE",
"324 881 LINE",
"229 763 LINE",
"250 749 LINE"
);
}
);
width = 656;
}
);
leftKerningGroup = E;
note = Ecircumflexdotbelow;
rightKerningGroup = E;
unicode = 1EC6;
},
{
glyphname = Ecircumflexgrave;
lastChange = "2015-07-21 14:41:36 +0000";
layers = (
{
layerId = "180D1874-17C2-44EB-BA68-42C2D2C9E124";
name = Light;
paths = (
{
closed = 1;
nodes = (
"579 0 LINE",
"579 103 LINE SMOOTH",
"579 108 OFFCURVE",
"576 112 OFFCURVE",
"570 112 CURVE SMOOTH",
"561 112 OFFCURVE",
"557 106 OFFCURVE",
"555 90 CURVE SMOOTH",
"548 27 LINE",
"164 27 LINE",
"164 342 LINE",
"489 342 LINE",
"497 291 LINE SMOOTH",
"500 274 OFFCURVE",
"503 269 OFFCURVE",
"511 269 CURVE SMOOTH",
"517 269 OFFCURVE",
"520 272 OFFCURVE",
"520 278 CURVE SMOOTH",
"520 434 LINE SMOOTH",
"520 440 OFFCURVE",
"517 443 OFFCURVE",
"511 443 CURVE SMOOTH",
"503 443 OFFCURVE",
"500 438 OFFCURVE",
"497 421 CURVE SMOOTH",
"489 370 LINE",
"164 370 LINE",
"164 668 LINE",
"536 668 LINE",
"543 611 LINE SMOOTH",
"545 595 OFFCURVE",
"549 589 OFFCURVE",
"558 589 CURVE SMOOTH",
"564 589 OFFCURVE",
"567 593 OFFCURVE",
"567 598 CURVE SMOOTH",
"567 695 LINE",
"73 695 LINE SMOOTH",
"68 695 OFFCURVE",
"65 691 OFFCURVE",
"65 686 CURVE SMOOTH",
"65 677 OFFCURVE",
"72 675 OFFCURVE",
"84 673 CURVE SMOOTH",
"130 667 LINE",
"130 28 LINE",
"84 22 LINE SMOOTH",
"74 21 OFFCURVE",
"65 18 OFFCURVE",
"65 9 CURVE SMOOTH",
"65 4 OFFCURVE",
"68 0 OFFCURVE",
"73 0 CURVE SMOOTH"
);
},
{
closed = 1;
nodes = (
"255 842 LINE",
"197 938 LINE",
"167 920 LINE",
"233 829 LINE"
);
},
{
closed = 1;
nodes = (
"337 840 LINE",
"424 749 LINE",
"445 763 LINE",
"350 881 LINE",
"324 881 LINE",
"229 763 LINE",
"250 749 LINE"
);
}
);
width = 656;
}
);
leftKerningGroup = E;
note = Ecircumflexgrave;
rightKerningGroup = E;
unicode = 1EC0;
},
{
glyphname = Ecircumflexhookabove;
lastChange = "2015-07-21 14:41:36 +0000";
layers = (
{
layerId = "180D1874-17C2-44EB-BA68-42C2D2C9E124";
name = Light;
paths = (
{
closed = 1;
nodes = (
"579 0 LINE",
"579 103 LINE SMOOTH",
"579 108 OFFCURVE",
"576 112 OFFCURVE",
"570 112 CURVE SMOOTH",
"561 112 OFFCURVE",
"557 106 OFFCURVE",
"555 90 CURVE SMOOTH",
"548 27 LINE",
"164 27 LINE",
"164 342 LINE",
"489 342 LINE",
"497 291 LINE SMOOTH",
"500 274 OFFCURVE",
"503 269 OFFCURVE",
"511 269 CURVE SMOOTH",
"517 269 OFFCURVE",
"520 272 OFFCURVE",
"520 278 CURVE SMOOTH",
"520 434 LINE SMOOTH",
"520 440 OFFCURVE",
"517 443 OFFCURVE",
"511 443 CURVE SMOOTH",
"503 443 OFFCURVE",
"500 438 OFFCURVE",
"497 421 CURVE SMOOTH",
"489 370 LINE",
"164 370 LINE",
"164 668 LINE",
"536 668 LINE",
"543 611 LINE SMOOTH",
"545 595 OFFCURVE",
"549 589 OFFCURVE",
"558 589 CURVE SMOOTH",
"564 589 OFFCURVE",
"567 593 OFFCURVE",
"567 598 CURVE SMOOTH",
"567 695 LINE",
"73 695 LINE SMOOTH",
"68 695 OFFCURVE",
"65 691 OFFCURVE",
"65 686 CURVE SMOOTH",
"65 677 OFFCURVE",
"72 675 OFFCURVE",
"84 673 CURVE SMOOTH",
"130 667 LINE",
"130 28 LINE",
"84 22 LINE SMOOTH",
"74 21 OFFCURVE",
"65 18 OFFCURVE",
"65 9 CURVE SMOOTH",
"65 4 OFFCURVE",
"68 0 OFFCURVE",
"73 0 CURVE SMOOTH"
);
},
{
closed = 1;
nodes = (
"337 840 LINE",
"424 749 LINE",
"445 763 LINE",
"350 881 LINE",
"324 881 LINE",
"229 763 LINE",
"250 749 LINE"
);
},
{
closed = 1;
nodes = (
"470 819 LINE",
"475 859 LINE",
"497 866 OFFCURVE",
"512 883 OFFCURVE",
"512 905 CURVE SMOOTH",
"512 939 OFFCURVE",
"485 954 OFFCURVE",
"457 954 CURVE SMOOTH",
"441 954 OFFCURVE",
"424 949 OFFCURVE",
"412 945 CURVE",
"417 925 LINE",
"426 928 OFFCURVE",
"440 931 OFFCURVE",
"452 931 CURVE SMOOTH",
"469 931 OFFCURVE",
"484 923 OFFCURVE",
"484 905 CURVE SMOOTH",
"484 887 OFFCURVE",
"471 874 OFFCURVE",
"445 866 CURVE",
"448 819 LINE"
);
}
);
width = 656;
}
);
leftKerningGroup = E;
note = Ecircumflexhookabove;
rightKerningGroup = E;
unicode = 1EC2;
},
{
glyphname = Ecircumflextilde;
lastChange = "2015-07-21 14:41:36 +0000";
layers = (
{
layerId = "180D1874-17C2-44EB-BA68-42C2D2C9E124";
name = Light;
paths = (
{
closed = 1;
nodes = (
"579 0 LINE",
"579 103 LINE SMOOTH",
"579 108 OFFCURVE",
"576 112 OFFCURVE",
"570 112 CURVE SMOOTH",
"561 112 OFFCURVE",
"557 106 OFFCURVE",
"555 90 CURVE SMOOTH",
"548 27 LINE",
"164 27 LINE",
"164 342 LINE",
"489 342 LINE",
"497 291 LINE SMOOTH",
"500 274 OFFCURVE",
"503 269 OFFCURVE",
"511 269 CURVE SMOOTH",
"517 269 OFFCURVE",
"520 272 OFFCURVE",
"520 278 CURVE SMOOTH",
"520 434 LINE SMOOTH",
"520 440 OFFCURVE",
"517 443 OFFCURVE",
"511 443 CURVE SMOOTH",
"503 443 OFFCURVE",
"500 438 OFFCURVE",
"497 421 CURVE SMOOTH",
"489 370 LINE",
"164 370 LINE",
"164 668 LINE",
"536 668 LINE",
"543 611 LINE SMOOTH",
"545 595 OFFCURVE",
"549 589 OFFCURVE",
"558 589 CURVE SMOOTH",
"564 589 OFFCURVE",
"567 593 OFFCURVE",
"567 598 CURVE SMOOTH",
"567 695 LINE",
"73 695 LINE SMOOTH",
"68 695 OFFCURVE",
"65 691 OFFCURVE",
"65 686 CURVE SMOOTH",
"65 677 OFFCURVE",
"72 675 OFFCURVE",
"84 673 CURVE SMOOTH",
"130 667 LINE",
"130 28 LINE",
"84 22 LINE SMOOTH",
"74 21 OFFCURVE",
"65 18 OFFCURVE",
"65 9 CURVE SMOOTH",
"65 4 OFFCURVE",
"68 0 OFFCURVE",
"73 0 CURVE SMOOTH"
);
},
{
closed = 1;
nodes = (
"337 840 LINE",
"424 749 LINE",
"445 763 LINE",
"350 881 LINE",
"324 881 LINE",
"229 763 LINE",
"250 749 LINE"
);
},
{
closed = 1;
nodes = (
"396 912 OFFCURVE",
"419 926 OFFCURVE",
"436 941 CURVE",
"425 964 LINE",
"410 952 OFFCURVE",
"393 942 OFFCURVE",
"374 942 CURVE SMOOTH",
"354 942 OFFCURVE",
"325 966 OFFCURVE",
"301 966 CURVE SMOOTH",
"280 966 OFFCURVE",
"257 952 OFFCURVE",
"240 937 CURVE",
"251 914 LINE",
"266 926 OFFCURVE",
"282 936 OFFCURVE",
"301 936 CURVE SMOOTH",
"327 936 OFFCURVE",
"347 912 OFFCURVE",
"375 912 CURVE SMOOTH"
);
}
);
width = 656;
}
);
leftKerningGroup = E;
note = Ecircumflextilde;
rightKerningGroup = E;
unicode = 1EC4;
},
{
glyphname = Edieresis;
lastChange = "2015-07-21 14:41:36 +0000";
layers = (
{
components = (
{
name = E;
}
);
layerId = "180D1874-17C2-44EB-BA68-42C2D2C9E124";
name = Light;
paths = (
{
closed = 1;
nodes = (
"448 760 OFFCURVE",
"464 774 OFFCURVE",
"464 794 CURVE SMOOTH",
"464 814 OFFCURVE",
"448 828 OFFCURVE",
"430 828 CURVE SMOOTH",
"412 828 OFFCURVE",
"396 814 OFFCURVE",
"396 794 CURVE SMOOTH",
"396 774 OFFCURVE",
"412 760 OFFCURVE",
"430 760 CURVE SMOOTH"
);
},
{
closed = 1;
nodes = (
"270 760 OFFCURVE",
"286 774 OFFCURVE",
"286 794 CURVE SMOOTH",
"286 814 OFFCURVE",
"270 828 OFFCURVE",
"252 828 CURVE SMOOTH",
"234 828 OFFCURVE",
"218 814 OFFCURVE",
"218 794 CURVE SMOOTH",
"218 774 OFFCURVE",
"234 760 OFFCURVE",
"252 760 CURVE SMOOTH"
);
}
);
width = 656;
}
);
leftKerningGroup = E;
note = Edieresis;
rightKerningGroup = E;
unicode = 00CB;
},
{
glyphname = Edotaccent;
lastChange = "2015-07-21 14:41:36 +0000";
layers = (
{
components = (
{
name = E;
}
);
layerId = "180D1874-17C2-44EB-BA68-42C2D2C9E124";
name = Light;
paths = (
{
closed = 1;
nodes = (
"362 765 OFFCURVE",
"377 780 OFFCURVE",
"377 800 CURVE SMOOTH",
"377 820 OFFCURVE",
"362 835 OFFCURVE",
"342 835 CURVE SMOOTH",
"322 835 OFFCURVE",
"307 820 OFFCURVE",
"307 800 CURVE SMOOTH",
"307 780 OFFCURVE",
"322 765 OFFCURVE",
"342 765 CURVE SMOOTH"
);
}
);
width = 656;
}
);
leftKerningGroup = E;
note = Edotaccent;
rightKerningGroup = E;
unicode = 0116;
},
{
glyphname = Edotbelow;
lastChange = "2015-07-21 14:41:36 +0000";
layers = (
{
components = (
{
name = E;
}
);
layerId = "180D1874-17C2-44EB-BA68-42C2D2C9E124";
name = Light;
paths = (
{
closed = 1;
nodes = (
"365 -135 OFFCURVE",
"380 -120 OFFCURVE",
"380 -100 CURVE SMOOTH",
"380 -80 OFFCURVE",
"365 -65 OFFCURVE",
"345 -65 CURVE SMOOTH",
"325 -65 OFFCURVE",
"310 -80 OFFCURVE",
"310 -100 CURVE SMOOTH",
"310 -120 OFFCURVE",
"325 -135 OFFCURVE",
"345 -135 CURVE SMOOTH"
);
}
);
width = 656;
}
);
leftKerningGroup = E;
note = Edotbelow;
rightKerningGroup = E;
unicode = 1EB8;
},
{
glyphname = Egrave;
lastChange = "2015-07-21 14:41:36 +0000";
layers = (
{
components = (
{
name = E;
}
);
layerId = "180D1874-17C2-44EB-BA68-42C2D2C9E124";
name = Light;
paths = (
{
closed = 1;
nodes = (
"380 763 LINE",
"308 881 LINE",
"278 863 LINE",
"358 750 LINE"
);
}
);
width = 656;
}
);
leftKerningGroup = E;
note = Egrave;
rightKerningGroup = E;
unicode = 00C8;
},
{
glyphname = Ehookabove;
lastChange = "2015-07-21 14:41:36 +0000";
layers = (
{
components = (
{
name = E;
}
);
layerId = "180D1874-17C2-44EB-BA68-42C2D2C9E124";
name = Light;
paths = (
{
closed = 1;
nodes = (
"343 750 LINE",
"348 793 LINE",
"373 801 OFFCURVE",
"389 820 OFFCURVE",
"389 844 CURVE SMOOTH",
"389 881 OFFCURVE",
"359 898 OFFCURVE",
"328 898 CURVE SMOOTH",
"311 898 OFFCURVE",
"292 893 OFFCURVE",
"279 888 CURVE",
"284 866 LINE",
"294 869 OFFCURVE",
"310 873 OFFCURVE",
"323 873 CURVE SMOOTH",
"342 873 OFFCURVE",
"358 864 OFFCURVE",
"358 844 CURVE SMOOTH",
"358 824 OFFCURVE",
"344 810 OFFCURVE",
"315 801 CURVE",
"319 750 LINE"
);
}
);
width = 656;
}
);
leftKerningGroup = E;
note = Ehookabove;
rightKerningGroup = E;
unicode = 1EBA;
},
{
glyphname = Emacron;
lastChange = "2015-07-21 14:41:36 +0000";
layers = (
{
components = (
{
name = E;
}
);
layerId = "180D1874-17C2-44EB-BA68-42C2D2C9E124";
name = Light;
paths = (
{
closed = 1;
nodes = (
"476 772 LINE",
"476 800 LINE",
"206 800 LINE",
"206 772 LINE"
);
}
);
width = 656;
}
);
leftKerningGroup = E;
note = Emacron;
rightKerningGroup = E;
unicode = 0112;
},
{
glyphname = Eogonek;
lastChange = "2015-07-21 14:41:36 +0000";
layers = (
{
layerId = "180D1874-17C2-44EB-BA68-42C2D2C9E124";
name = Light;
paths = (
{
closed = 1;
nodes = (
"546 -201 OFFCURVE",
"563 -198 OFFCURVE",
"578 -192 CURVE",
"573 -174 LINE",
"562 -177 OFFCURVE",
"550 -179 OFFCURVE",
"538 -179 CURVE SMOOTH",
"500 -179 OFFCURVE",
"464 -162 OFFCURVE",
"464 -112 CURVE SMOOTH",
"464 -59 OFFCURVE",
"505 -19 OFFCURVE",
"545 0 CURVE",
"579 0 LINE",
"579 103 LINE SMOOTH",
"579 108 OFFCURVE",
"576 112 OFFCURVE",
"570 112 CURVE SMOOTH",
"561 112 OFFCURVE",
"557 106 OFFCURVE",
"555 90 CURVE SMOOTH",
"548 27 LINE",
"164 27 LINE",
"164 342 LINE",
"489 342 LINE",
"497 291 LINE SMOOTH",
"500 274 OFFCURVE",
"503 269 OFFCURVE",
"511 269 CURVE SMOOTH",
"517 269 OFFCURVE",
"520 272 OFFCURVE",
"520 278 CURVE SMOOTH",
"520 434 LINE SMOOTH",
"520 440 OFFCURVE",
"517 443 OFFCURVE",
"511 443 CURVE SMOOTH",
"503 443 OFFCURVE",
"500 438 OFFCURVE",
"497 421 CURVE SMOOTH",
"489 370 LINE",
"164 370 LINE",
"164 668 LINE",
"536 668 LINE",
"543 611 LINE SMOOTH",
"545 595 OFFCURVE",
"549 589 OFFCURVE",
"558 589 CURVE SMOOTH",
"564 589 OFFCURVE",
"567 593 OFFCURVE",
"567 598 CURVE SMOOTH",
"567 695 LINE",
"73 695 LINE SMOOTH",
"68 695 OFFCURVE",
"65 691 OFFCURVE",
"65 686 CURVE SMOOTH",
"65 677 OFFCURVE",
"72 675 OFFCURVE",
"84 673 CURVE SMOOTH",
"130 667 LINE",
"130 28 LINE",
"84 22 LINE SMOOTH",
"74 21 OFFCURVE",
"65 18 OFFCURVE",
"65 9 CURVE SMOOTH",
"65 4 OFFCURVE",
"68 0 OFFCURVE",
"73 0 CURVE SMOOTH",
"511 0 LINE",
"471 -19 OFFCURVE",
"435 -60 OFFCURVE",
"435 -112 CURVE SMOOTH",
"435 -172 OFFCURVE",
"479 -201 OFFCURVE",
"530 -201 CURVE SMOOTH"
);
}
);
width = 656;
}
);
leftKerningGroup = E;
note = Eogonek;
rightKerningGroup = E;
unicode = 0118;
},
{
glyphname = Etilde;
lastChange = "2015-07-21 14:41:36 +0000";
layers = (
{
layerId = "180D1874-17C2-44EB-BA68-42C2D2C9E124";
name = Light;
paths = (
{
closed = 1;
nodes = (
"579 0 LINE",
"579 103 LINE SMOOTH",
"579 108 OFFCURVE",
"576 112 OFFCURVE",
"570 112 CURVE SMOOTH",
"561 112 OFFCURVE",
"557 106 OFFCURVE",
"555 90 CURVE SMOOTH",
"548 27 LINE",
"164 27 LINE",
"164 342 LINE",
"489 342 LINE",
"497 291 LINE SMOOTH",
"500 274 OFFCURVE",
"503 269 OFFCURVE",
"511 269 CURVE SMOOTH",
"517 269 OFFCURVE",
"520 272 OFFCURVE",
"520 278 CURVE SMOOTH",
"520 434 LINE SMOOTH",
"520 440 OFFCURVE",
"517 443 OFFCURVE",
"511 443 CURVE SMOOTH",
"503 443 OFFCURVE",
"500 438 OFFCURVE",
"497 421 CURVE SMOOTH",
"489 370 LINE",
"164 370 LINE",
"164 668 LINE",
"536 668 LINE",
"543 611 LINE SMOOTH",
"545 595 OFFCURVE",
"549 589 OFFCURVE",
"558 589 CURVE SMOOTH",
"564 589 OFFCURVE",
"567 593 OFFCURVE",
"567 598 CURVE SMOOTH",
"567 695 LINE",
"73 695 LINE SMOOTH",
"68 695 OFFCURVE",
"65 691 OFFCURVE",
"65 686 CURVE SMOOTH",
"65 677 OFFCURVE",
"72 675 OFFCURVE",
"84 673 CURVE SMOOTH",
"130 667 LINE",
"130 28 LINE",
"84 22 LINE SMOOTH",
"74 21 OFFCURVE",
"65 18 OFFCURVE",
"65 9 CURVE SMOOTH",
"65 4 OFFCURVE",
"68 0 OFFCURVE",
"73 0 CURVE SMOOTH"
);
},
{
closed = 1;
nodes = (
"424 760 OFFCURVE",
"455 779 OFFCURVE",
"478 800 CURVE",
"463 818 LINE",
"441 802 OFFCURVE",
"419 790 OFFCURVE",
"394 790 CURVE SMOOTH",
"366 790 OFFCURVE",
"326 821 OFFCURVE",
"292 821 CURVE SMOOTH",
"263 821 OFFCURVE",
"230 802 OFFCURVE",
"207 781 CURVE",
"222 763 LINE",
"244 779 OFFCURVE",
"266 791 OFFCURVE",
"291 791 CURVE SMOOTH",
"328 791 OFFCURVE",
"356 760 OFFCURVE",
"395 760 CURVE SMOOTH"
);
}
);
width = 656;
}
);
leftKerningGroup = E;
note = Etilde;
rightKerningGroup = E;
unicode = 1EBC;
},
{
glyphname = F;
lastChange = "2015-07-21 10:04:07 +0000";
layers = (
{
layerId = "180D1874-17C2-44EB-BA68-42C2D2C9E124";
name = Light;
paths = (
{
closed = 1;
nodes = (
"231 0 LINE SMOOTH",
"237 0 OFFCURVE",
"238 5 OFFCURVE",
"238 8 CURVE SMOOTH",
"238 16 OFFCURVE",
"232 20 OFFCURVE",
"222 21 CURVE SMOOTH",
"164 27 LINE",
"164 332 LINE",
"480 332 LINE",
"486 279 LINE SMOOTH",
"488 263 OFFCURVE",
"492 256 OFFCURVE",
"501 256 CURVE SMOOTH",
"506 256 OFFCURVE",
"510 259 OFFCURVE",
"510 265 CURVE SMOOTH",
"510 427 LINE SMOOTH",
"510 433 OFFCURVE",
"506 436 OFFCURVE",
"501 436 CURVE SMOOTH",
"492 436 OFFCURVE",
"488 429 OFFCURVE",
"486 413 CURVE SMOOTH",
"480 360 LINE",
"164 360 LINE",
"164 667 LINE",
"526 667 LINE",
"535 606 LINE SMOOTH",
"537 591 OFFCURVE",
"541 584 OFFCURVE",
"550 584 CURVE SMOOTH",
"556 584 OFFCURVE",
"559 588 OFFCURVE",
"559 593 CURVE SMOOTH",
"559 695 LINE",
"73 695 LINE SMOOTH",
"68 695 OFFCURVE",
"65 691 OFFCURVE",
"65 686 CURVE SMOOTH",
"65 677 OFFCURVE",
"72 675 OFFCURVE",
"84 673 CURVE SMOOTH",
"130 667 LINE",
"130 26 LINE",
"84 26 LINE SMOOTH",
"72 26 OFFCURVE",
"66 20 OFFCURVE",
"66 12 CURVE SMOOTH",
"66 5 OFFCURVE",
"70 0 OFFCURVE",
"75 0 CURVE SMOOTH"
);
}
);
width = 631;
}
);
note = F;
unicode = 0046;
},
{
glyphname = G;
lastChange = "2015-07-21 16:32:02 +0000";
layers = (
{
layerId = "180D1874-17C2-44EB-BA68-42C2D2C9E124";
name = Light;
paths = (
{
closed = 1;
nodes = (
"430 -10 OFFCURVE",
"517 6 OFFCURVE",
"577 42 CURVE",
"577 314 LINE",
"635 320 LINE SMOOTH",
"645 321 OFFCURVE",
"651 323 OFFCURVE",
"651 331 CURVE SMOOTH",
"651 334 OFFCURVE",
"650 339 OFFCURVE",
"644 339 CURVE SMOOTH",
"416 339 LINE SMOOTH",
"404 339 OFFCURVE",
"399 333 OFFCURVE",
"399 326 CURVE SMOOTH",
"399 319 OFFCURVE",
"402 315 OFFCURVE",
"407 315 CURVE SMOOTH",
"543 315 LINE",
"543 57 LINE",
"494 31 OFFCURVE",
"427 19 OFFCURVE",
"369 19 CURVE SMOOTH",
"192 19 OFFCURVE",
"92 141 OFFCURVE",
"92 347 CURVE SMOOTH",
"92 553 OFFCURVE",
"197 676 OFFCURVE",
"369 676 CURVE SMOOTH",
"434 676 OFFCURVE",
"500 660 OFFCURVE",
"545 623 CURVE",
"555 554 LINE SMOOTH",
"557 539 OFFCURVE",
"561 532 OFFCURVE",
"570 532 CURVE SMOOTH",
"576 532 OFFCURVE",
"579 536 OFFCURVE",
"579 541 CURVE SMOOTH",
"579 634 LINE",
"526 679 OFFCURVE",
"444 705 OFFCURVE",
"369 705 CURVE SMOOTH",
"181 705 OFFCURVE",
"57 582 OFFCURVE",
"57 347 CURVE SMOOTH",
"57 112 OFFCURVE",
"176 -10 OFFCURVE",
"369 -10 CURVE SMOOTH"
);
}
);
width = 701;
}
);
leftKerningGroup = G;
note = G;
rightKerningGroup = G;
unicode = 0047;
},
{
glyphname = Gbreve;
lastChange = "2015-07-21 14:41:55 +0000";
layers = (
{
layerId = "180D1874-17C2-44EB-BA68-42C2D2C9E124";
name = Light;
paths = (
{
closed = 1;
nodes = (
"430 -10 OFFCURVE",
"517 6 OFFCURVE",
"577 42 CURVE",
"577 314 LINE",
"635 320 LINE SMOOTH",
"645 321 OFFCURVE",
"651 323 OFFCURVE",
"651 331 CURVE SMOOTH",
"651 334 OFFCURVE",
"650 339 OFFCURVE",
"644 339 CURVE SMOOTH",
"416 339 LINE SMOOTH",
"404 339 OFFCURVE",
"399 333 OFFCURVE",
"399 326 CURVE SMOOTH",
"399 319 OFFCURVE",
"402 315 OFFCURVE",
"407 315 CURVE SMOOTH",
"543 315 LINE",
"543 57 LINE",
"494 31 OFFCURVE",
"427 19 OFFCURVE",
"369 19 CURVE SMOOTH",
"192 19 OFFCURVE",
"92 141 OFFCURVE",
"92 347 CURVE SMOOTH",
"92 553 OFFCURVE",
"197 676 OFFCURVE",
"369 676 CURVE SMOOTH",
"434 676 OFFCURVE",
"500 660 OFFCURVE",
"545 623 CURVE",
"555 554 LINE SMOOTH",
"557 539 OFFCURVE",
"561 532 OFFCURVE",
"570 532 CURVE SMOOTH",
"576 532 OFFCURVE",
"579 536 OFFCURVE",
"579 541 CURVE SMOOTH",
"579 634 LINE",
"526 679 OFFCURVE",
"444 705 OFFCURVE",
"369 705 CURVE SMOOTH",
"181 705 OFFCURVE",
"57 582 OFFCURVE",
"57 347 CURVE SMOOTH",
"57 112 OFFCURVE",
"176 -10 OFFCURVE",
"369 -10 CURVE SMOOTH"
);
},
{
closed = 1;
nodes = (
"412 747 OFFCURVE",
"463 776 OFFCURVE",
"484 851 CURVE",
"457 861 LINE",
"445 814 OFFCURVE",
"412 775 OFFCURVE",
"357 775 CURVE SMOOTH",
"302 775 OFFCURVE",
"269 814 OFFCURVE",
"257 861 CURVE",
"230 851 LINE",
"251 776 OFFCURVE",
"302 747 OFFCURVE",
"357 747 CURVE SMOOTH"
);
}
);
width = 701;
}
);
leftKerningGroup = G;
note = Gbreve;
rightKerningGroup = G;
unicode = 011E;
},
{
glyphname = Gcaron;
lastChange = "2015-07-21 14:41:55 +0000";
layers = (
{
layerId = "180D1874-17C2-44EB-BA68-42C2D2C9E124";
name = Light;
paths = (
{
closed = 1;
nodes = (
"430 -10 OFFCURVE",
"517 6 OFFCURVE",
"577 42 CURVE",
"577 314 LINE",
"635 320 LINE SMOOTH",
"645 321 OFFCURVE",
"651 323 OFFCURVE",
"651 331 CURVE SMOOTH",
"651 334 OFFCURVE",
"650 339 OFFCURVE",
"644 339 CURVE SMOOTH",
"416 339 LINE SMOOTH",
"404 339 OFFCURVE",
"399 333 OFFCURVE",
"399 326 CURVE SMOOTH",
"399 319 OFFCURVE",
"402 315 OFFCURVE",
"407 315 CURVE SMOOTH",
"543 315 LINE",
"543 57 LINE",
"494 31 OFFCURVE",
"427 19 OFFCURVE",
"369 19 CURVE SMOOTH",
"192 19 OFFCURVE",
"92 141 OFFCURVE",
"92 347 CURVE SMOOTH",
"92 553 OFFCURVE",
"197 676 OFFCURVE",
"369 676 CURVE SMOOTH",
"434 676 OFFCURVE",
"500 660 OFFCURVE",
"545 623 CURVE",
"555 554 LINE SMOOTH",
"557 539 OFFCURVE",
"561 532 OFFCURVE",
"570 532 CURVE SMOOTH",
"576 532 OFFCURVE",
"579 536 OFFCURVE",
"579 541 CURVE SMOOTH",
"579 634 LINE",
"526 679 OFFCURVE",
"444 705 OFFCURVE",
"369 705 CURVE SMOOTH",
"181 705 OFFCURVE",
"57 582 OFFCURVE",
"57 347 CURVE SMOOTH",
"57 112 OFFCURVE",
"176 -10 OFFCURVE",
"369 -10 CURVE SMOOTH"
);
},
{
closed = 1;
nodes = (
"375 749 LINE",
"470 867 LINE",
"449 881 LINE",
"362 790 LINE",
"275 881 LINE",
"254 867 LINE",
"349 749 LINE"
);
}
);
width = 701;
}
);
leftKerningGroup = G;
note = Gcaron;
rightKerningGroup = G;
unicode = 01E6;
},
{
glyphname = Gcircumflex;
lastChange = "2015-07-21 14:41:55 +0000";
layers = (
{
layerId = "180D1874-17C2-44EB-BA68-42C2D2C9E124";
name = Light;
paths = (
{
closed = 1;
nodes = (
"430 -10 OFFCURVE",
"517 6 OFFCURVE",
"577 42 CURVE",
"577 314 LINE",
"635 320 LINE SMOOTH",
"645 321 OFFCURVE",
"651 323 OFFCURVE",
"651 331 CURVE SMOOTH",
"651 334 OFFCURVE",
"650 339 OFFCURVE",
"644 339 CURVE SMOOTH",
"416 339 LINE SMOOTH",
"404 339 OFFCURVE",
"399 333 OFFCURVE",
"399 326 CURVE SMOOTH",
"399 319 OFFCURVE",
"402 315 OFFCURVE",
"407 315 CURVE SMOOTH",
"543 315 LINE",
"543 57 LINE",
"494 31 OFFCURVE",
"427 19 OFFCURVE",
"369 19 CURVE SMOOTH",
"192 19 OFFCURVE",
"92 141 OFFCURVE",
"92 347 CURVE SMOOTH",
"92 553 OFFCURVE",
"197 676 OFFCURVE",
"369 676 CURVE SMOOTH",
"434 676 OFFCURVE",
"500 660 OFFCURVE",
"545 623 CURVE",
"555 554 LINE SMOOTH",
"557 539 OFFCURVE",
"561 532 OFFCURVE",
"570 532 CURVE SMOOTH",
"576 532 OFFCURVE",
"579 536 OFFCURVE",
"579 541 CURVE SMOOTH",
"579 634 LINE",
"526 679 OFFCURVE",
"444 705 OFFCURVE",
"369 705 CURVE SMOOTH",
"181 705 OFFCURVE",
"57 582 OFFCURVE",
"57 347 CURVE SMOOTH",
"57 112 OFFCURVE",
"176 -10 OFFCURVE",
"369 -10 CURVE SMOOTH"
);
},
{
closed = 1;
nodes = (
"359 840 LINE",
"446 749 LINE",
"467 763 LINE",
"372 881 LINE",
"346 881 LINE",
"251 763 LINE",
"272 749 LINE"
);
}
);
width = 701;
}
);
leftKerningGroup = G;
note = Gcircumflex;
rightKerningGroup = G;
unicode = 011C;
},
{
glyphname = Gcommaaccent;
lastChange = "2015-07-21 14:41:55 +0000";
layers = (
{
layerId = "180D1874-17C2-44EB-BA68-42C2D2C9E124";
name = Light;
paths = (
{
closed = 1;
nodes = (
"430 -10 OFFCURVE",
"517 6 OFFCURVE",
"577 42 CURVE",
"577 314 LINE",
"635 320 LINE SMOOTH",
"645 321 OFFCURVE",
"651 323 OFFCURVE",
"651 331 CURVE SMOOTH",
"651 334 OFFCURVE",
"650 339 OFFCURVE",
"644 339 CURVE SMOOTH",
"416 339 LINE SMOOTH",
"404 339 OFFCURVE",
"399 333 OFFCURVE",
"399 326 CURVE SMOOTH",
"399 319 OFFCURVE",
"402 315 OFFCURVE",
"407 315 CURVE SMOOTH",
"543 315 LINE",
"543 57 LINE",
"494 31 OFFCURVE",
"427 19 OFFCURVE",
"369 19 CURVE SMOOTH",
"192 19 OFFCURVE",
"92 141 OFFCURVE",
"92 347 CURVE SMOOTH",
"92 553 OFFCURVE",
"197 676 OFFCURVE",
"369 676 CURVE SMOOTH",
"434 676 OFFCURVE",
"500 660 OFFCURVE",
"545 623 CURVE",
"555 554 LINE SMOOTH",
"557 539 OFFCURVE",
"561 532 OFFCURVE",
"570 532 CURVE SMOOTH",
"576 532 OFFCURVE",
"579 536 OFFCURVE",
"579 541 CURVE SMOOTH",
"579 634 LINE",
"526 679 OFFCURVE",
"444 705 OFFCURVE",
"369 705 CURVE SMOOTH",
"181 705 OFFCURVE",
"57 582 OFFCURVE",
"57 347 CURVE SMOOTH",
"57 112 OFFCURVE",
"176 -10 OFFCURVE",
"369 -10 CURVE SMOOTH"
);
},
{
closed = 1;
nodes = (
"360 -154 OFFCURVE",
"380 -108 OFFCURVE",
"394 -51 CURVE",
"342 -38 LINE SMOOTH",
"329 -35 OFFCURVE",
"319 -40 OFFCURVE",
"319 -53 CURVE SMOOTH",
"319 -57 OFFCURVE",
"322 -60 OFFCURVE",
"325 -61 CURVE SMOOTH",
"356 -72 LINE",
"352 -103 OFFCURVE",
"334 -147 OFFCURVE",
"311 -183 CURVE",
"329 -195 LINE"
);
}
);
width = 701;
}
);
leftKerningGroup = G;
note = Gcommaaccent;
rightKerningGroup = G;
unicode = 0122;
},
{
glyphname = Gdotaccent;
lastChange = "2015-07-21 14:41:55 +0000";
layers = (
{
layerId = "180D1874-17C2-44EB-BA68-42C2D2C9E124";
name = Light;
paths = (
{
closed = 1;
nodes = (
"430 -10 OFFCURVE",
"517 6 OFFCURVE",
"577 42 CURVE",
"577 314 LINE",
"635 320 LINE SMOOTH",
"645 321 OFFCURVE",
"651 323 OFFCURVE",
"651 331 CURVE SMOOTH",
"651 334 OFFCURVE",
"650 339 OFFCURVE",
"644 339 CURVE SMOOTH",
"416 339 LINE SMOOTH",
"404 339 OFFCURVE",
"399 333 OFFCURVE",
"399 326 CURVE SMOOTH",
"399 319 OFFCURVE",
"402 315 OFFCURVE",
"407 315 CURVE SMOOTH",
"543 315 LINE",
"543 57 LINE",
"494 31 OFFCURVE",
"427 19 OFFCURVE",
"369 19 CURVE SMOOTH",
"192 19 OFFCURVE",
"92 141 OFFCURVE",
"92 347 CURVE SMOOTH",
"92 553 OFFCURVE",
"197 676 OFFCURVE",
"369 676 CURVE SMOOTH",
"434 676 OFFCURVE",
"500 660 OFFCURVE",
"545 623 CURVE",
"555 554 LINE SMOOTH",
"557 539 OFFCURVE",
"561 532 OFFCURVE",
"570 532 CURVE SMOOTH",
"576 532 OFFCURVE",
"579 536 OFFCURVE",
"579 541 CURVE SMOOTH",
"579 634 LINE",
"526 679 OFFCURVE",
"444 705 OFFCURVE",
"369 705 CURVE SMOOTH",
"181 705 OFFCURVE",
"57 582 OFFCURVE",
"57 347 CURVE SMOOTH",
"57 112 OFFCURVE",
"176 -10 OFFCURVE",
"369 -10 CURVE SMOOTH"
);
},
{
closed = 1;
nodes = (
"378 765 OFFCURVE",
"393 780 OFFCURVE",
"393 800 CURVE SMOOTH",
"393 820 OFFCURVE",
"378 835 OFFCURVE",
"358 835 CURVE SMOOTH",
"338 835 OFFCURVE",
"323 820 OFFCURVE",
"323 800 CURVE SMOOTH",
"323 780 OFFCURVE",
"338 765 OFFCURVE",
"358 765 CURVE SMOOTH"
);
}
);
width = 701;
}
);
leftKerningGroup = G;
note = Gdotaccent;
rightKerningGroup = G;
unicode = 0120;
},
{
glyphname = Gmacron;
lastChange = "2015-07-21 14:41:55 +0000";
layers = (
{
layerId = "180D1874-17C2-44EB-BA68-42C2D2C9E124";
name = Light;
paths = (
{
closed = 1;
nodes = (
"430 -10 OFFCURVE",
"517 6 OFFCURVE",
"577 42 CURVE",
"577 314 LINE",
"635 320 LINE SMOOTH",
"645 321 OFFCURVE",
"651 323 OFFCURVE",
"651 331 CURVE SMOOTH",
"651 334 OFFCURVE",
"650 339 OFFCURVE",
"644 339 CURVE SMOOTH",
"416 339 LINE SMOOTH",
"404 339 OFFCURVE",
"399 333 OFFCURVE",
"399 326 CURVE SMOOTH",
"399 319 OFFCURVE",
"402 315 OFFCURVE",
"407 315 CURVE SMOOTH",
"543 315 LINE",
"543 57 LINE",
"494 31 OFFCURVE",
"427 19 OFFCURVE",
"369 19 CURVE SMOOTH",
"192 19 OFFCURVE",
"92 141 OFFCURVE",
"92 347 CURVE SMOOTH",
"92 553 OFFCURVE",
"197 676 OFFCURVE",
"369 676 CURVE SMOOTH",
"434 676 OFFCURVE",
"500 660 OFFCURVE",
"545 623 CURVE",
"555 554 LINE SMOOTH",
"557 539 OFFCURVE",
"561 532 OFFCURVE",
"570 532 CURVE SMOOTH",
"576 532 OFFCURVE",
"579 536 OFFCURVE",
"579 541 CURVE SMOOTH",
"579 634 LINE",
"526 679 OFFCURVE",
"444 705 OFFCURVE",
"369 705 CURVE SMOOTH",
"181 705 OFFCURVE",
"57 582 OFFCURVE",
"57 347 CURVE SMOOTH",
"57 112 OFFCURVE",
"176 -10 OFFCURVE",
"369 -10 CURVE SMOOTH"
);
},
{
closed = 1;
nodes = (
"497 772 LINE",
"497 800 LINE",
"227 800 LINE",
"227 772 LINE"
);
}
);
width = 701;
}
);
leftKerningGroup = G;
note = Gmacron;
rightKerningGroup = G;
unicode = 1E20;
},
{
glyphname = H;
lastChange = "2015-07-21 17:49:20 +0000";
layers = (
{
layerId = "180D1874-17C2-44EB-BA68-42C2D2C9E124";
name = Light;
paths = (
{
closed = 1;
nodes = (
"230 0 LINE SMOOTH",
"236 0 OFFCURVE",
"237 5 OFFCURVE",
"237 8 CURVE SMOOTH",
"237 16 OFFCURVE",
"231 20 OFFCURVE",
"221 21 CURVE SMOOTH",
"163 27 LINE",
"163 347 LINE",
"604 347 LINE",
"604 26 LINE",
"552 26 LINE SMOOTH",
"540 26 OFFCURVE",
"535 20 OFFCURVE",
"535 12 CURVE SMOOTH",
"535 5 OFFCURVE",
"539 0 OFFCURVE",
"544 0 CURVE SMOOTH",
"699 0 LINE SMOOTH",
"705 0 OFFCURVE",
"706 5 OFFCURVE",
"706 8 CURVE SMOOTH",
"706 16 OFFCURVE",
"700 20 OFFCURVE",
"690 21 CURVE SMOOTH",
"638 27 LINE",
"638 668 LINE",
"690 674 LINE SMOOTH",
"700 675 OFFCURVE",
"706 679 OFFCURVE",
"706 687 CURVE SMOOTH",
"706 690 OFFCURVE",
"705 695 OFFCURVE",
"699 695 CURVE SMOOTH",
"552 695 LINE SMOOTH",
"540 695 OFFCURVE",
"535 689 OFFCURVE",
"535 681 CURVE SMOOTH",
"535 674 OFFCURVE",
"539 669 OFFCURVE",
"544 669 CURVE SMOOTH",
"604 669 LINE",
"604 375 LINE",
"163 375 LINE",
"163 668 LINE",
"221 674 LINE SMOOTH",
"231 675 OFFCURVE",
"237 679 OFFCURVE",
"237 687 CURVE SMOOTH",
"237 690 OFFCURVE",
"236 695 OFFCURVE",
"230 695 CURVE SMOOTH",
"82 695 LINE SMOOTH",
"70 695 OFFCURVE",
"65 689 OFFCURVE",
"65 681 CURVE SMOOTH",
"65 674 OFFCURVE",
"69 669 OFFCURVE",
"74 669 CURVE SMOOTH",
"129 669 LINE",
"129 26 LINE",
"83 26 LINE SMOOTH",
"71 26 OFFCURVE",
"65 20 OFFCURVE",
"65 12 CURVE SMOOTH",
"65 5 OFFCURVE",
"69 0 OFFCURVE",
"74 0 CURVE SMOOTH"
);
}
);
width = 771;
}
);
note = H;
unicode = 0048;
},
{
glyphname = Hbar;
lastChange = "2015-07-21 10:04:08 +0000";
layers = (
{
layerId = "180D1874-17C2-44EB-BA68-42C2D2C9E124";
name = Light;
paths = (
{
closed = 1;
nodes = (
"231 0 LINE SMOOTH",
"237 0 OFFCURVE",
"238 5 OFFCURVE",
"238 8 CURVE SMOOTH",
"238 16 OFFCURVE",
"232 20 OFFCURVE",
"222 21 CURVE SMOOTH",
"164 27 LINE",
"164 347 LINE",
"605 347 LINE",
"605 26 LINE",
"553 26 LINE SMOOTH",
"541 26 OFFCURVE",
"536 20 OFFCURVE",
"536 12 CURVE SMOOTH",
"536 5 OFFCURVE",
"540 0 OFFCURVE",
"545 0 CURVE SMOOTH",
"700 0 LINE SMOOTH",
"706 0 OFFCURVE",
"707 5 OFFCURVE",
"707 8 CURVE SMOOTH",
"707 16 OFFCURVE",
"701 20 OFFCURVE",
"691 21 CURVE SMOOTH",
"639 27 LINE",
"639 513 LINE",
"707 513 LINE",
"707 539 LINE",
"639 539 LINE",
"639 668 LINE",
"691 674 LINE SMOOTH",
"701 675 OFFCURVE",
"707 679 OFFCURVE",
"707 687 CURVE SMOOTH",
"707 690 OFFCURVE",
"706 695 OFFCURVE",
"700 695 CURVE SMOOTH",
"553 695 LINE SMOOTH",
"541 695 OFFCURVE",
"536 689 OFFCURVE",
"536 681 CURVE SMOOTH",
"536 674 OFFCURVE",
"540 669 OFFCURVE",
"545 669 CURVE SMOOTH",
"605 669 LINE",
"605 539 LINE",
"164 539 LINE",
"164 668 LINE",
"222 674 LINE SMOOTH",
"232 675 OFFCURVE",
"238 679 OFFCURVE",
"238 687 CURVE SMOOTH",
"238 690 OFFCURVE",
"237 695 OFFCURVE",
"231 695 CURVE SMOOTH",
"83 695 LINE SMOOTH",
"71 695 OFFCURVE",
"66 689 OFFCURVE",
"66 681 CURVE SMOOTH",
"66 674 OFFCURVE",
"70 669 OFFCURVE",
"75 669 CURVE SMOOTH",
"130 669 LINE",
"130 539 LINE",
"66 539 LINE",
"66 513 LINE",
"130 513 LINE",
"130 26 LINE",
"84 26 LINE SMOOTH",
"72 26 OFFCURVE",
"66 20 OFFCURVE",
"66 12 CURVE SMOOTH",
"66 5 OFFCURVE",
"70 0 OFFCURVE",
"75 0 CURVE SMOOTH"
);
},
{
closed = 1;
nodes = (
"164 513 LINE",
"605 513 LINE",
"605 375 LINE",
"164 375 LINE"
);
}
);
width = 773;
}
);
note = Hbar;
unicode = 0126;
},
{
glyphname = Hbrevebelow;
lastChange = "2015-07-21 10:04:08 +0000";
layers = (
{
layerId = "180D1874-17C2-44EB-BA68-42C2D2C9E124";
name = Light;
paths = (
{
closed = 1;
nodes = (
"230 0 LINE SMOOTH",
"236 0 OFFCURVE",
"237 5 OFFCURVE",
"237 8 CURVE SMOOTH",
"237 16 OFFCURVE",
"231 20 OFFCURVE",
"221 21 CURVE SMOOTH",
"163 27 LINE",
"163 347 LINE",
"604 347 LINE",
"604 26 LINE",
"552 26 LINE SMOOTH",
"540 26 OFFCURVE",
"535 20 OFFCURVE",
"535 12 CURVE SMOOTH",
"535 5 OFFCURVE",
"539 0 OFFCURVE",
"544 0 CURVE SMOOTH",
"699 0 LINE SMOOTH",
"705 0 OFFCURVE",
"706 5 OFFCURVE",
"706 8 CURVE SMOOTH",
"706 16 OFFCURVE",
"700 20 OFFCURVE",
"690 21 CURVE SMOOTH",
"638 27 LINE",
"638 668 LINE",
"690 674 LINE SMOOTH",
"700 675 OFFCURVE",
"706 679 OFFCURVE",
"706 687 CURVE SMOOTH",
"706 690 OFFCURVE",
"705 695 OFFCURVE",
"699 695 CURVE SMOOTH",
"552 695 LINE SMOOTH",
"540 695 OFFCURVE",
"535 689 OFFCURVE",
"535 681 CURVE SMOOTH",
"535 674 OFFCURVE",
"539 669 OFFCURVE",
"544 669 CURVE SMOOTH",
"604 669 LINE",
"604 375 LINE",
"163 375 LINE",
"163 668 LINE",
"221 674 LINE SMOOTH",
"231 675 OFFCURVE",
"237 679 OFFCURVE",
"237 687 CURVE SMOOTH",
"237 690 OFFCURVE",
"236 695 OFFCURVE",
"230 695 CURVE SMOOTH",
"82 695 LINE SMOOTH",
"70 695 OFFCURVE",
"65 689 OFFCURVE",
"65 681 CURVE SMOOTH",
"65 674 OFFCURVE",
"69 669 OFFCURVE",
"74 669 CURVE SMOOTH",
"129 669 LINE",
"129 26 LINE",
"83 26 LINE SMOOTH",
"71 26 OFFCURVE",
"65 20 OFFCURVE",
"65 12 CURVE SMOOTH",
"65 5 OFFCURVE",
"69 0 OFFCURVE",
"74 0 CURVE SMOOTH"
);
},
{
closed = 1;
nodes = (
"441 -166 OFFCURVE",
"492 -137 OFFCURVE",
"513 -62 CURVE",
"486 -52 LINE",
"474 -99 OFFCURVE",
"441 -138 OFFCURVE",
"386 -138 CURVE SMOOTH",
"331 -138 OFFCURVE",
"298 -99 OFFCURVE",
"286 -52 CURVE",
"259 -62 LINE",
"280 -137 OFFCURVE",
"331 -166 OFFCURVE",
"386 -166 CURVE SMOOTH"
);
}
);
width = 771;
}
);
note = Hbrevebelow;
unicode = 1E2A;
},
{
glyphname = Hcircumflex;
lastChange = "2015-07-21 10:04:08 +0000";
layers = (
{
layerId = "180D1874-17C2-44EB-BA68-42C2D2C9E124";
name = Light;
paths = (
{
closed = 1;
nodes = (
"230 0 LINE SMOOTH",
"236 0 OFFCURVE",
"237 5 OFFCURVE",
"237 8 CURVE SMOOTH",
"237 16 OFFCURVE",
"231 20 OFFCURVE",
"221 21 CURVE SMOOTH",
"163 27 LINE",
"163 347 LINE",
"604 347 LINE",
"604 26 LINE",
"552 26 LINE SMOOTH",
"540 26 OFFCURVE",
"535 20 OFFCURVE",
"535 12 CURVE SMOOTH",
"535 5 OFFCURVE",
"539 0 OFFCURVE",
"544 0 CURVE SMOOTH",
"699 0 LINE SMOOTH",
"705 0 OFFCURVE",
"706 5 OFFCURVE",
"706 8 CURVE SMOOTH",
"706 16 OFFCURVE",
"700 20 OFFCURVE",
"690 21 CURVE SMOOTH",
"638 27 LINE",
"638 668 LINE",
"690 674 LINE SMOOTH",
"700 675 OFFCURVE",
"706 679 OFFCURVE",
"706 687 CURVE SMOOTH",
"706 690 OFFCURVE",
"705 695 OFFCURVE",
"699 695 CURVE SMOOTH",
"552 695 LINE SMOOTH",
"540 695 OFFCURVE",
"535 689 OFFCURVE",
"535 681 CURVE SMOOTH",
"535 674 OFFCURVE",
"539 669 OFFCURVE",
"544 669 CURVE SMOOTH",
"604 669 LINE",
"604 375 LINE",
"163 375 LINE",
"163 668 LINE",
"221 674 LINE SMOOTH",
"231 675 OFFCURVE",
"237 679 OFFCURVE",
"237 687 CURVE SMOOTH",
"237 690 OFFCURVE",
"236 695 OFFCURVE",
"230 695 CURVE SMOOTH",
"82 695 LINE SMOOTH",
"70 695 OFFCURVE",
"65 689 OFFCURVE",
"65 681 CURVE SMOOTH",
"65 674 OFFCURVE",
"69 669 OFFCURVE",
"74 669 CURVE SMOOTH",
"129 669 LINE",
"129 26 LINE",
"83 26 LINE SMOOTH",
"71 26 OFFCURVE",
"65 20 OFFCURVE",
"65 12 CURVE SMOOTH",
"65 5 OFFCURVE",
"69 0 OFFCURVE",
"74 0 CURVE SMOOTH"
);
},
{
closed = 1;
nodes = (
"385 840 LINE",
"472 749 LINE",
"493 763 LINE",
"398 881 LINE",
"372 881 LINE",
"277 763 LINE",
"298 749 LINE"
);
}
);
width = 771;
}
);
note = Hcircumflex;
unicode = 0124;
},
{
glyphname = Hdotbelow;
lastChange = "2015-07-21 10:04:08 +0000";
layers = (
{
layerId = "180D1874-17C2-44EB-BA68-42C2D2C9E124";
name = Light;
paths = (
{
closed = 1;
nodes = (
"230 0 LINE SMOOTH",
"236 0 OFFCURVE",
"237 5 OFFCURVE",
"237 8 CURVE SMOOTH",
"237 16 OFFCURVE",
"231 20 OFFCURVE",
"221 21 CURVE SMOOTH",
"163 27 LINE",
"163 347 LINE",
"604 347 LINE",
"604 26 LINE",
"552 26 LINE SMOOTH",
"540 26 OFFCURVE",
"535 20 OFFCURVE",
"535 12 CURVE SMOOTH",
"535 5 OFFCURVE",
"539 0 OFFCURVE",
"544 0 CURVE SMOOTH",
"699 0 LINE SMOOTH",
"705 0 OFFCURVE",
"706 5 OFFCURVE",
"706 8 CURVE SMOOTH",
"706 16 OFFCURVE",
"700 20 OFFCURVE",
"690 21 CURVE SMOOTH",
"638 27 LINE",
"638 668 LINE",
"690 674 LINE SMOOTH",
"700 675 OFFCURVE",
"706 679 OFFCURVE",
"706 687 CURVE SMOOTH",
"706 690 OFFCURVE",
"705 695 OFFCURVE",
"699 695 CURVE SMOOTH",
"552 695 LINE SMOOTH",
"540 695 OFFCURVE",
"535 689 OFFCURVE",
"535 681 CURVE SMOOTH",
"535 674 OFFCURVE",
"539 669 OFFCURVE",
"544 669 CURVE SMOOTH",
"604 669 LINE",
"604 375 LINE",
"163 375 LINE",
"163 668 LINE",
"221 674 LINE SMOOTH",
"231 675 OFFCURVE",
"237 679 OFFCURVE",
"237 687 CURVE SMOOTH",
"237 690 OFFCURVE",
"236 695 OFFCURVE",
"230 695 CURVE SMOOTH",
"82 695 LINE SMOOTH",
"70 695 OFFCURVE",
"65 689 OFFCURVE",
"65 681 CURVE SMOOTH",
"65 674 OFFCURVE",
"69 669 OFFCURVE",
"74 669 CURVE SMOOTH",
"129 669 LINE",
"129 26 LINE",
"83 26 LINE SMOOTH",
"71 26 OFFCURVE",
"65 20 OFFCURVE",
"65 12 CURVE SMOOTH",
"65 5 OFFCURVE",
"69 0 OFFCURVE",
"74 0 CURVE SMOOTH"
);
},
{
closed = 1;
nodes = (
"407 -135 OFFCURVE",
"422 -120 OFFCURVE",
"422 -100 CURVE SMOOTH",
"422 -80 OFFCURVE",
"407 -65 OFFCURVE",
"387 -65 CURVE SMOOTH",
"367 -65 OFFCURVE",
"352 -80 OFFCURVE",
"352 -100 CURVE SMOOTH",
"352 -120 OFFCURVE",
"367 -135 OFFCURVE",
"387 -135 CURVE SMOOTH"
);
}
);
width = 771;
}
);
note = Hdotbelow;
unicode = 1E24;
},
{
glyphname = I;
lastChange = "2015-07-21 10:04:07 +0000";
layers = (
{
layerId = "180D1874-17C2-44EB-BA68-42C2D2C9E124";
name = Light;
paths = (
{
closed = 1;
nodes = (
"235 0 LINE SMOOTH",
"241 0 OFFCURVE",
"242 5 OFFCURVE",
"242 8 CURVE SMOOTH",
"242 16 OFFCURVE",
"236 20 OFFCURVE",
"226 21 CURVE SMOOTH",
"168 27 LINE",
"168 668 LINE",
"226 674 LINE SMOOTH",
"236 675 OFFCURVE",
"242 679 OFFCURVE",
"242 687 CURVE SMOOTH",
"242 690 OFFCURVE",
"241 695 OFFCURVE",
"235 695 CURVE SMOOTH",
"87 695 LINE SMOOTH",
"75 695 OFFCURVE",
"70 689 OFFCURVE",
"70 681 CURVE SMOOTH",
"70 674 OFFCURVE",
"74 669 OFFCURVE",
"79 669 CURVE SMOOTH",
"134 669 LINE",
"134 26 LINE",
"88 26 LINE SMOOTH",
"76 26 OFFCURVE",
"70 20 OFFCURVE",
"70 12 CURVE SMOOTH",
"70 5 OFFCURVE",
"74 0 OFFCURVE",
"79 0 CURVE SMOOTH"
);
}
);
width = 312;
}
);
note = I;
unicode = 0049;
},
{
glyphname = IJ;
lastChange = "2015-07-21 10:04:08 +0000";
layers = (
{
layerId = "180D1874-17C2-44EB-BA68-42C2D2C9E124";
name = Light;
paths = (
{
closed = 1;
nodes = (
"340 -10 OFFCURVE",
"345 -9 OFFCURVE",
"353 -6 CURVE SMOOTH",
"453 32 OFFCURVE",
"480 101 OFFCURVE",
"480 201 CURVE SMOOTH",
"480 668 LINE",
"538 674 LINE SMOOTH",
"548 675 OFFCURVE",
"554 679 OFFCURVE",
"554 687 CURVE SMOOTH",
"554 690 OFFCURVE",
"553 695 OFFCURVE",
"547 695 CURVE SMOOTH",
"399 695 LINE SMOOTH",
"387 695 OFFCURVE",
"382 689 OFFCURVE",
"382 681 CURVE SMOOTH",
"382 674 OFFCURVE",
"386 669 OFFCURVE",
"391 669 CURVE SMOOTH",
"446 669 LINE",
"446 203 LINE SMOOTH",
"446 104 OFFCURVE",
"419 49 OFFCURVE",
"318 17 CURVE",
"318 -2 OFFCURVE",
"326 -10 OFFCURVE",
"335 -10 CURVE SMOOTH"
);
},
{
closed = 1;
nodes = (
"235 0 LINE SMOOTH",
"241 0 OFFCURVE",
"242 5 OFFCURVE",
"242 8 CURVE SMOOTH",
"242 16 OFFCURVE",
"236 20 OFFCURVE",
"226 21 CURVE SMOOTH",
"168 27 LINE",
"168 668 LINE",
"226 674 LINE SMOOTH",
"236 675 OFFCURVE",
"242 679 OFFCURVE",
"242 687 CURVE SMOOTH",
"242 690 OFFCURVE",
"241 695 OFFCURVE",
"235 695 CURVE SMOOTH",
"87 695 LINE SMOOTH",
"75 695 OFFCURVE",
"70 689 OFFCURVE",
"70 681 CURVE SMOOTH",
"70 674 OFFCURVE",
"74 669 OFFCURVE",
"79 669 CURVE SMOOTH",
"134 669 LINE",
"134 26 LINE",
"88 26 LINE SMOOTH",
"76 26 OFFCURVE",
"70 20 OFFCURVE",
"70 12 CURVE SMOOTH",
"70 5 OFFCURVE",
"74 0 OFFCURVE",
"79 0 CURVE SMOOTH"
);
}
);
width = 606;
}
);
note = IJ;
unicode = 0132;
},
{
glyphname = Iacute;
lastChange = "2015-07-21 10:04:08 +0000";
layers = (
{
layerId = "180D1874-17C2-44EB-BA68-42C2D2C9E124";
name = Light;
paths = (
{
closed = 1;
nodes = (
"235 0 LINE SMOOTH",
"241 0 OFFCURVE",
"242 5 OFFCURVE",
"242 8 CURVE SMOOTH",
"242 16 OFFCURVE",
"236 20 OFFCURVE",
"226 21 CURVE SMOOTH",
"168 27 LINE",
"168 668 LINE",
"226 674 LINE SMOOTH",
"236 675 OFFCURVE",
"242 679 OFFCURVE",
"242 687 CURVE SMOOTH",
"242 690 OFFCURVE",
"241 695 OFFCURVE",
"235 695 CURVE SMOOTH",
"87 695 LINE SMOOTH",
"75 695 OFFCURVE",
"70 689 OFFCURVE",
"70 681 CURVE SMOOTH",
"70 674 OFFCURVE",
"74 669 OFFCURVE",
"79 669 CURVE SMOOTH",
"134 669 LINE",
"134 26 LINE",
"88 26 LINE SMOOTH",
"76 26 OFFCURVE",
"70 20 OFFCURVE",
"70 12 CURVE SMOOTH",
"70 5 OFFCURVE",
"74 0 OFFCURVE",
"79 0 CURVE SMOOTH"
);
},
{
closed = 1;
nodes = (
"211 863 LINE",
"181 881 LINE",
"109 763 LINE",
"131 750 LINE"
);
}
);
width = 312;
}
);
note = Iacute;
unicode = 00CD;
},
{
glyphname = Ibreve;
lastChange = "2015-07-21 10:04:08 +0000";
layers = (
{
layerId = "180D1874-17C2-44EB-BA68-42C2D2C9E124";
name = Light;
paths = (
{
closed = 1;
nodes = (
"238 0 LINE SMOOTH",
"244 0 OFFCURVE",
"245 5 OFFCURVE",
"245 8 CURVE SMOOTH",
"245 16 OFFCURVE",
"239 20 OFFCURVE",
"229 21 CURVE SMOOTH",
"171 27 LINE",
"171 668 LINE",
"229 674 LINE SMOOTH",
"239 675 OFFCURVE",
"245 679 OFFCURVE",
"245 687 CURVE SMOOTH",
"245 690 OFFCURVE",
"244 695 OFFCURVE",
"238 695 CURVE SMOOTH",
"90 695 LINE SMOOTH",
"78 695 OFFCURVE",
"73 689 OFFCURVE",
"73 681 CURVE SMOOTH",
"73 674 OFFCURVE",
"77 669 OFFCURVE",
"82 669 CURVE SMOOTH",
"137 669 LINE",
"137 26 LINE",
"91 26 LINE SMOOTH",
"79 26 OFFCURVE",
"73 20 OFFCURVE",
"73 12 CURVE SMOOTH",
"73 5 OFFCURVE",
"77 0 OFFCURVE",
"82 0 CURVE SMOOTH"
);
},
{
closed = 1;
nodes = (
"211 747 OFFCURVE",
"262 776 OFFCURVE",
"283 851 CURVE",
"256 861 LINE",
"244 814 OFFCURVE",
"211 775 OFFCURVE",
"156 775 CURVE SMOOTH",
"101 775 OFFCURVE",
"68 814 OFFCURVE",
"56 861 CURVE",
"29 851 LINE",
"50 776 OFFCURVE",
"101 747 OFFCURVE",
"156 747 CURVE SMOOTH"
);
}
);
width = 312;
}
);
note = Ibreve;
unicode = 012C;
},
{
glyphname = Icaron;
lastChange = "2015-07-21 10:04:08 +0000";
layers = (
{
layerId = "180D1874-17C2-44EB-BA68-42C2D2C9E124";
name = Light;
paths = (
{
closed = 1;
nodes = (
"236 0 LINE SMOOTH",
"242 0 OFFCURVE",
"243 5 OFFCURVE",
"243 8 CURVE SMOOTH",
"243 16 OFFCURVE",
"237 20 OFFCURVE",
"227 21 CURVE SMOOTH",
"169 27 LINE",
"169 668 LINE",
"227 674 LINE SMOOTH",
"237 675 OFFCURVE",
"243 679 OFFCURVE",
"243 687 CURVE SMOOTH",
"243 690 OFFCURVE",
"242 695 OFFCURVE",
"236 695 CURVE SMOOTH",
"88 695 LINE SMOOTH",
"76 695 OFFCURVE",
"71 689 OFFCURVE",
"71 681 CURVE SMOOTH",
"71 674 OFFCURVE",
"75 669 OFFCURVE",
"80 669 CURVE SMOOTH",
"135 669 LINE",
"135 26 LINE",
"89 26 LINE SMOOTH",
"77 26 OFFCURVE",
"71 20 OFFCURVE",
"71 12 CURVE SMOOTH",
"71 5 OFFCURVE",
"75 0 OFFCURVE",
"80 0 CURVE SMOOTH"
);
},
{
closed = 1;
nodes = (
"167 749 LINE",
"262 867 LINE",
"241 881 LINE",
"154 790 LINE",
"67 881 LINE",
"46 867 LINE",
"141 749 LINE"
);
}
);
width = 308;
}
);
note = Icaron;
unicode = 01CF;
},
{
glyphname = Icircumflex;
lastChange = "2015-07-21 10:04:07 +0000";
layers = (
{
layerId = "180D1874-17C2-44EB-BA68-42C2D2C9E124";
name = Light;
paths = (
{
closed = 1;
nodes = (
"233 0 LINE SMOOTH",
"239 0 OFFCURVE",
"240 5 OFFCURVE",
"240 8 CURVE SMOOTH",
"240 16 OFFCURVE",
"234 20 OFFCURVE",
"224 21 CURVE SMOOTH",
"166 27 LINE",
"166 668 LINE",
"224 674 LINE SMOOTH",
"234 675 OFFCURVE",
"240 679 OFFCURVE",
"240 687 CURVE SMOOTH",
"240 690 OFFCURVE",
"239 695 OFFCURVE",
"233 695 CURVE SMOOTH",
"85 695 LINE SMOOTH",
"73 695 OFFCURVE",
"68 689 OFFCURVE",
"68 681 CURVE SMOOTH",
"68 674 OFFCURVE",
"72 669 OFFCURVE",
"77 669 CURVE SMOOTH",
"132 669 LINE",
"132 26 LINE",
"86 26 LINE SMOOTH",
"74 26 OFFCURVE",
"68 20 OFFCURVE",
"68 12 CURVE SMOOTH",
"68 5 OFFCURVE",
"72 0 OFFCURVE",
"77 0 CURVE SMOOTH"
);
},
{
closed = 1;
nodes = (
"154 840 LINE",
"241 749 LINE",
"262 763 LINE",
"167 881 LINE",
"141 881 LINE",
"46 763 LINE",
"67 749 LINE"
);
}
);
width = 308;
}
);
note = Icircumflex;
unicode = 00CE;
},
{
glyphname = Idieresis;
lastChange = "2015-07-21 10:04:08 +0000";
layers = (
{
layerId = "180D1874-17C2-44EB-BA68-42C2D2C9E124";
name = Light;
paths = (
{
closed = 1;
nodes = (
"236 0 LINE SMOOTH",
"242 0 OFFCURVE",
"243 5 OFFCURVE",
"243 8 CURVE SMOOTH",
"243 16 OFFCURVE",
"237 20 OFFCURVE",
"227 21 CURVE SMOOTH",
"169 27 LINE",
"169 668 LINE",
"227 674 LINE SMOOTH",
"237 675 OFFCURVE",
"243 679 OFFCURVE",
"243 687 CURVE SMOOTH",
"243 690 OFFCURVE",
"242 695 OFFCURVE",
"236 695 CURVE SMOOTH",
"88 695 LINE SMOOTH",
"76 695 OFFCURVE",
"71 689 OFFCURVE",
"71 681 CURVE SMOOTH",
"71 674 OFFCURVE",
"75 669 OFFCURVE",
"80 669 CURVE SMOOTH",
"135 669 LINE",
"135 26 LINE",
"89 26 LINE SMOOTH",
"77 26 OFFCURVE",
"71 20 OFFCURVE",
"71 12 CURVE SMOOTH",
"71 5 OFFCURVE",
"75 0 OFFCURVE",
"80 0 CURVE SMOOTH"
);
},
{
closed = 1;
nodes = (
"83 760 OFFCURVE",
"99 774 OFFCURVE",
"99 794 CURVE SMOOTH",
"99 814 OFFCURVE",
"83 828 OFFCURVE",
"65 828 CURVE SMOOTH",
"47 828 OFFCURVE",
"31 814 OFFCURVE",
"31 794 CURVE SMOOTH",
"31 774 OFFCURVE",
"47 760 OFFCURVE",
"65 760 CURVE SMOOTH"
);
},
{
closed = 1;
nodes = (
"261 760 OFFCURVE",
"277 774 OFFCURVE",
"277 794 CURVE SMOOTH",
"277 814 OFFCURVE",
"261 828 OFFCURVE",
"243 828 CURVE SMOOTH",
"225 828 OFFCURVE",
"209 814 OFFCURVE",
"209 794 CURVE SMOOTH",
"209 774 OFFCURVE",
"225 760 OFFCURVE",
"243 760 CURVE SMOOTH"
);
}
);
width = 308;
}
);
note = Idieresis;
unicode = 00CF;
},
{
glyphname = Idotaccent;
lastChange = "2015-07-21 10:04:08 +0000";
layers = (
{
layerId = "180D1874-17C2-44EB-BA68-42C2D2C9E124";
name = Light;
paths = (
{
closed = 1;
nodes = (
"237 0 LINE SMOOTH",
"243 0 OFFCURVE",
"244 5 OFFCURVE",
"244 8 CURVE SMOOTH",
"244 16 OFFCURVE",
"238 20 OFFCURVE",
"228 21 CURVE SMOOTH",
"170 27 LINE",
"170 668 LINE",
"228 674 LINE SMOOTH",
"238 675 OFFCURVE",
"244 679 OFFCURVE",
"244 687 CURVE SMOOTH",
"244 690 OFFCURVE",
"243 695 OFFCURVE",
"237 695 CURVE SMOOTH",
"89 695 LINE SMOOTH",
"77 695 OFFCURVE",
"72 689 OFFCURVE",
"72 681 CURVE SMOOTH",
"72 674 OFFCURVE",
"76 669 OFFCURVE",
"81 669 CURVE SMOOTH",
"136 669 LINE",
"136 26 LINE",
"90 26 LINE SMOOTH",
"78 26 OFFCURVE",
"72 20 OFFCURVE",
"72 12 CURVE SMOOTH",
"72 5 OFFCURVE",
"76 0 OFFCURVE",
"81 0 CURVE SMOOTH"
);
},
{
closed = 1;
nodes = (
"174 765 OFFCURVE",
"189 780 OFFCURVE",
"189 800 CURVE SMOOTH",
"189 820 OFFCURVE",
"174 835 OFFCURVE",
"154 835 CURVE SMOOTH",
"134 835 OFFCURVE",
"119 820 OFFCURVE",
"119 800 CURVE SMOOTH",
"119 780 OFFCURVE",
"134 765 OFFCURVE",
"154 765 CURVE SMOOTH"
);
}
);
width = 316;
}
);
note = Idotaccent;
unicode = 0130;
},
{
glyphname = Idotbelow;
lastChange = "2015-07-21 10:04:08 +0000";
layers = (
{
layerId = "180D1874-17C2-44EB-BA68-42C2D2C9E124";
name = Light;
paths = (
{
closed = 1;
nodes = (
"235 0 LINE SMOOTH",
"241 0 OFFCURVE",
"242 5 OFFCURVE",
"242 8 CURVE SMOOTH",
"242 16 OFFCURVE",
"236 20 OFFCURVE",
"226 21 CURVE SMOOTH",
"168 27 LINE",
"168 668 LINE",
"226 674 LINE SMOOTH",
"236 675 OFFCURVE",
"242 679 OFFCURVE",
"242 687 CURVE SMOOTH",
"242 690 OFFCURVE",
"241 695 OFFCURVE",
"235 695 CURVE SMOOTH",
"87 695 LINE SMOOTH",
"75 695 OFFCURVE",
"70 689 OFFCURVE",
"70 681 CURVE SMOOTH",
"70 674 OFFCURVE",
"74 669 OFFCURVE",
"79 669 CURVE SMOOTH",
"134 669 LINE",
"134 26 LINE",
"88 26 LINE SMOOTH",
"76 26 OFFCURVE",
"70 20 OFFCURVE",
"70 12 CURVE SMOOTH",
"70 5 OFFCURVE",
"74 0 OFFCURVE",
"79 0 CURVE SMOOTH"
);
},
{
closed = 1;
nodes = (
"172 -135 OFFCURVE",
"187 -120 OFFCURVE",
"187 -100 CURVE SMOOTH",
"187 -80 OFFCURVE",
"172 -65 OFFCURVE",
"152 -65 CURVE SMOOTH",
"132 -65 OFFCURVE",
"117 -80 OFFCURVE",
"117 -100 CURVE SMOOTH",
"117 -120 OFFCURVE",
"132 -135 OFFCURVE",
"152 -135 CURVE SMOOTH"
);
}
);
width = 312;
}
);
note = Idotbelow;
unicode = 1ECA;
},
{
glyphname = Igrave;
lastChange = "2015-07-21 10:04:08 +0000";
layers = (
{
layerId = "180D1874-17C2-44EB-BA68-42C2D2C9E124";
name = Light;
paths = (
{
closed = 1;
nodes = (
"235 0 LINE SMOOTH",
"241 0 OFFCURVE",
"242 5 OFFCURVE",
"242 8 CURVE SMOOTH",
"242 16 OFFCURVE",
"236 20 OFFCURVE",
"226 21 CURVE SMOOTH",
"168 27 LINE",
"168 668 LINE",
"226 674 LINE SMOOTH",
"236 675 OFFCURVE",
"242 679 OFFCURVE",
"242 687 CURVE SMOOTH",
"242 690 OFFCURVE",
"241 695 OFFCURVE",
"235 695 CURVE SMOOTH",
"87 695 LINE SMOOTH",
"75 695 OFFCURVE",
"70 689 OFFCURVE",
"70 681 CURVE SMOOTH",
"70 674 OFFCURVE",
"74 669 OFFCURVE",
"79 669 CURVE SMOOTH",
"134 669 LINE",
"134 26 LINE",
"88 26 LINE SMOOTH",
"76 26 OFFCURVE",
"70 20 OFFCURVE",
"70 12 CURVE SMOOTH",
"70 5 OFFCURVE",
"74 0 OFFCURVE",
"79 0 CURVE SMOOTH"
);
},
{
closed = 1;
nodes = (
"202 763 LINE",
"130 881 LINE",
"100 863 LINE",
"180 750 LINE"
);
}
);
width = 312;
}
);
note = Igrave;
unicode = 00CC;
},
{
glyphname = Ihookabove;
lastChange = "2015-07-21 10:04:08 +0000";
layers = (
{
layerId = "180D1874-17C2-44EB-BA68-42C2D2C9E124";
name = Light;
paths = (
{
closed = 1;
nodes = (
"237 0 LINE SMOOTH",
"243 0 OFFCURVE",
"244 5 OFFCURVE",
"244 8 CURVE SMOOTH",
"244 16 OFFCURVE",
"238 20 OFFCURVE",
"228 21 CURVE SMOOTH",
"170 27 LINE",
"170 668 LINE",
"228 674 LINE SMOOTH",
"238 675 OFFCURVE",
"244 679 OFFCURVE",
"244 687 CURVE SMOOTH",
"244 690 OFFCURVE",
"243 695 OFFCURVE",
"237 695 CURVE SMOOTH",
"89 695 LINE SMOOTH",
"77 695 OFFCURVE",
"72 689 OFFCURVE",
"72 681 CURVE SMOOTH",
"72 674 OFFCURVE",
"76 669 OFFCURVE",
"81 669 CURVE SMOOTH",
"136 669 LINE",
"136 26 LINE",
"90 26 LINE SMOOTH",
"78 26 OFFCURVE",
"72 20 OFFCURVE",
"72 12 CURVE SMOOTH",
"72 5 OFFCURVE",
"76 0 OFFCURVE",
"81 0 CURVE SMOOTH"
);
},
{
closed = 1;
nodes = (
"173 750 LINE",
"178 793 LINE",
"203 801 OFFCURVE",
"219 820 OFFCURVE",
"219 844 CURVE SMOOTH",
"219 881 OFFCURVE",
"189 898 OFFCURVE",
"158 898 CURVE SMOOTH",
"141 898 OFFCURVE",
"122 893 OFFCURVE",
"109 888 CURVE",
"114 866 LINE",
"124 869 OFFCURVE",
"140 873 OFFCURVE",
"153 873 CURVE SMOOTH",
"172 873 OFFCURVE",
"188 864 OFFCURVE",
"188 844 CURVE SMOOTH",
"188 824 OFFCURVE",
"174 810 OFFCURVE",
"145 801 CURVE",
"149 750 LINE"
);
}
);
width = 339;
}
);
note = Ihookabove;
unicode = 1EC8;
},
{
glyphname = Imacron;
lastChange = "2015-07-21 10:04:08 +0000";
layers = (
{
layerId = "180D1874-17C2-44EB-BA68-42C2D2C9E124";
name = Light;
paths = (
{
closed = 1;
nodes = (
"237 0 LINE SMOOTH",
"243 0 OFFCURVE",
"244 5 OFFCURVE",
"244 8 CURVE SMOOTH",
"244 16 OFFCURVE",
"238 20 OFFCURVE",
"228 21 CURVE SMOOTH",
"170 27 LINE",
"170 668 LINE",
"228 674 LINE SMOOTH",
"238 675 OFFCURVE",
"244 679 OFFCURVE",
"244 687 CURVE SMOOTH",
"244 690 OFFCURVE",
"243 695 OFFCURVE",
"237 695 CURVE SMOOTH",
"89 695 LINE SMOOTH",
"77 695 OFFCURVE",
"72 689 OFFCURVE",
"72 681 CURVE SMOOTH",
"72 674 OFFCURVE",
"76 669 OFFCURVE",
"81 669 CURVE SMOOTH",
"136 669 LINE",
"136 26 LINE",
"90 26 LINE SMOOTH",
"78 26 OFFCURVE",
"72 20 OFFCURVE",
"72 12 CURVE SMOOTH",
"72 5 OFFCURVE",
"76 0 OFFCURVE",
"81 0 CURVE SMOOTH"
);
},
{
closed = 1;
nodes = (
"292 772 LINE",
"292 800 LINE",
"22 800 LINE",
"22 772 LINE"
);
}
);
width = 314;
}
);
note = Imacron;
unicode = 012A;
},
{
glyphname = Iogonek;
lastChange = "2015-07-21 10:04:07 +0000";
layers = (
{
layerId = "180D1874-17C2-44EB-BA68-42C2D2C9E124";
name = Light;
paths = (
{
closed = 1;
nodes = (
"194 -201 OFFCURVE",
"211 -198 OFFCURVE",
"226 -192 CURVE SMOOTH",
"221 -174 LINE SMOOTH",
"210 -177 OFFCURVE",
"198 -179 OFFCURVE",
"186 -179 CURVE SMOOTH",
"148 -179 OFFCURVE",
"112 -162 OFFCURVE",
"112 -112 CURVE SMOOTH",
"112 -59 OFFCURVE",
"153 -19 OFFCURVE",
"193 0 CURVE",
"237 0 LINE SMOOTH",
"243 0 OFFCURVE",
"244 5 OFFCURVE",
"244 8 CURVE SMOOTH",
"244 16 OFFCURVE",
"238 20 OFFCURVE",
"228 21 CURVE SMOOTH",
"170 27 LINE",
"170 668 LINE",
"228 674 LINE SMOOTH",
"238 675 OFFCURVE",
"244 679 OFFCURVE",
"244 687 CURVE SMOOTH",
"244 690 OFFCURVE",
"243 695 OFFCURVE",
"237 695 CURVE SMOOTH",
"89 695 LINE SMOOTH",
"77 695 OFFCURVE",
"72 689 OFFCURVE",
"72 681 CURVE SMOOTH",
"72 674 OFFCURVE",
"76 669 OFFCURVE",
"81 669 CURVE SMOOTH",
"136 669 LINE",
"136 26 LINE",
"90 26 LINE SMOOTH",
"78 26 OFFCURVE",
"72 20 OFFCURVE",
"72 12 CURVE SMOOTH",
"72 5 OFFCURVE",
"76 0 OFFCURVE",
"81 0 CURVE SMOOTH",
"159 0 LINE",
"119 -19 OFFCURVE",
"83 -60 OFFCURVE",
"83 -112 CURVE SMOOTH",
"83 -172 OFFCURVE",
"127 -201 OFFCURVE",
"178 -201 CURVE SMOOTH"
);
}
);
width = 315;
}
);
note = Iogonek;
unicode = 012E;
},
{
glyphname = Itilde;
lastChange = "2015-07-21 10:04:08 +0000";
layers = (
{
layerId = "180D1874-17C2-44EB-BA68-42C2D2C9E124";
name = Light;
paths = (
{
closed = 1;
nodes = (
"247 0 LINE SMOOTH",
"253 0 OFFCURVE",
"254 5 OFFCURVE",
"254 8 CURVE SMOOTH",
"254 16 OFFCURVE",
"248 20 OFFCURVE",
"238 21 CURVE SMOOTH",
"180 27 LINE",
"180 668 LINE",
"238 674 LINE SMOOTH",
"248 675 OFFCURVE",
"254 679 OFFCURVE",
"254 687 CURVE SMOOTH",
"254 690 OFFCURVE",
"253 695 OFFCURVE",
"247 695 CURVE SMOOTH",
"99 695 LINE SMOOTH",
"87 695 OFFCURVE",
"82 689 OFFCURVE",
"82 681 CURVE SMOOTH",
"82 674 OFFCURVE",
"86 669 OFFCURVE",
"91 669 CURVE SMOOTH",
"146 669 LINE",
"146 26 LINE",
"100 26 LINE SMOOTH",
"88 26 OFFCURVE",
"82 20 OFFCURVE",
"82 12 CURVE SMOOTH",
"82 5 OFFCURVE",
"86 0 OFFCURVE",
"91 0 CURVE SMOOTH"
);
},
{
closed = 1;
nodes = (
"245 760 OFFCURVE",
"276 779 OFFCURVE",
"299 800 CURVE",
"284 818 LINE",
"262 802 OFFCURVE",
"240 790 OFFCURVE",
"215 790 CURVE SMOOTH",
"187 790 OFFCURVE",
"147 821 OFFCURVE",
"113 821 CURVE SMOOTH",
"84 821 OFFCURVE",
"51 802 OFFCURVE",
"28 781 CURVE",
"43 763 LINE",
"65 779 OFFCURVE",
"87 791 OFFCURVE",
"112 791 CURVE SMOOTH",
"149 791 OFFCURVE",
"177 760 OFFCURVE",
"216 760 CURVE SMOOTH"
);
}
);
width = 327;
}
);
note = Itilde;
unicode = 0128;
},
{
glyphname = J;
lastChange = "2015-07-21 17:51:58 +0000";
layers = (
{
layerId = "180D1874-17C2-44EB-BA68-42C2D2C9E124";
name = Light;
paths = (
{
closed = 1;
nodes = (
"67 -10 OFFCURVE",
"72 -9 OFFCURVE",
"80 -6 CURVE SMOOTH",
"180 32 OFFCURVE",
"207 101 OFFCURVE",
"207 201 CURVE SMOOTH",
"207 668 LINE",
"265 674 LINE SMOOTH",
"275 675 OFFCURVE",
"281 679 OFFCURVE",
"281 687 CURVE SMOOTH",
"281 690 OFFCURVE",
"280 695 OFFCURVE",
"274 695 CURVE SMOOTH",
"126 695 LINE SMOOTH",
"114 695 OFFCURVE",
"109 689 OFFCURVE",
"109 681 CURVE SMOOTH",
"109 674 OFFCURVE",
"113 669 OFFCURVE",
"118 669 CURVE SMOOTH",
"173 669 LINE",
"173 203 LINE SMOOTH",
"173 104 OFFCURVE",
"146 49 OFFCURVE",
"45 17 CURVE",
"45 -2 OFFCURVE",
"53 -10 OFFCURVE",
"62 -10 CURVE SMOOTH"
);
}
);
width = 333;
}
);
note = J;
unicode = 004A;
},
{
glyphname = Jcircumflex;
lastChange = "2015-07-21 10:04:08 +0000";
layers = (
{
layerId = "180D1874-17C2-44EB-BA68-42C2D2C9E124";
name = Light;
paths = (
{
closed = 1;
nodes = (
"67 -10 OFFCURVE",
"72 -9 OFFCURVE",
"80 -6 CURVE SMOOTH",
"180 32 OFFCURVE",
"207 101 OFFCURVE",
"207 201 CURVE SMOOTH",
"207 668 LINE",
"265 674 LINE SMOOTH",
"275 675 OFFCURVE",
"281 679 OFFCURVE",
"281 687 CURVE SMOOTH",
"281 690 OFFCURVE",
"280 695 OFFCURVE",
"274 695 CURVE SMOOTH",
"126 695 LINE SMOOTH",
"114 695 OFFCURVE",
"109 689 OFFCURVE",
"109 681 CURVE SMOOTH",
"109 674 OFFCURVE",
"113 669 OFFCURVE",
"118 669 CURVE SMOOTH",
"173 669 LINE",
"173 203 LINE SMOOTH",
"173 104 OFFCURVE",
"146 49 OFFCURVE",
"45 17 CURVE",
"45 -2 OFFCURVE",
"53 -10 OFFCURVE",
"62 -10 CURVE SMOOTH"
);
},
{
closed = 1;
nodes = (
"190 840 LINE",
"277 749 LINE",
"298 763 LINE",
"203 881 LINE",
"177 881 LINE",
"82 763 LINE",
"103 749 LINE"
);
}
);
width = 348;
}
);
note = Jcircumflex;
unicode = 0134;
},
{
glyphname = K;
lastChange = "2015-07-21 14:42:08 +0000";
layers = (
{
layerId = "180D1874-17C2-44EB-BA68-42C2D2C9E124";
name = Light;
paths = (
{
closed = 1;
nodes = (
"608 0 LINE SMOOTH",
"614 0 OFFCURVE",
"615 5 OFFCURVE",
"615 8 CURVE SMOOTH",
"615 16 OFFCURVE",
"609 20 OFFCURVE",
"599 21 CURVE SMOOTH",
"548 27 LINE",
"207 370 LINE",
"538 670 LINE",
"581 674 LINE SMOOTH",
"591 675 OFFCURVE",
"597 679 OFFCURVE",
"597 687 CURVE SMOOTH",
"597 690 OFFCURVE",
"596 695 OFFCURVE",
"590 695 CURVE SMOOTH",
"435 695 LINE SMOOTH",
"423 695 OFFCURVE",
"418 689 OFFCURVE",
"418 681 CURVE SMOOTH",
"418 674 OFFCURVE",
"422 669 OFFCURVE",
"427 669 CURVE SMOOTH",
"495 669 LINE",
"163 368 LINE",
"527 0 LINE"
);
},
{
closed = 1;
nodes = (
"230 0 LINE SMOOTH",
"236 0 OFFCURVE",
"237 5 OFFCURVE",
"237 8 CURVE SMOOTH",
"237 16 OFFCURVE",
"231 20 OFFCURVE",
"221 21 CURVE SMOOTH",
"163 27 LINE",
"163 668 LINE",
"221 674 LINE SMOOTH",
"231 675 OFFCURVE",
"237 679 OFFCURVE",
"237 687 CURVE SMOOTH",
"237 690 OFFCURVE",
"236 695 OFFCURVE",
"230 695 CURVE SMOOTH",
"82 695 LINE SMOOTH",
"70 695 OFFCURVE",
"65 689 OFFCURVE",
"65 681 CURVE SMOOTH",
"65 674 OFFCURVE",
"69 669 OFFCURVE",
"74 669 CURVE SMOOTH",
"129 669 LINE",
"129 26 LINE",
"83 26 LINE SMOOTH",
"71 26 OFFCURVE",
"65 20 OFFCURVE",
"65 12 CURVE SMOOTH",
"65 5 OFFCURVE",
"69 0 OFFCURVE",
"74 0 CURVE SMOOTH"
);
}
);
width = 633;
}
);
leftKerningGroup = K;
note = K;
rightKerningGroup = K;
unicode = 004B;
},
{
glyphname = Kcommaaccent;
lastChange = "2015-07-21 14:42:08 +0000";
layers = (
{
layerId = "180D1874-17C2-44EB-BA68-42C2D2C9E124";
name = Light;
paths = (
{
closed = 1;
nodes = (
"608 0 LINE SMOOTH",
"614 0 OFFCURVE",
"615 5 OFFCURVE",
"615 8 CURVE SMOOTH",
"615 16 OFFCURVE",
"609 20 OFFCURVE",
"599 21 CURVE SMOOTH",
"548 27 LINE",
"207 370 LINE",
"538 670 LINE",
"581 674 LINE SMOOTH",
"591 675 OFFCURVE",
"597 679 OFFCURVE",
"597 687 CURVE SMOOTH",
"597 690 OFFCURVE",
"596 695 OFFCURVE",
"590 695 CURVE SMOOTH",
"435 695 LINE SMOOTH",
"423 695 OFFCURVE",
"418 689 OFFCURVE",
"418 681 CURVE SMOOTH",
"418 674 OFFCURVE",
"422 669 OFFCURVE",
"427 669 CURVE SMOOTH",
"495 669 LINE",
"163 368 LINE",
"527 0 LINE"
);
},
{
closed = 1;
nodes = (
"343 -154 OFFCURVE",
"363 -108 OFFCURVE",
"377 -51 CURVE",
"325 -38 LINE SMOOTH",
"312 -35 OFFCURVE",
"302 -40 OFFCURVE",
"302 -53 CURVE SMOOTH",
"302 -57 OFFCURVE",
"305 -60 OFFCURVE",
"308 -61 CURVE SMOOTH",
"339 -72 LINE",
"335 -103 OFFCURVE",
"317 -147 OFFCURVE",
"294 -183 CURVE",
"312 -195 LINE"
);
},
{
closed = 1;
nodes = (
"230 0 LINE SMOOTH",
"236 0 OFFCURVE",
"237 5 OFFCURVE",
"237 8 CURVE SMOOTH",
"237 16 OFFCURVE",
"231 20 OFFCURVE",
"221 21 CURVE SMOOTH",
"163 27 LINE",
"163 668 LINE",
"221 674 LINE SMOOTH",
"231 675 OFFCURVE",
"237 679 OFFCURVE",
"237 687 CURVE SMOOTH",
"237 690 OFFCURVE",
"236 695 OFFCURVE",
"230 695 CURVE SMOOTH",
"82 695 LINE SMOOTH",
"70 695 OFFCURVE",
"65 689 OFFCURVE",
"65 681 CURVE SMOOTH",
"65 674 OFFCURVE",
"69 669 OFFCURVE",
"74 669 CURVE SMOOTH",
"129 669 LINE",
"129 26 LINE",
"83 26 LINE SMOOTH",
"71 26 OFFCURVE",
"65 20 OFFCURVE",
"65 12 CURVE SMOOTH",
"65 5 OFFCURVE",
"69 0 OFFCURVE",
"74 0 CURVE SMOOTH"
);
}
);
width = 633;
}
);
leftKerningGroup = K;
note = Kcommaaccent;
rightKerningGroup = K;
unicode = 0136;
},
{
glyphname = L;
lastChange = "2015-07-21 14:42:20 +0000";
layers = (
{
layerId = "180D1874-17C2-44EB-BA68-42C2D2C9E124";
name = Light;
paths = (
{
closed = 1;
nodes = (
"542 0 LINE",
"542 103 LINE SMOOTH",
"542 108 OFFCURVE",
"539 112 OFFCURVE",
"533 112 CURVE SMOOTH",
"524 112 OFFCURVE",
"520 106 OFFCURVE",
"518 90 CURVE SMOOTH",
"511 28 LINE",
"164 28 LINE",
"164 668 LINE",
"222 674 LINE SMOOTH",
"232 675 OFFCURVE",
"238 679 OFFCURVE",
"238 687 CURVE SMOOTH",
"238 690 OFFCURVE",
"237 695 OFFCURVE",
"231 695 CURVE SMOOTH",
"83 695 LINE SMOOTH",
"71 695 OFFCURVE",
"66 689 OFFCURVE",
"66 681 CURVE SMOOTH",
"66 674 OFFCURVE",
"70 669 OFFCURVE",
"75 669 CURVE SMOOTH",
"130 669 LINE",
"130 28 LINE",
"84 22 LINE SMOOTH",
"74 21 OFFCURVE",
"65 18 OFFCURVE",
"65 9 CURVE SMOOTH",
"65 4 OFFCURVE",
"68 0 OFFCURVE",
"73 0 CURVE SMOOTH"
);
}
);
width = 568;
}
);
leftKerningGroup = L;
note = L;
rightKerningGroup = L;
unicode = 004C;
},
{
glyphname = Lacute;
lastChange = "2015-07-21 14:42:20 +0000";
layers = (
{
layerId = "180D1874-17C2-44EB-BA68-42C2D2C9E124";
name = Light;
paths = (
{
closed = 1;
nodes = (
"542 0 LINE",
"542 103 LINE SMOOTH",
"542 108 OFFCURVE",
"539 112 OFFCURVE",
"533 112 CURVE SMOOTH",
"524 112 OFFCURVE",
"520 106 OFFCURVE",
"518 90 CURVE SMOOTH",
"511 28 LINE",
"164 28 LINE",
"164 668 LINE",
"222 674 LINE SMOOTH",
"232 675 OFFCURVE",
"238 679 OFFCURVE",
"238 687 CURVE SMOOTH",
"238 690 OFFCURVE",
"237 695 OFFCURVE",
"231 695 CURVE SMOOTH",
"83 695 LINE SMOOTH",
"71 695 OFFCURVE",
"66 689 OFFCURVE",
"66 681 CURVE SMOOTH",
"66 674 OFFCURVE",
"70 669 OFFCURVE",
"75 669 CURVE SMOOTH",
"130 669 LINE",
"130 28 LINE",
"84 22 LINE SMOOTH",
"74 21 OFFCURVE",
"65 18 OFFCURVE",
"65 9 CURVE SMOOTH",
"65 4 OFFCURVE",
"68 0 OFFCURVE",
"73 0 CURVE SMOOTH"
);
},
{
closed = 1;
nodes = (
"205 862 LINE",
"175 880 LINE",
"103 762 LINE",
"125 749 LINE"
);
}
);
width = 568;
}
);
leftKerningGroup = L;
note = Lacute;
rightKerningGroup = L;
unicode = 0139;
},
{
glyphname = Lcaron;
lastChange = "2015-07-21 14:42:20 +0000";
layers = (
{
layerId = "180D1874-17C2-44EB-BA68-42C2D2C9E124";
name = Light;
paths = (
{
closed = 1;
nodes = (
"542 0 LINE",
"542 103 LINE SMOOTH",
"542 108 OFFCURVE",
"539 112 OFFCURVE",
"533 112 CURVE SMOOTH",
"524 112 OFFCURVE",
"520 106 OFFCURVE",
"518 90 CURVE SMOOTH",
"511 28 LINE",
"164 28 LINE",
"164 668 LINE",
"222 674 LINE SMOOTH",
"232 675 OFFCURVE",
"238 679 OFFCURVE",
"238 687 CURVE SMOOTH",
"238 690 OFFCURVE",
"237 695 OFFCURVE",
"231 695 CURVE SMOOTH",
"83 695 LINE SMOOTH",
"71 695 OFFCURVE",
"66 689 OFFCURVE",
"66 681 CURVE SMOOTH",
"66 674 OFFCURVE",
"70 669 OFFCURVE",
"75 669 CURVE SMOOTH",
"130 669 LINE",
"130 28 LINE",
"84 22 LINE SMOOTH",
"74 21 OFFCURVE",
"65 18 OFFCURVE",
"65 9 CURVE SMOOTH",
"65 4 OFFCURVE",
"68 0 OFFCURVE",
"73 0 CURVE SMOOTH"
);
},
{
closed = 1;
nodes = (
"379 586 OFFCURVE",
"399 632 OFFCURVE",
"413 689 CURVE",
"361 702 LINE SMOOTH",
"348 705 OFFCURVE",
"338 700 OFFCURVE",
"338 687 CURVE SMOOTH",
"338 683 OFFCURVE",
"341 680 OFFCURVE",
"344 679 CURVE SMOOTH",
"375 668 LINE",
"371 637 OFFCURVE",
"353 593 OFFCURVE",
"330 557 CURVE",
"348 545 LINE"
);
}
);
width = 568;
}
);
leftKerningGroup = L;
note = Lcaron;
rightKerningGroup = L;
unicode = 013D;
},
{
glyphname = Lcommaaccent;
lastChange = "2015-07-21 14:42:20 +0000";
layers = (
{
layerId = "180D1874-17C2-44EB-BA68-42C2D2C9E124";
name = Light;
paths = (
{
closed = 1;
nodes = (
"542 0 LINE",
"542 103 LINE SMOOTH",
"542 108 OFFCURVE",
"539 112 OFFCURVE",
"533 112 CURVE SMOOTH",
"524 112 OFFCURVE",
"520 106 OFFCURVE",
"518 90 CURVE SMOOTH",
"511 28 LINE",
"164 28 LINE",
"164 668 LINE",
"222 674 LINE SMOOTH",
"232 675 OFFCURVE",
"238 679 OFFCURVE",
"238 687 CURVE SMOOTH",
"238 690 OFFCURVE",
"237 695 OFFCURVE",
"231 695 CURVE SMOOTH",
"83 695 LINE SMOOTH",
"71 695 OFFCURVE",
"66 689 OFFCURVE",
"66 681 CURVE SMOOTH",
"66 674 OFFCURVE",
"70 669 OFFCURVE",
"75 669 CURVE SMOOTH",
"130 669 LINE",
"130 28 LINE",
"84 22 LINE SMOOTH",
"74 21 OFFCURVE",
"65 18 OFFCURVE",
"65 9 CURVE SMOOTH",
"65 4 OFFCURVE",
"68 0 OFFCURVE",
"73 0 CURVE SMOOTH"
);
},
{
closed = 1;
nodes = (
"331 -154 OFFCURVE",
"351 -108 OFFCURVE",
"365 -51 CURVE",
"313 -38 LINE SMOOTH",
"300 -35 OFFCURVE",
"290 -40 OFFCURVE",
"290 -53 CURVE SMOOTH",
"290 -57 OFFCURVE",
"293 -60 OFFCURVE",
"296 -61 CURVE SMOOTH",
"327 -72 LINE",
"323 -103 OFFCURVE",
"305 -147 OFFCURVE",
"282 -183 CURVE",
"300 -195 LINE"
);
}
);
width = 568;
}
);
leftKerningGroup = L;
note = Lcommaaccent;
rightKerningGroup = L;
unicode = 013B;
},
{
glyphname = Ldot;
lastChange = "2015-07-21 14:42:20 +0000";
layers = (
{
layerId = "180D1874-17C2-44EB-BA68-42C2D2C9E124";
name = Light;
paths = (
{
closed = 1;
nodes = (
"542 0 LINE",
"542 103 LINE SMOOTH",
"542 108 OFFCURVE",
"539 112 OFFCURVE",
"533 112 CURVE SMOOTH",
"524 112 OFFCURVE",
"520 106 OFFCURVE",
"518 90 CURVE SMOOTH",
"511 28 LINE",
"164 28 LINE",
"164 668 LINE",
"222 674 LINE SMOOTH",
"232 675 OFFCURVE",
"238 679 OFFCURVE",
"238 687 CURVE SMOOTH",
"238 690 OFFCURVE",
"237 695 OFFCURVE",
"231 695 CURVE SMOOTH",
"83 695 LINE SMOOTH",
"71 695 OFFCURVE",
"66 689 OFFCURVE",
"66 681 CURVE SMOOTH",
"66 674 OFFCURVE",
"70 669 OFFCURVE",
"75 669 CURVE SMOOTH",
"130 669 LINE",
"130 28 LINE",
"84 22 LINE SMOOTH",
"74 21 OFFCURVE",
"65 18 OFFCURVE",
"65 9 CURVE SMOOTH",
"65 4 OFFCURVE",
"68 0 OFFCURVE",
"73 0 CURVE SMOOTH"
);
},
{
closed = 1;
nodes = (
"441 348 OFFCURVE",
"456 363 OFFCURVE",
"456 383 CURVE SMOOTH",
"456 403 OFFCURVE",
"441 418 OFFCURVE",
"421 418 CURVE SMOOTH",
"401 418 OFFCURVE",
"386 403 OFFCURVE",
"386 383 CURVE SMOOTH",
"386 363 OFFCURVE",
"401 348 OFFCURVE",
"421 348 CURVE SMOOTH"
);
}
);
width = 568;
}
);
leftKerningGroup = L;
note = Ldot;
rightKerningGroup = L;
unicode = 013F;
},
{
glyphname = Ldotbelow;
lastChange = "2015-07-21 14:42:20 +0000";
layers = (
{
layerId = "180D1874-17C2-44EB-BA68-42C2D2C9E124";
name = Light;
paths = (
{
closed = 1;
nodes = (
"542 0 LINE",
"542 103 LINE SMOOTH",
"542 108 OFFCURVE",
"539 112 OFFCURVE",
"533 112 CURVE SMOOTH",
"524 112 OFFCURVE",
"520 106 OFFCURVE",
"518 90 CURVE SMOOTH",
"511 28 LINE",
"164 28 LINE",
"164 668 LINE",
"222 674 LINE SMOOTH",
"232 675 OFFCURVE",
"238 679 OFFCURVE",
"238 687 CURVE SMOOTH",
"238 690 OFFCURVE",
"237 695 OFFCURVE",
"231 695 CURVE SMOOTH",
"83 695 LINE SMOOTH",
"71 695 OFFCURVE",
"66 689 OFFCURVE",
"66 681 CURVE SMOOTH",
"66 674 OFFCURVE",
"70 669 OFFCURVE",
"75 669 CURVE SMOOTH",
"130 669 LINE",
"130 28 LINE",
"84 22 LINE SMOOTH",
"74 21 OFFCURVE",
"65 18 OFFCURVE",
"65 9 CURVE SMOOTH",
"65 4 OFFCURVE",
"68 0 OFFCURVE",
"73 0 CURVE SMOOTH"
);
},
{
closed = 1;
nodes = (
"345 -135 OFFCURVE",
"360 -120 OFFCURVE",
"360 -100 CURVE SMOOTH",
"360 -80 OFFCURVE",
"345 -65 OFFCURVE",
"325 -65 CURVE SMOOTH",
"305 -65 OFFCURVE",
"290 -80 OFFCURVE",
"290 -100 CURVE SMOOTH",
"290 -120 OFFCURVE",
"305 -135 OFFCURVE",
"325 -135 CURVE SMOOTH"
);
}
);
width = 568;
}
);
leftKerningGroup = L;
note = Ldotbelow;
rightKerningGroup = L;
unicode = 1E36;
},
{
glyphname = Ldotbelowmacron;
lastChange = "2015-07-21 14:42:20 +0000";
layers = (
{
layerId = "180D1874-17C2-44EB-BA68-42C2D2C9E124";
name = Light;
paths = (
{
closed = 1;
nodes = (
"564 0 LINE",
"564 103 LINE SMOOTH",
"564 108 OFFCURVE",
"561 112 OFFCURVE",
"555 112 CURVE SMOOTH",
"546 112 OFFCURVE",
"542 106 OFFCURVE",
"540 90 CURVE SMOOTH",
"533 28 LINE",
"186 28 LINE",
"186 668 LINE",
"244 674 LINE SMOOTH",
"254 675 OFFCURVE",
"260 679 OFFCURVE",
"260 687 CURVE SMOOTH",
"260 690 OFFCURVE",
"259 695 OFFCURVE",
"253 695 CURVE SMOOTH",
"105 695 LINE SMOOTH",
"93 695 OFFCURVE",
"88 689 OFFCURVE",
"88 681 CURVE SMOOTH",
"88 674 OFFCURVE",
"92 669 OFFCURVE",
"97 669 CURVE SMOOTH",
"152 669 LINE",
"152 28 LINE",
"106 22 LINE SMOOTH",
"96 21 OFFCURVE",
"87 18 OFFCURVE",
"87 9 CURVE SMOOTH",
"87 4 OFFCURVE",
"90 0 OFFCURVE",
"95 0 CURVE SMOOTH"
);
},
{
closed = 1;
nodes = (
"367 -135 OFFCURVE",
"382 -120 OFFCURVE",
"382 -100 CURVE SMOOTH",
"382 -80 OFFCURVE",
"367 -65 OFFCURVE",
"347 -65 CURVE SMOOTH",
"327 -65 OFFCURVE",
"312 -80 OFFCURVE",
"312 -100 CURVE SMOOTH",
"312 -120 OFFCURVE",
"327 -135 OFFCURVE",
"347 -135 CURVE SMOOTH"
);
},
{
closed = 1;
nodes = (
"308 772 LINE",
"308 800 LINE",
"38 800 LINE",
"38 772 LINE"
);
}
);
width = 590;
}
);
leftKerningGroup = L;
note = Ldotbelowmacron;
rightKerningGroup = L;
unicode = 1E38;
},
{
glyphname = Llinebelow;
lastChange = "2015-07-21 14:42:20 +0000";
layers = (
{
layerId = "180D1874-17C2-44EB-BA68-42C2D2C9E124";
name = Light;
paths = (
{
closed = 1;
nodes = (
"542 0 LINE",
"542 103 LINE SMOOTH",
"542 108 OFFCURVE",
"539 112 OFFCURVE",
"533 112 CURVE SMOOTH",
"524 112 OFFCURVE",
"520 106 OFFCURVE",
"518 90 CURVE SMOOTH",
"511 28 LINE",
"164 28 LINE",
"164 668 LINE",
"222 674 LINE SMOOTH",
"232 675 OFFCURVE",
"238 679 OFFCURVE",
"238 687 CURVE SMOOTH",
"238 690 OFFCURVE",
"237 695 OFFCURVE",
"231 695 CURVE SMOOTH",
"83 695 LINE SMOOTH",
"71 695 OFFCURVE",
"66 689 OFFCURVE",
"66 681 CURVE SMOOTH",
"66 674 OFFCURVE",
"70 669 OFFCURVE",
"75 669 CURVE SMOOTH",
"130 669 LINE",
"130 28 LINE",
"84 22 LINE SMOOTH",
"74 21 OFFCURVE",
"65 18 OFFCURVE",
"65 9 CURVE SMOOTH",
"65 4 OFFCURVE",
"68 0 OFFCURVE",
"73 0 CURVE SMOOTH"
);
},
{
closed = 1;
nodes = (
"541 -114 LINE",
"541 -88 LINE",
"87 -88 LINE",
"87 -114 LINE"
);
}
);
width = 568;
}
);
leftKerningGroup = L;
note = Llinebelow;
rightKerningGroup = L;
unicode = 1E3A;
},
{
glyphname = Lslash;
lastChange = "2015-07-21 14:42:20 +0000";
layers = (
{
layerId = "180D1874-17C2-44EB-BA68-42C2D2C9E124";
name = Light;
paths = (
{
closed = 1;
nodes = (
"553 0 LINE",
"553 103 LINE SMOOTH",
"553 108 OFFCURVE",
"550 112 OFFCURVE",
"544 112 CURVE SMOOTH",
"535 112 OFFCURVE",
"531 106 OFFCURVE",
"529 90 CURVE SMOOTH",
"522 28 LINE",
"175 28 LINE",
"175 342 LINE",
"370 462 LINE",
"355 486 LINE",
"175 375 LINE",
"175 668 LINE",
"233 674 LINE SMOOTH",
"243 675 OFFCURVE",
"249 679 OFFCURVE",
"249 687 CURVE SMOOTH",
"249 690 OFFCURVE",
"248 695 OFFCURVE",
"242 695 CURVE SMOOTH",
"94 695 LINE SMOOTH",
"82 695 OFFCURVE",
"77 689 OFFCURVE",
"77 681 CURVE SMOOTH",
"77 674 OFFCURVE",
"81 669 OFFCURVE",
"86 669 CURVE SMOOTH",
"141 669 LINE",
"141 354 LINE",
"66 308 LINE",
"81 284 LINE",
"141 321 LINE",
"141 28 LINE",
"95 22 LINE SMOOTH",
"85 21 OFFCURVE",
"76 18 OFFCURVE",
"76 9 CURVE SMOOTH",
"76 4 OFFCURVE",
"79 0 OFFCURVE",
"84 0 CURVE SMOOTH"
);
}
);
width = 579;
}
);
leftKerningGroup = L;
note = Lslash;
rightKerningGroup = L;
unicode = 0141;
},
{
glyphname = M;
lastChange = "2015-07-21 18:00:28 +0000";
layers = (
{
layerId = "180D1874-17C2-44EB-BA68-42C2D2C9E124";
name = Light;
paths = (
{
closed = 1;
nodes = (
"196 0 LINE SMOOTH",
"202 0 OFFCURVE",
"203 5 OFFCURVE",
"203 8 CURVE SMOOTH",
"203 16 OFFCURVE",
"197 20 OFFCURVE",
"187 21 CURVE SMOOTH",
"128 27 LINE",
"248 616 LINE SMOOTH",
"253 638 OFFCURVE",
"256 666 OFFCURVE",
"256 666 CURVE",
"262 666 LINE",
"262 666 OFFCURVE",
"270 638 OFFCURVE",
"277 616 CURVE SMOOTH",
"470 0 LINE",
"517 0 LINE",
"701 616 LINE SMOOTH",
"708 638 OFFCURVE",
"716 666 OFFCURVE",
"716 666 CURVE",
"722 666 LINE",
"722 666 OFFCURVE",
"725 638 OFFCURVE",
"730 616 CURVE SMOOTH",
"856 26 LINE",
"806 26 LINE SMOOTH",
"794 26 OFFCURVE",
"788 20 OFFCURVE",
"788 12 CURVE SMOOTH",
"788 5 OFFCURVE",
"792 0 OFFCURVE",
"797 0 CURVE SMOOTH",
"951 0 LINE SMOOTH",
"957 0 OFFCURVE",
"958 5 OFFCURVE",
"958 8 CURVE SMOOTH",
"958 16 OFFCURVE",
"952 20 OFFCURVE",
"942 21 CURVE SMOOTH",
"892 27 LINE",
"754 666 LINE",
"799 671 LINE SMOOTH",
"810 672 OFFCURVE",
"818 676 OFFCURVE",
"818 685 CURVE SMOOTH",
"818 692 OFFCURVE",
"814 695 OFFCURVE",
"809 695 CURVE SMOOTH",
"694 695 LINE",
"518 105 LINE SMOOTH",
"508 71 OFFCURVE",
"500 33 OFFCURVE",
"500 33 CURVE SMOOTH",
"494 33 LINE SMOOTH",
"494 33 OFFCURVE",
"486 71 OFFCURVE",
"475 105 CURVE SMOOTH",
"291 695 LINE",
"173 695 LINE SMOOTH",
"168 695 OFFCURVE",
"164 692 OFFCURVE",
"164 685 CURVE SMOOTH",
"164 676 OFFCURVE",
"172 672 OFFCURVE",
"183 671 CURVE SMOOTH",
"229 666 LINE",
"98 26 LINE",
"52 26 LINE SMOOTH",
"40 26 OFFCURVE",
"34 20 OFFCURVE",
"34 12 CURVE SMOOTH",
"34 5 OFFCURVE",
"38 0 OFFCURVE",
"43 0 CURVE SMOOTH"
);
}
);
width = 989;
}
);
leftKerningGroup = M;
note = M;
rightKerningGroup = M;
unicode = 004D;
},
{
glyphname = Mdotbelow;
lastChange = "2015-07-21 14:42:29 +0000";
layers = (
{
layerId = "180D1874-17C2-44EB-BA68-42C2D2C9E124";
name = Light;
paths = (
{
closed = 1;
nodes = (
"196 0 LINE SMOOTH",
"202 0 OFFCURVE",
"203 5 OFFCURVE",
"203 8 CURVE SMOOTH",
"203 16 OFFCURVE",
"197 20 OFFCURVE",
"187 21 CURVE SMOOTH",
"128 27 LINE",
"248 616 LINE SMOOTH",
"253 638 OFFCURVE",
"256 666 OFFCURVE",
"256 666 CURVE",
"262 666 LINE",
"262 666 OFFCURVE",
"270 638 OFFCURVE",
"277 616 CURVE SMOOTH",
"470 0 LINE",
"517 0 LINE",
"701 616 LINE SMOOTH",
"708 638 OFFCURVE",
"716 666 OFFCURVE",
"716 666 CURVE",
"722 666 LINE",
"722 666 OFFCURVE",
"725 638 OFFCURVE",
"730 616 CURVE SMOOTH",
"856 26 LINE",
"806 26 LINE SMOOTH",
"794 26 OFFCURVE",
"788 20 OFFCURVE",
"788 12 CURVE SMOOTH",
"788 5 OFFCURVE",
"792 0 OFFCURVE",
"797 0 CURVE SMOOTH",
"951 0 LINE SMOOTH",
"957 0 OFFCURVE",
"958 5 OFFCURVE",
"958 8 CURVE SMOOTH",
"958 16 OFFCURVE",
"952 20 OFFCURVE",
"942 21 CURVE SMOOTH",
"892 27 LINE",
"754 666 LINE",
"799 671 LINE SMOOTH",
"810 672 OFFCURVE",
"818 676 OFFCURVE",
"818 685 CURVE SMOOTH",
"818 692 OFFCURVE",
"814 695 OFFCURVE",
"809 695 CURVE SMOOTH",
"694 695 LINE",
"518 105 LINE SMOOTH",
"508 71 OFFCURVE",
"500 33 OFFCURVE",
"500 33 CURVE SMOOTH",
"494 33 LINE SMOOTH",
"494 33 OFFCURVE",
"486 71 OFFCURVE",
"475 105 CURVE SMOOTH",
"291 695 LINE",
"173 695 LINE SMOOTH",
"168 695 OFFCURVE",
"164 692 OFFCURVE",
"164 685 CURVE SMOOTH",
"164 676 OFFCURVE",
"172 672 OFFCURVE",
"183 671 CURVE SMOOTH",
"229 666 LINE",
"98 26 LINE",
"52 26 LINE SMOOTH",
"40 26 OFFCURVE",
"34 20 OFFCURVE",
"34 12 CURVE SMOOTH",
"34 5 OFFCURVE",
"38 0 OFFCURVE",
"43 0 CURVE SMOOTH"
);
},
{
closed = 1;
nodes = (
"513 -135 OFFCURVE",
"528 -120 OFFCURVE",
"528 -100 CURVE SMOOTH",
"528 -80 OFFCURVE",
"513 -65 OFFCURVE",
"493 -65 CURVE SMOOTH",
"473 -65 OFFCURVE",
"458 -80 OFFCURVE",
"458 -100 CURVE SMOOTH",
"458 -120 OFFCURVE",
"473 -135 OFFCURVE",
"493 -135 CURVE SMOOTH"
);
}
);
width = 989;
}
);
leftKerningGroup = M;
note = Mdotbelow;
rightKerningGroup = M;
unicode = 1E42;
},
{
glyphname = N;
lastChange = "2015-07-21 10:04:07 +0000";
layers = (
{
layerId = "180D1874-17C2-44EB-BA68-42C2D2C9E124";
name = Light;
paths = (
{
closed = 1;
nodes = (
"229 0 LINE SMOOTH",
"235 0 OFFCURVE",
"236 5 OFFCURVE",
"236 8 CURVE SMOOTH",
"236 16 OFFCURVE",
"230 20 OFFCURVE",
"220 21 CURVE SMOOTH",
"162 27 LINE",
"162 642 LINE",
"176 615 OFFCURVE",
"190 593 OFFCURVE",
"206 570 CURVE SMOOTH",
"602 0 LINE",
"634 0 LINE",
"634 668 LINE",
"686 674 LINE SMOOTH",
"696 675 OFFCURVE",
"702 679 OFFCURVE",
"702 687 CURVE SMOOTH",
"702 690 OFFCURVE",
"701 695 OFFCURVE",
"695 695 CURVE SMOOTH",
"549 695 LINE SMOOTH",
"537 695 OFFCURVE",
"532 689 OFFCURVE",
"532 681 CURVE SMOOTH",
"532 674 OFFCURVE",
"536 669 OFFCURVE",
"541 669 CURVE SMOOTH",
"602 669 LINE",
"602 51 LINE",
"589 77 OFFCURVE",
"574 101 OFFCURVE",
"557 126 CURVE SMOOTH",
"162 695 LINE",
"75 695 LINE SMOOTH",
"70 695 OFFCURVE",
"65 692 OFFCURVE",
"65 685 CURVE SMOOTH",
"65 675 OFFCURVE",
"73 673 OFFCURVE",
"85 671 CURVE SMOOTH",
"130 665 LINE",
"130 26 LINE",
"84 26 LINE SMOOTH",
"72 26 OFFCURVE",
"66 20 OFFCURVE",
"66 12 CURVE SMOOTH",
"66 5 OFFCURVE",
"70 0 OFFCURVE",
"75 0 CURVE SMOOTH"
);
}
);
width = 764;
}
);
note = N;
unicode = 004E;
},
{
glyphname = Nacute;
lastChange = "2015-07-21 10:04:08 +0000";
layers = (
{
layerId = "180D1874-17C2-44EB-BA68-42C2D2C9E124";
name = Light;
paths = (
{
closed = 1;
nodes = (
"229 0 LINE SMOOTH",
"235 0 OFFCURVE",
"236 5 OFFCURVE",
"236 8 CURVE SMOOTH",
"236 16 OFFCURVE",
"230 20 OFFCURVE",
"220 21 CURVE SMOOTH",
"162 27 LINE",
"162 642 LINE",
"176 615 OFFCURVE",
"190 593 OFFCURVE",
"206 570 CURVE SMOOTH",
"602 0 LINE",
"634 0 LINE",
"634 668 LINE",
"686 674 LINE SMOOTH",
"696 675 OFFCURVE",
"702 679 OFFCURVE",
"702 687 CURVE SMOOTH",
"702 690 OFFCURVE",
"701 695 OFFCURVE",
"695 695 CURVE SMOOTH",
"549 695 LINE SMOOTH",
"537 695 OFFCURVE",
"532 689 OFFCURVE",
"532 681 CURVE SMOOTH",
"532 674 OFFCURVE",
"536 669 OFFCURVE",
"541 669 CURVE SMOOTH",
"602 669 LINE",
"602 51 LINE",
"589 77 OFFCURVE",
"574 101 OFFCURVE",
"557 126 CURVE SMOOTH",
"162 695 LINE",
"75 695 LINE SMOOTH",
"70 695 OFFCURVE",
"65 692 OFFCURVE",
"65 685 CURVE SMOOTH",
"65 675 OFFCURVE",
"73 673 OFFCURVE",
"85 671 CURVE SMOOTH",
"130 665 LINE",
"130 26 LINE",
"84 26 LINE SMOOTH",
"72 26 OFFCURVE",
"66 20 OFFCURVE",
"66 12 CURVE SMOOTH",
"66 5 OFFCURVE",
"70 0 OFFCURVE",
"75 0 CURVE SMOOTH"
);
},
{
closed = 1;
nodes = (
"439 862 LINE",
"409 880 LINE",
"337 762 LINE",
"359 749 LINE"
);
}
);
width = 764;
}
);
note = Nacute;
unicode = 0143;
},
{
glyphname = Ncaron;
lastChange = "2015-07-21 10:04:08 +0000";
layers = (
{
layerId = "180D1874-17C2-44EB-BA68-42C2D2C9E124";
name = Light;
paths = (
{
closed = 1;
nodes = (
"229 0 LINE SMOOTH",
"235 0 OFFCURVE",
"236 5 OFFCURVE",
"236 8 CURVE SMOOTH",
"236 16 OFFCURVE",
"230 20 OFFCURVE",
"220 21 CURVE SMOOTH",
"162 27 LINE",
"162 642 LINE",
"176 615 OFFCURVE",
"190 593 OFFCURVE",
"206 570 CURVE SMOOTH",
"602 0 LINE",
"634 0 LINE",
"634 668 LINE",
"686 674 LINE SMOOTH",
"696 675 OFFCURVE",
"702 679 OFFCURVE",
"702 687 CURVE SMOOTH",
"702 690 OFFCURVE",
"701 695 OFFCURVE",
"695 695 CURVE SMOOTH",
"549 695 LINE SMOOTH",
"537 695 OFFCURVE",
"532 689 OFFCURVE",
"532 681 CURVE SMOOTH",
"532 674 OFFCURVE",
"536 669 OFFCURVE",
"541 669 CURVE SMOOTH",
"602 669 LINE",
"602 51 LINE",
"589 77 OFFCURVE",
"574 101 OFFCURVE",
"557 126 CURVE SMOOTH",
"162 695 LINE",
"75 695 LINE SMOOTH",
"70 695 OFFCURVE",
"65 692 OFFCURVE",
"65 685 CURVE SMOOTH",
"65 675 OFFCURVE",
"73 673 OFFCURVE",
"85 671 CURVE SMOOTH",
"130 665 LINE",
"130 26 LINE",
"84 26 LINE SMOOTH",
"72 26 OFFCURVE",
"66 20 OFFCURVE",
"66 12 CURVE SMOOTH",
"66 5 OFFCURVE",
"70 0 OFFCURVE",
"75 0 CURVE SMOOTH"
);
},
{
closed = 1;
nodes = (
"396 749 LINE",
"491 867 LINE",
"470 881 LINE",
"383 790 LINE",
"296 881 LINE",
"275 867 LINE",
"370 749 LINE"
);
}
);
width = 764;
}
);
note = Ncaron;
unicode = 0147;
},
{
glyphname = Ncommaaccent;
lastChange = "2015-07-21 10:04:08 +0000";
layers = (
{
layerId = "180D1874-17C2-44EB-BA68-42C2D2C9E124";
name = Light;
paths = (
{
closed = 1;
nodes = (
"229 0 LINE SMOOTH",
"235 0 OFFCURVE",
"236 5 OFFCURVE",
"236 8 CURVE SMOOTH",
"236 16 OFFCURVE",
"230 20 OFFCURVE",
"220 21 CURVE SMOOTH",
"162 27 LINE",
"162 642 LINE",
"176 615 OFFCURVE",
"190 593 OFFCURVE",
"206 570 CURVE SMOOTH",
"602 0 LINE",
"634 0 LINE",
"634 668 LINE",
"686 674 LINE SMOOTH",
"696 675 OFFCURVE",
"702 679 OFFCURVE",
"702 687 CURVE SMOOTH",
"702 690 OFFCURVE",
"701 695 OFFCURVE",
"695 695 CURVE SMOOTH",
"549 695 LINE SMOOTH",
"537 695 OFFCURVE",
"532 689 OFFCURVE",
"532 681 CURVE SMOOTH",
"532 674 OFFCURVE",
"536 669 OFFCURVE",
"541 669 CURVE SMOOTH",
"602 669 LINE",
"602 51 LINE",
"589 77 OFFCURVE",
"574 101 OFFCURVE",
"557 126 CURVE SMOOTH",
"162 695 LINE",
"75 695 LINE SMOOTH",
"70 695 OFFCURVE",
"65 692 OFFCURVE",
"65 685 CURVE SMOOTH",
"65 675 OFFCURVE",
"73 673 OFFCURVE",
"85 671 CURVE SMOOTH",
"130 665 LINE",
"130 26 LINE",
"84 26 LINE SMOOTH",
"72 26 OFFCURVE",
"66 20 OFFCURVE",
"66 12 CURVE SMOOTH",
"66 5 OFFCURVE",
"70 0 OFFCURVE",
"75 0 CURVE SMOOTH"
);
},
{
closed = 1;
nodes = (
"393 -154 OFFCURVE",
"413 -108 OFFCURVE",
"427 -51 CURVE",
"375 -38 LINE SMOOTH",
"362 -35 OFFCURVE",
"352 -40 OFFCURVE",
"352 -53 CURVE SMOOTH",
"352 -57 OFFCURVE",
"355 -60 OFFCURVE",
"358 -61 CURVE SMOOTH",
"389 -72 LINE",
"385 -103 OFFCURVE",
"367 -147 OFFCURVE",
"344 -183 CURVE",
"362 -195 LINE"
);
}
);
width = 764;
}
);
note = Ncommaaccent;
unicode = 0145;
},
{
glyphname = Ndotaccent;
lastChange = "2015-07-21 10:04:08 +0000";
layers = (
{
layerId = "180D1874-17C2-44EB-BA68-42C2D2C9E124";
name = Light;
paths = (
{
closed = 1;
nodes = (
"229 0 LINE SMOOTH",
"235 0 OFFCURVE",
"236 5 OFFCURVE",
"236 8 CURVE SMOOTH",
"236 16 OFFCURVE",
"230 20 OFFCURVE",
"220 21 CURVE SMOOTH",
"162 27 LINE",
"162 642 LINE",
"176 615 OFFCURVE",
"190 593 OFFCURVE",
"206 570 CURVE SMOOTH",
"602 0 LINE",
"634 0 LINE",
"634 668 LINE",
"686 674 LINE SMOOTH",
"696 675 OFFCURVE",
"702 679 OFFCURVE",
"702 687 CURVE SMOOTH",
"702 690 OFFCURVE",
"701 695 OFFCURVE",
"695 695 CURVE SMOOTH",
"549 695 LINE SMOOTH",
"537 695 OFFCURVE",
"532 689 OFFCURVE",
"532 681 CURVE SMOOTH",
"532 674 OFFCURVE",
"536 669 OFFCURVE",
"541 669 CURVE SMOOTH",
"602 669 LINE",
"602 51 LINE",
"589 77 OFFCURVE",
"574 101 OFFCURVE",
"557 126 CURVE SMOOTH",
"162 695 LINE",
"75 695 LINE SMOOTH",
"70 695 OFFCURVE",
"65 692 OFFCURVE",
"65 685 CURVE SMOOTH",
"65 675 OFFCURVE",
"73 673 OFFCURVE",
"85 671 CURVE SMOOTH",
"130 665 LINE",
"130 26 LINE",
"84 26 LINE SMOOTH",
"72 26 OFFCURVE",
"66 20 OFFCURVE",
"66 12 CURVE SMOOTH",
"66 5 OFFCURVE",
"70 0 OFFCURVE",
"75 0 CURVE SMOOTH"
);
},
{
closed = 1;
nodes = (
"401 765 OFFCURVE",
"416 780 OFFCURVE",
"416 800 CURVE SMOOTH",
"416 820 OFFCURVE",
"401 835 OFFCURVE",
"381 835 CURVE SMOOTH",
"361 835 OFFCURVE",
"346 820 OFFCURVE",
"346 800 CURVE SMOOTH",
"346 780 OFFCURVE",
"361 765 OFFCURVE",
"381 765 CURVE SMOOTH"
);
}
);
width = 764;
}
);
note = Ndotaccent;
unicode = 1E44;
},
{
glyphname = Ndotbelow;
lastChange = "2015-07-21 10:04:08 +0000";
layers = (
{
layerId = "180D1874-17C2-44EB-BA68-42C2D2C9E124";
name = Light;
paths = (
{
closed = 1;
nodes = (
"229 0 LINE SMOOTH",
"235 0 OFFCURVE",
"236 5 OFFCURVE",
"236 8 CURVE SMOOTH",
"236 16 OFFCURVE",
"230 20 OFFCURVE",
"220 21 CURVE SMOOTH",
"162 27 LINE",
"162 642 LINE",
"176 615 OFFCURVE",
"190 593 OFFCURVE",
"206 570 CURVE SMOOTH",
"602 0 LINE",
"634 0 LINE",
"634 668 LINE",
"686 674 LINE SMOOTH",
"696 675 OFFCURVE",
"702 679 OFFCURVE",
"702 687 CURVE SMOOTH",
"702 690 OFFCURVE",
"701 695 OFFCURVE",
"695 695 CURVE SMOOTH",
"549 695 LINE SMOOTH",
"537 695 OFFCURVE",
"532 689 OFFCURVE",
"532 681 CURVE SMOOTH",
"532 674 OFFCURVE",
"536 669 OFFCURVE",
"541 669 CURVE SMOOTH",
"602 669 LINE",
"602 51 LINE",
"589 77 OFFCURVE",
"574 101 OFFCURVE",
"557 126 CURVE SMOOTH",
"162 695 LINE",
"75 695 LINE SMOOTH",
"70 695 OFFCURVE",
"65 692 OFFCURVE",
"65 685 CURVE SMOOTH",
"65 675 OFFCURVE",
"73 673 OFFCURVE",
"85 671 CURVE SMOOTH",
"130 665 LINE",
"130 26 LINE",
"84 26 LINE SMOOTH",
"72 26 OFFCURVE",
"66 20 OFFCURVE",
"66 12 CURVE SMOOTH",
"66 5 OFFCURVE",
"70 0 OFFCURVE",
"75 0 CURVE SMOOTH"
);
},
{
closed = 1;
nodes = (
"404 -135 OFFCURVE",
"419 -120 OFFCURVE",
"419 -100 CURVE SMOOTH",
"419 -80 OFFCURVE",
"404 -65 OFFCURVE",
"384 -65 CURVE SMOOTH",
"364 -65 OFFCURVE",
"349 -80 OFFCURVE",
"349 -100 CURVE SMOOTH",
"349 -120 OFFCURVE",
"364 -135 OFFCURVE",
"384 -135 CURVE SMOOTH"
);
}
);
width = 764;
}
);
note = Ndotbelow;
unicode = 1E46;
},
{
glyphname = Eng;
lastChange = "2015-07-21 10:04:07 +0000";
layers = (
{
layerId = "180D1874-17C2-44EB-BA68-42C2D2C9E124";
name = Light;
paths = (
{
closed = 1;
nodes = (
"553 -182 OFFCURVE",
"634 -132 OFFCURVE",
"634 -20 CURVE SMOOTH",
"634 668 LINE",
"686 674 LINE SMOOTH",
"696 675 OFFCURVE",
"702 679 OFFCURVE",
"702 687 CURVE SMOOTH",
"702 690 OFFCURVE",
"701 695 OFFCURVE",
"695 695 CURVE SMOOTH",
"549 695 LINE SMOOTH",
"537 695 OFFCURVE",
"532 689 OFFCURVE",
"532 681 CURVE SMOOTH",
"532 674 OFFCURVE",
"536 669 OFFCURVE",
"541 669 CURVE SMOOTH",
"602 669 LINE",
"602 51 LINE",
"589 77 OFFCURVE",
"574 101 OFFCURVE",
"557 126 CURVE SMOOTH",
"162 695 LINE",
"75 695 LINE SMOOTH",
"70 695 OFFCURVE",
"65 692 OFFCURVE",
"65 685 CURVE SMOOTH",
"65 675 OFFCURVE",
"73 673 OFFCURVE",
"85 671 CURVE SMOOTH",
"130 665 LINE",
"130 26 LINE",
"84 26 LINE SMOOTH",
"72 26 OFFCURVE",
"66 20 OFFCURVE",
"66 12 CURVE SMOOTH",
"66 5 OFFCURVE",
"70 0 OFFCURVE",
"75 0 CURVE SMOOTH",
"229 0 LINE SMOOTH",
"235 0 OFFCURVE",
"236 5 OFFCURVE",
"236 8 CURVE SMOOTH",
"236 16 OFFCURVE",
"230 20 OFFCURVE",
"220 21 CURVE SMOOTH",
"162 27 LINE",
"162 642 LINE",
"176 615 OFFCURVE",
"190 593 OFFCURVE",
"206 570 CURVE SMOOTH",
"602 0 LINE",
"602 -23 LINE SMOOTH",
"602 -110 OFFCURVE",
"546 -154 OFFCURVE",
"476 -167 CURVE",
"486 -194 LINE"
);
}
);
width = 765;
}
);
note = Eng;
unicode = 014A;
},
{
glyphname = Nlinebelow;
lastChange = "2015-07-21 10:04:08 +0000";
layers = (
{
layerId = "180D1874-17C2-44EB-BA68-42C2D2C9E124";
name = Light;
paths = (
{
closed = 1;
nodes = (
"229 0 LINE SMOOTH",
"235 0 OFFCURVE",
"236 5 OFFCURVE",
"236 8 CURVE SMOOTH",
"236 16 OFFCURVE",
"230 20 OFFCURVE",
"220 21 CURVE SMOOTH",
"162 27 LINE",
"162 642 LINE",
"176 615 OFFCURVE",
"190 593 OFFCURVE",
"206 570 CURVE SMOOTH",
"602 0 LINE",
"634 0 LINE",
"634 668 LINE",
"686 674 LINE SMOOTH",
"696 675 OFFCURVE",
"702 679 OFFCURVE",
"702 687 CURVE SMOOTH",
"702 690 OFFCURVE",
"701 695 OFFCURVE",
"695 695 CURVE SMOOTH",
"549 695 LINE SMOOTH",
"537 695 OFFCURVE",
"532 689 OFFCURVE",
"532 681 CURVE SMOOTH",
"532 674 OFFCURVE",
"536 669 OFFCURVE",
"541 669 CURVE SMOOTH",
"602 669 LINE",
"602 51 LINE",
"589 77 OFFCURVE",
"574 101 OFFCURVE",
"557 126 CURVE SMOOTH",
"162 695 LINE",
"75 695 LINE SMOOTH",
"70 695 OFFCURVE",
"65 692 OFFCURVE",
"65 685 CURVE SMOOTH",
"65 675 OFFCURVE",
"73 673 OFFCURVE",
"85 671 CURVE SMOOTH",
"130 665 LINE",
"130 26 LINE",
"84 26 LINE SMOOTH",
"72 26 OFFCURVE",
"66 20 OFFCURVE",
"66 12 CURVE SMOOTH",
"66 5 OFFCURVE",
"70 0 OFFCURVE",
"75 0 CURVE SMOOTH"
);
},
{
closed = 1;
nodes = (
"569 -114 LINE",
"569 -88 LINE",
"215 -88 LINE",
"215 -114 LINE"
);
}
);
width = 764;
}
);
note = Nlinebelow;
unicode = 1E48;
},
{
glyphname = Ntilde;
lastChange = "2015-07-21 10:04:08 +0000";
layers = (
{
layerId = "180D1874-17C2-44EB-BA68-42C2D2C9E124";
name = Light;
paths = (
{
closed = 1;
nodes = (
"229 0 LINE SMOOTH",
"235 0 OFFCURVE",
"236 5 OFFCURVE",
"236 8 CURVE SMOOTH",
"236 16 OFFCURVE",
"230 20 OFFCURVE",
"220 21 CURVE SMOOTH",
"162 27 LINE",
"162 642 LINE",
"176 615 OFFCURVE",
"190 593 OFFCURVE",
"206 570 CURVE SMOOTH",
"602 0 LINE",
"634 0 LINE",
"634 668 LINE",
"686 674 LINE SMOOTH",
"696 675 OFFCURVE",
"702 679 OFFCURVE",
"702 687 CURVE SMOOTH",
"702 690 OFFCURVE",
"701 695 OFFCURVE",
"695 695 CURVE SMOOTH",
"549 695 LINE SMOOTH",
"537 695 OFFCURVE",
"532 689 OFFCURVE",
"532 681 CURVE SMOOTH",
"532 674 OFFCURVE",
"536 669 OFFCURVE",
"541 669 CURVE SMOOTH",
"602 669 LINE",
"602 51 LINE",
"589 77 OFFCURVE",
"574 101 OFFCURVE",
"557 126 CURVE SMOOTH",
"162 695 LINE",
"75 695 LINE SMOOTH",
"70 695 OFFCURVE",
"65 692 OFFCURVE",
"65 685 CURVE SMOOTH",
"65 675 OFFCURVE",
"73 673 OFFCURVE",
"85 671 CURVE SMOOTH",
"130 665 LINE",
"130 26 LINE",
"84 26 LINE SMOOTH",
"72 26 OFFCURVE",
"66 20 OFFCURVE",
"66 12 CURVE SMOOTH",
"66 5 OFFCURVE",
"70 0 OFFCURVE",
"75 0 CURVE SMOOTH"
);
},
{
closed = 1;
nodes = (
"460 760 OFFCURVE",
"491 779 OFFCURVE",
"514 800 CURVE",
"499 818 LINE",
"477 802 OFFCURVE",
"455 790 OFFCURVE",
"430 790 CURVE SMOOTH",
"402 790 OFFCURVE",
"362 821 OFFCURVE",
"328 821 CURVE SMOOTH",
"299 821 OFFCURVE",
"266 802 OFFCURVE",
"243 781 CURVE",
"258 763 LINE",
"280 779 OFFCURVE",
"302 791 OFFCURVE",
"327 791 CURVE SMOOTH",
"364 791 OFFCURVE",
"392 760 OFFCURVE",
"431 760 CURVE SMOOTH"
);
}
);
width = 764;
}
);
note = Ntilde;
unicode = 00D1;
},
{
glyphname = O;
lastChange = "2015-07-21 16:31:27 +0000";
layers = (
{
layerId = "180D1874-17C2-44EB-BA68-42C2D2C9E124";
name = Light;
paths = (
{
closed = 1;
nodes = (
"547 -10 OFFCURVE",
"661 112 OFFCURVE",
"661 346 CURVE SMOOTH",
"661 580 OFFCURVE",
"547 705 OFFCURVE",
"359 705 CURVE SMOOTH",
"171 705 OFFCURVE",
"57 580 OFFCURVE",
"57 346 CURVE SMOOTH",
"57 112 OFFCURVE",
"171 -10 OFFCURVE",
"359 -10 CURVE SMOOTH"
);
},
{
closed = 1;
nodes = (
"188 18 OFFCURVE",
"92 140 OFFCURVE",
"92 346 CURVE SMOOTH",
"92 552 OFFCURVE",
"188 677 OFFCURVE",
"359 677 CURVE SMOOTH",
"530 677 OFFCURVE",
"626 552 OFFCURVE",
"626 346 CURVE SMOOTH",
"626 140 OFFCURVE",
"530 18 OFFCURVE",
"359 18 CURVE SMOOTH"
);
}
);
width = 718;
}
);
leftKerningGroup = O;
note = O;
rightKerningGroup = O;
unicode = 004F;
},
{
glyphname = Oacute;
lastChange = "2015-07-21 14:42:51 +0000";
layers = (
{
layerId = "180D1874-17C2-44EB-BA68-42C2D2C9E124";
name = Light;
paths = (
{
closed = 1;
nodes = (
"547 -10 OFFCURVE",
"661 112 OFFCURVE",
"661 346 CURVE SMOOTH",
"661 580 OFFCURVE",
"547 705 OFFCURVE",
"359 705 CURVE SMOOTH",
"171 705 OFFCURVE",
"57 580 OFFCURVE",
"57 346 CURVE SMOOTH",
"57 112 OFFCURVE",
"171 -10 OFFCURVE",
"359 -10 CURVE SMOOTH"
);
},
{
closed = 1;
nodes = (
"188 18 OFFCURVE",
"92 140 OFFCURVE",
"92 346 CURVE SMOOTH",
"92 552 OFFCURVE",
"188 677 OFFCURVE",
"359 677 CURVE SMOOTH",
"530 677 OFFCURVE",
"626 552 OFFCURVE",
"626 346 CURVE SMOOTH",
"626 140 OFFCURVE",
"530 18 OFFCURVE",
"359 18 CURVE SMOOTH"
);
},
{
closed = 1;
nodes = (
"411 862 LINE",
"381 880 LINE",
"309 762 LINE",
"331 749 LINE"
);
}
);
width = 718;
}
);
leftKerningGroup = O;
note = Oacute;
rightKerningGroup = O;
unicode = 00D3;
},
{
glyphname = Obreve;
lastChange = "2015-07-21 14:42:51 +0000";
layers = (
{
layerId = "180D1874-17C2-44EB-BA68-42C2D2C9E124";
name = Light;
paths = (
{
closed = 1;
nodes = (
"547 -10 OFFCURVE",
"661 112 OFFCURVE",
"661 346 CURVE SMOOTH",
"661 580 OFFCURVE",
"547 705 OFFCURVE",
"359 705 CURVE SMOOTH",
"171 705 OFFCURVE",
"57 580 OFFCURVE",
"57 346 CURVE SMOOTH",
"57 112 OFFCURVE",
"171 -10 OFFCURVE",
"359 -10 CURVE SMOOTH"
);
},
{
closed = 1;
nodes = (
"188 18 OFFCURVE",
"92 140 OFFCURVE",
"92 346 CURVE SMOOTH",
"92 552 OFFCURVE",
"188 677 OFFCURVE",
"359 677 CURVE SMOOTH",
"530 677 OFFCURVE",
"626 552 OFFCURVE",
"626 346 CURVE SMOOTH",
"626 140 OFFCURVE",
"530 18 OFFCURVE",
"359 18 CURVE SMOOTH"
);
},
{
closed = 1;
nodes = (
"413 747 OFFCURVE",
"464 776 OFFCURVE",
"485 851 CURVE",
"458 861 LINE",
"446 814 OFFCURVE",
"413 775 OFFCURVE",
"358 775 CURVE SMOOTH",
"303 775 OFFCURVE",
"270 814 OFFCURVE",
"258 861 CURVE",
"231 851 LINE",
"252 776 OFFCURVE",
"303 747 OFFCURVE",
"358 747 CURVE SMOOTH"
);
}
);
width = 718;
}
);
leftKerningGroup = O;
note = Obreve;
rightKerningGroup = O;
unicode = 014E;
},
{
glyphname = Ocaron;
lastChange = "2015-07-21 14:42:51 +0000";
layers = (
{
layerId = "180D1874-17C2-44EB-BA68-42C2D2C9E124";
name = Light;
paths = (
{
closed = 1;
nodes = (
"547 -10 OFFCURVE",
"661 112 OFFCURVE",
"661 346 CURVE SMOOTH",
"661 580 OFFCURVE",
"547 705 OFFCURVE",
"359 705 CURVE SMOOTH",
"171 705 OFFCURVE",
"57 580 OFFCURVE",
"57 346 CURVE SMOOTH",
"57 112 OFFCURVE",
"171 -10 OFFCURVE",
"359 -10 CURVE SMOOTH"
);
},
{
closed = 1;
nodes = (
"188 18 OFFCURVE",
"92 140 OFFCURVE",
"92 346 CURVE SMOOTH",
"92 552 OFFCURVE",
"188 677 OFFCURVE",
"359 677 CURVE SMOOTH",
"530 677 OFFCURVE",
"626 552 OFFCURVE",
"626 346 CURVE SMOOTH",
"626 140 OFFCURVE",
"530 18 OFFCURVE",
"359 18 CURVE SMOOTH"
);
},
{
closed = 1;
nodes = (
"373 749 LINE",
"468 867 LINE",
"447 881 LINE",
"360 790 LINE",
"273 881 LINE",
"252 867 LINE",
"347 749 LINE"
);
}
);
width = 718;
}
);
leftKerningGroup = O;
note = Ocaron;
rightKerningGroup = O;
unicode = 01D1;
},
{
glyphname = Ocircumflex;
lastChange = "2015-07-21 14:42:51 +0000";
layers = (
{
layerId = "180D1874-17C2-44EB-BA68-42C2D2C9E124";
name = Light;
paths = (
{
closed = 1;
nodes = (
"547 -10 OFFCURVE",
"661 112 OFFCURVE",
"661 346 CURVE SMOOTH",
"661 580 OFFCURVE",
"547 705 OFFCURVE",
"359 705 CURVE SMOOTH",
"171 705 OFFCURVE",
"57 580 OFFCURVE",
"57 346 CURVE SMOOTH",
"57 112 OFFCURVE",
"171 -10 OFFCURVE",
"359 -10 CURVE SMOOTH"
);
},
{
closed = 1;
nodes = (
"188 18 OFFCURVE",
"92 140 OFFCURVE",
"92 346 CURVE SMOOTH",
"92 552 OFFCURVE",
"188 677 OFFCURVE",
"359 677 CURVE SMOOTH",
"530 677 OFFCURVE",
"626 552 OFFCURVE",
"626 346 CURVE SMOOTH",
"626 140 OFFCURVE",
"530 18 OFFCURVE",
"359 18 CURVE SMOOTH"
);
},
{
closed = 1;
nodes = (
"359 840 LINE",
"446 749 LINE",
"467 763 LINE",
"372 881 LINE",
"346 881 LINE",
"251 763 LINE",
"272 749 LINE"
);
}
);
width = 718;
}
);
leftKerningGroup = O;
note = Ocircumflex;
rightKerningGroup = O;
unicode = 00D4;
},
{
glyphname = Ocircumflexacute;
lastChange = "2015-07-21 14:42:51 +0000";
layers = (
{
layerId = "180D1874-17C2-44EB-BA68-42C2D2C9E124";
name = Light;
paths = (
{
closed = 1;
nodes = (
"547 -10 OFFCURVE",
"661 112 OFFCURVE",
"661 346 CURVE SMOOTH",
"661 580 OFFCURVE",
"547 705 OFFCURVE",
"359 705 CURVE SMOOTH",
"171 705 OFFCURVE",
"57 580 OFFCURVE",
"57 346 CURVE SMOOTH",
"57 112 OFFCURVE",
"171 -10 OFFCURVE",
"359 -10 CURVE SMOOTH"
);
},
{
closed = 1;
nodes = (
"188 18 OFFCURVE",
"92 140 OFFCURVE",
"92 346 CURVE SMOOTH",
"92 552 OFFCURVE",
"188 677 OFFCURVE",
"359 677 CURVE SMOOTH",
"530 677 OFFCURVE",
"626 552 OFFCURVE",
"626 346 CURVE SMOOTH",
"626 140 OFFCURVE",
"530 18 OFFCURVE",
"359 18 CURVE SMOOTH"
);
},
{
closed = 1;
nodes = (
"359 840 LINE",
"446 749 LINE",
"467 763 LINE",
"372 881 LINE",
"346 881 LINE",
"251 763 LINE",
"272 749 LINE"
);
},
{
closed = 1;
nodes = (
"529 920 LINE",
"499 938 LINE",
"441 842 LINE",
"463 829 LINE"
);
}
);
width = 718;
}
);
leftKerningGroup = O;
note = Ocircumflexacute;
rightKerningGroup = O;
unicode = 1ED0;
},
{
glyphname = Ocircumflexdotbelow;
lastChange = "2015-07-21 14:42:51 +0000";
layers = (
{
layerId = "180D1874-17C2-44EB-BA68-42C2D2C9E124";
name = Light;
paths = (
{
closed = 1;
nodes = (
"547 -10 OFFCURVE",
"661 112 OFFCURVE",
"661 346 CURVE SMOOTH",
"661 580 OFFCURVE",
"547 705 OFFCURVE",
"359 705 CURVE SMOOTH",
"171 705 OFFCURVE",
"57 580 OFFCURVE",
"57 346 CURVE SMOOTH",
"57 112 OFFCURVE",
"171 -10 OFFCURVE",
"359 -10 CURVE SMOOTH"
);
},
{
closed = 1;
nodes = (
"379 -135 OFFCURVE",
"394 -120 OFFCURVE",
"394 -100 CURVE SMOOTH",
"394 -80 OFFCURVE",
"379 -65 OFFCURVE",
"359 -65 CURVE SMOOTH",
"339 -65 OFFCURVE",
"324 -80 OFFCURVE",
"324 -100 CURVE SMOOTH",
"324 -120 OFFCURVE",
"339 -135 OFFCURVE",
"359 -135 CURVE SMOOTH"
);
},
{
closed = 1;
nodes = (
"188 18 OFFCURVE",
"92 140 OFFCURVE",
"92 346 CURVE SMOOTH",
"92 552 OFFCURVE",
"188 677 OFFCURVE",
"359 677 CURVE SMOOTH",
"530 677 OFFCURVE",
"626 552 OFFCURVE",
"626 346 CURVE SMOOTH",
"626 140 OFFCURVE",
"530 18 OFFCURVE",
"359 18 CURVE SMOOTH"
);
},
{
closed = 1;
nodes = (
"359 840 LINE",
"446 749 LINE",
"467 763 LINE",
"372 881 LINE",
"346 881 LINE",
"251 763 LINE",
"272 749 LINE"
);
}
);
width = 718;
}
);
leftKerningGroup = O;
note = Ocircumflexdotbelow;
rightKerningGroup = O;
unicode = 1ED8;
},
{
glyphname = Ocircumflexgrave;
lastChange = "2015-07-21 14:42:51 +0000";
layers = (
{
layerId = "180D1874-17C2-44EB-BA68-42C2D2C9E124";
name = Light;
paths = (
{
closed = 1;
nodes = (
"547 -10 OFFCURVE",
"661 112 OFFCURVE",
"661 346 CURVE SMOOTH",
"661 580 OFFCURVE",
"547 705 OFFCURVE",
"359 705 CURVE SMOOTH",
"171 705 OFFCURVE",
"57 580 OFFCURVE",
"57 346 CURVE SMOOTH",
"57 112 OFFCURVE",
"171 -10 OFFCURVE",
"359 -10 CURVE SMOOTH"
);
},
{
closed = 1;
nodes = (
"188 18 OFFCURVE",
"92 140 OFFCURVE",
"92 346 CURVE SMOOTH",
"92 552 OFFCURVE",
"188 677 OFFCURVE",
"359 677 CURVE SMOOTH",
"530 677 OFFCURVE",
"626 552 OFFCURVE",
"626 346 CURVE SMOOTH",
"626 140 OFFCURVE",
"530 18 OFFCURVE",
"359 18 CURVE SMOOTH"
);
},
{
closed = 1;
nodes = (
"277 842 LINE",
"219 938 LINE",
"189 920 LINE",
"255 829 LINE"
);
},
{
closed = 1;
nodes = (
"359 840 LINE",
"446 749 LINE",
"467 763 LINE",
"372 881 LINE",
"346 881 LINE",
"251 763 LINE",
"272 749 LINE"
);
}
);
width = 718;
}
);
leftKerningGroup = O;
note = Ocircumflexgrave;
rightKerningGroup = O;
unicode = 1ED2;
},
{
glyphname = Ocircumflexhookabove;
lastChange = "2015-07-21 14:42:51 +0000";
layers = (
{
layerId = "180D1874-17C2-44EB-BA68-42C2D2C9E124";
name = Light;
paths = (
{
closed = 1;
nodes = (
"547 -10 OFFCURVE",
"661 112 OFFCURVE",
"661 346 CURVE SMOOTH",
"661 580 OFFCURVE",
"547 705 OFFCURVE",
"359 705 CURVE SMOOTH",
"171 705 OFFCURVE",
"57 580 OFFCURVE",
"57 346 CURVE SMOOTH",
"57 112 OFFCURVE",
"171 -10 OFFCURVE",
"359 -10 CURVE SMOOTH"
);
},
{
closed = 1;
nodes = (
"188 18 OFFCURVE",
"92 140 OFFCURVE",
"92 346 CURVE SMOOTH",
"92 552 OFFCURVE",
"188 677 OFFCURVE",
"359 677 CURVE SMOOTH",
"530 677 OFFCURVE",
"626 552 OFFCURVE",
"626 346 CURVE SMOOTH",
"626 140 OFFCURVE",
"530 18 OFFCURVE",
"359 18 CURVE SMOOTH"
);
},
{
closed = 1;
nodes = (
"359 840 LINE",
"446 749 LINE",
"467 763 LINE",
"372 881 LINE",
"346 881 LINE",
"251 763 LINE",
"272 749 LINE"
);
},
{
closed = 1;
nodes = (
"492 819 LINE",
"497 859 LINE",
"519 866 OFFCURVE",
"534 883 OFFCURVE",
"534 905 CURVE SMOOTH",
"534 939 OFFCURVE",
"507 954 OFFCURVE",
"479 954 CURVE SMOOTH",
"463 954 OFFCURVE",
"446 949 OFFCURVE",
"434 945 CURVE",
"439 925 LINE",
"448 928 OFFCURVE",
"462 931 OFFCURVE",
"474 931 CURVE SMOOTH",
"491 931 OFFCURVE",
"506 923 OFFCURVE",
"506 905 CURVE SMOOTH",
"506 887 OFFCURVE",
"493 874 OFFCURVE",
"467 866 CURVE",
"470 819 LINE"
);
}
);
width = 718;
}
);
leftKerningGroup = O;
note = Ocircumflexhookabove;
rightKerningGroup = O;
unicode = 1ED4;
},
{
glyphname = Ocircumflextilde;
lastChange = "2015-07-21 14:42:51 +0000";
layers = (
{
layerId = "180D1874-17C2-44EB-BA68-42C2D2C9E124";
name = Light;
paths = (
{
closed = 1;
nodes = (
"547 -10 OFFCURVE",
"661 112 OFFCURVE",
"661 346 CURVE SMOOTH",
"661 580 OFFCURVE",
"547 705 OFFCURVE",
"359 705 CURVE SMOOTH",
"171 705 OFFCURVE",
"57 580 OFFCURVE",
"57 346 CURVE SMOOTH",
"57 112 OFFCURVE",
"171 -10 OFFCURVE",
"359 -10 CURVE SMOOTH"
);
},
{
closed = 1;
nodes = (
"188 18 OFFCURVE",
"92 140 OFFCURVE",
"92 346 CURVE SMOOTH",
"92 552 OFFCURVE",
"188 677 OFFCURVE",
"359 677 CURVE SMOOTH",
"530 677 OFFCURVE",
"626 552 OFFCURVE",
"626 346 CURVE SMOOTH",
"626 140 OFFCURVE",
"530 18 OFFCURVE",
"359 18 CURVE SMOOTH"
);
},
{
closed = 1;
nodes = (
"413 747 OFFCURVE",
"464 776 OFFCURVE",
"485 851 CURVE",
"458 861 LINE",
"446 814 OFFCURVE",
"413 775 OFFCURVE",
"358 775 CURVE SMOOTH",
"303 775 OFFCURVE",
"270 814 OFFCURVE",
"258 861 CURVE",
"231 851 LINE",
"252 776 OFFCURVE",
"303 747 OFFCURVE",
"358 747 CURVE SMOOTH"
);
},
{
closed = 1;
nodes = (
"417 906 OFFCURVE",
"440 920 OFFCURVE",
"457 935 CURVE",
"446 958 LINE",
"431 946 OFFCURVE",
"414 936 OFFCURVE",
"395 936 CURVE SMOOTH",
"375 936 OFFCURVE",
"346 960 OFFCURVE",
"322 960 CURVE SMOOTH",
"301 960 OFFCURVE",
"278 946 OFFCURVE",
"261 931 CURVE",
"272 908 LINE",
"287 920 OFFCURVE",
"303 930 OFFCURVE",
"322 930 CURVE SMOOTH",
"348 930 OFFCURVE",
"368 906 OFFCURVE",
"396 906 CURVE SMOOTH"
);
}
);
width = 718;
}
);
leftKerningGroup = O;
note = Ocircumflextilde;
rightKerningGroup = O;
unicode = 1ED6;
},
{
glyphname = Odieresis;
lastChange = "2015-07-21 14:42:51 +0000";
layers = (
{
layerId = "180D1874-17C2-44EB-BA68-42C2D2C9E124";
name = Light;
paths = (
{
closed = 1;
nodes = (
"547 -10 OFFCURVE",
"661 112 OFFCURVE",
"661 346 CURVE SMOOTH",
"661 580 OFFCURVE",
"547 705 OFFCURVE",
"359 705 CURVE SMOOTH",
"171 705 OFFCURVE",
"57 580 OFFCURVE",
"57 346 CURVE SMOOTH",
"57 112 OFFCURVE",
"171 -10 OFFCURVE",
"359 -10 CURVE SMOOTH"
);
},
{
closed = 1;
nodes = (
"188 18 OFFCURVE",
"92 140 OFFCURVE",
"92 346 CURVE SMOOTH",
"92 552 OFFCURVE",
"188 677 OFFCURVE",
"359 677 CURVE SMOOTH",
"530 677 OFFCURVE",
"626 552 OFFCURVE",
"626 346 CURVE SMOOTH",
"626 140 OFFCURVE",
"530 18 OFFCURVE",
"359 18 CURVE SMOOTH"
);
},
{
closed = 1;
nodes = (
"288 760 OFFCURVE",
"304 774 OFFCURVE",
"304 794 CURVE SMOOTH",
"304 814 OFFCURVE",
"288 828 OFFCURVE",
"270 828 CURVE SMOOTH",
"252 828 OFFCURVE",
"236 814 OFFCURVE",
"236 794 CURVE SMOOTH",
"236 774 OFFCURVE",
"252 760 OFFCURVE",
"270 760 CURVE SMOOTH"
);
},
{
closed = 1;
nodes = (
"466 760 OFFCURVE",
"482 774 OFFCURVE",
"482 794 CURVE SMOOTH",
"482 814 OFFCURVE",
"466 828 OFFCURVE",
"448 828 CURVE SMOOTH",
"430 828 OFFCURVE",
"414 814 OFFCURVE",
"414 794 CURVE SMOOTH",
"414 774 OFFCURVE",
"430 760 OFFCURVE",
"448 760 CURVE SMOOTH"
);
}
);
width = 718;
}
);
leftKerningGroup = O;
note = Odieresis;
rightKerningGroup = O;
unicode = 00D6;
},
{
glyphname = Odotbelow;
lastChange = "2015-07-21 14:42:51 +0000";
layers = (
{
layerId = "180D1874-17C2-44EB-BA68-42C2D2C9E124";
name = Light;
paths = (
{
closed = 1;
nodes = (
"547 -10 OFFCURVE",
"661 112 OFFCURVE",
"661 346 CURVE SMOOTH",
"661 580 OFFCURVE",
"547 705 OFFCURVE",
"359 705 CURVE SMOOTH",
"171 705 OFFCURVE",
"57 580 OFFCURVE",
"57 346 CURVE SMOOTH",
"57 112 OFFCURVE",
"171 -10 OFFCURVE",
"359 -10 CURVE SMOOTH"
);
},
{
closed = 1;
nodes = (
"379 -135 OFFCURVE",
"394 -120 OFFCURVE",
"394 -100 CURVE SMOOTH",
"394 -80 OFFCURVE",
"379 -65 OFFCURVE",
"359 -65 CURVE SMOOTH",
"339 -65 OFFCURVE",
"324 -80 OFFCURVE",
"324 -100 CURVE SMOOTH",
"324 -120 OFFCURVE",
"339 -135 OFFCURVE",
"359 -135 CURVE SMOOTH"
);
},
{
closed = 1;
nodes = (
"188 18 OFFCURVE",
"92 140 OFFCURVE",
"92 346 CURVE SMOOTH",
"92 552 OFFCURVE",
"188 677 OFFCURVE",
"359 677 CURVE SMOOTH",
"530 677 OFFCURVE",
"626 552 OFFCURVE",
"626 346 CURVE SMOOTH",
"626 140 OFFCURVE",
"530 18 OFFCURVE",
"359 18 CURVE SMOOTH"
);
}
);
width = 718;
}
);
leftKerningGroup = O;
note = Odotbelow;
rightKerningGroup = O;
unicode = 1ECC;
},
{
glyphname = Ograve;
lastChange = "2015-07-21 14:42:51 +0000";
layers = (
{
layerId = "180D1874-17C2-44EB-BA68-42C2D2C9E124";
name = Light;
paths = (
{
closed = 1;
nodes = (
"547 -10 OFFCURVE",
"661 112 OFFCURVE",
"661 346 CURVE SMOOTH",
"661 580 OFFCURVE",
"547 705 OFFCURVE",
"359 705 CURVE SMOOTH",
"171 705 OFFCURVE",
"57 580 OFFCURVE",
"57 346 CURVE SMOOTH",
"57 112 OFFCURVE",
"171 -10 OFFCURVE",
"359 -10 CURVE SMOOTH"
);
},
{
closed = 1;
nodes = (
"188 18 OFFCURVE",
"92 140 OFFCURVE",
"92 346 CURVE SMOOTH",
"92 552 OFFCURVE",
"188 677 OFFCURVE",
"359 677 CURVE SMOOTH",
"530 677 OFFCURVE",
"626 552 OFFCURVE",
"626 346 CURVE SMOOTH",
"626 140 OFFCURVE",
"530 18 OFFCURVE",
"359 18 CURVE SMOOTH"
);
},
{
closed = 1;
nodes = (
"408 763 LINE",
"336 881 LINE",
"306 863 LINE",
"386 750 LINE"
);
}
);
width = 718;
}
);
leftKerningGroup = O;
note = Ograve;
rightKerningGroup = O;
unicode = 00D2;
},
{
glyphname = Ohookabove;
lastChange = "2015-07-21 14:42:51 +0000";
layers = (
{
layerId = "180D1874-17C2-44EB-BA68-42C2D2C9E124";
name = Light;
paths = (
{
closed = 1;
nodes = (
"547 -10 OFFCURVE",
"661 112 OFFCURVE",
"661 346 CURVE SMOOTH",
"661 580 OFFCURVE",
"547 705 OFFCURVE",
"359 705 CURVE SMOOTH",
"171 705 OFFCURVE",
"57 580 OFFCURVE",
"57 346 CURVE SMOOTH",
"57 112 OFFCURVE",
"171 -10 OFFCURVE",
"359 -10 CURVE SMOOTH"
);
},
{
closed = 1;
nodes = (
"188 18 OFFCURVE",
"92 140 OFFCURVE",
"92 346 CURVE SMOOTH",
"92 552 OFFCURVE",
"188 677 OFFCURVE",
"359 677 CURVE SMOOTH",
"530 677 OFFCURVE",
"626 552 OFFCURVE",
"626 346 CURVE SMOOTH",
"626 140 OFFCURVE",
"530 18 OFFCURVE",
"359 18 CURVE SMOOTH"
);
},
{
closed = 1;
nodes = (
"368 750 LINE",
"373 793 LINE",
"398 801 OFFCURVE",
"414 820 OFFCURVE",
"414 844 CURVE SMOOTH",
"414 881 OFFCURVE",
"384 898 OFFCURVE",
"353 898 CURVE SMOOTH",
"336 898 OFFCURVE",
"317 893 OFFCURVE",
"304 888 CURVE",
"309 866 LINE",
"319 869 OFFCURVE",
"335 873 OFFCURVE",
"348 873 CURVE SMOOTH",
"367 873 OFFCURVE",
"383 864 OFFCURVE",
"383 844 CURVE SMOOTH",
"383 824 OFFCURVE",
"369 810 OFFCURVE",
"340 801 CURVE",
"344 750 LINE"
);
}
);
width = 718;
}
);
leftKerningGroup = O;
note = Ohookabove;
rightKerningGroup = O;
unicode = 1ECE;
},
{
glyphname = Ohorn;
lastChange = "2015-07-21 14:43:15 +0000";
layers = (
{
layerId = "180D1874-17C2-44EB-BA68-42C2D2C9E124";
name = Light;
paths = (
{
closed = 1;
nodes = (
"547 -10 OFFCURVE",
"661 112 OFFCURVE",
"661 346 CURVE SMOOTH",
"661 455 OFFCURVE",
"636 540 OFFCURVE",
"591 600 CURVE",
"649 630 OFFCURVE",
"689 677 OFFCURVE",
"689 763 CURVE",
"655 763 LINE",
"655 691 OFFCURVE",
"625 646 OFFCURVE",
"571 624 CURVE",
"520 677 OFFCURVE",
"447 705 OFFCURVE",
"359 705 CURVE SMOOTH",
"171 705 OFFCURVE",
"57 580 OFFCURVE",
"57 346 CURVE SMOOTH",
"57 112 OFFCURVE",
"171 -10 OFFCURVE",
"359 -10 CURVE SMOOTH"
);
},
{
closed = 1;
nodes = (
"188 18 OFFCURVE",
"92 140 OFFCURVE",
"92 346 CURVE SMOOTH",
"92 552 OFFCURVE",
"188 677 OFFCURVE",
"359 677 CURVE SMOOTH",
"530 677 OFFCURVE",
"626 552 OFFCURVE",
"626 346 CURVE SMOOTH",
"626 140 OFFCURVE",
"530 18 OFFCURVE",
"359 18 CURVE SMOOTH"
);
}
);
width = 735;
}
);
leftKerningGroup = O;
note = Ohorn;
rightKerningGroup = Ohorn;
unicode = 01A0;
},
{
glyphname = Ohornacute;
lastChange = "2015-07-21 14:43:15 +0000";
layers = (
{
layerId = "180D1874-17C2-44EB-BA68-42C2D2C9E124";
name = Light;
paths = (
{
closed = 1;
nodes = (
"547 -10 OFFCURVE",
"661 112 OFFCURVE",
"661 346 CURVE SMOOTH",
"661 455 OFFCURVE",
"636 540 OFFCURVE",
"591 600 CURVE",
"649 630 OFFCURVE",
"689 677 OFFCURVE",
"689 763 CURVE",
"655 763 LINE",
"655 691 OFFCURVE",
"625 646 OFFCURVE",
"571 624 CURVE",
"520 677 OFFCURVE",
"447 705 OFFCURVE",
"359 705 CURVE SMOOTH",
"171 705 OFFCURVE",
"57 580 OFFCURVE",
"57 346 CURVE SMOOTH",
"57 112 OFFCURVE",
"171 -10 OFFCURVE",
"359 -10 CURVE SMOOTH"
);
},
{
closed = 1;
nodes = (
"188 18 OFFCURVE",
"92 140 OFFCURVE",
"92 346 CURVE SMOOTH",
"92 552 OFFCURVE",
"188 677 OFFCURVE",
"359 677 CURVE SMOOTH",
"530 677 OFFCURVE",
"626 552 OFFCURVE",
"626 346 CURVE SMOOTH",
"626 140 OFFCURVE",
"530 18 OFFCURVE",
"359 18 CURVE SMOOTH"
);
},
{
closed = 1;
nodes = (
"411 862 LINE",
"381 880 LINE",
"309 762 LINE",
"331 749 LINE"
);
}
);
width = 735;
}
);
leftKerningGroup = O;
note = Ohornacute;
rightKerningGroup = Ohorn;
unicode = 1EDA;
},
{
glyphname = Ohorndotbelow;
lastChange = "2015-07-21 14:43:15 +0000";
layers = (
{
layerId = "180D1874-17C2-44EB-BA68-42C2D2C9E124";
name = Light;
paths = (
{
closed = 1;
nodes = (
"547 -10 OFFCURVE",
"661 112 OFFCURVE",
"661 346 CURVE SMOOTH",
"661 455 OFFCURVE",
"636 540 OFFCURVE",
"591 600 CURVE",
"649 630 OFFCURVE",
"689 677 OFFCURVE",
"689 763 CURVE",
"655 763 LINE",
"655 691 OFFCURVE",
"625 646 OFFCURVE",
"571 624 CURVE",
"520 677 OFFCURVE",
"447 705 OFFCURVE",
"359 705 CURVE SMOOTH",
"171 705 OFFCURVE",
"57 580 OFFCURVE",
"57 346 CURVE SMOOTH",
"57 112 OFFCURVE",
"171 -10 OFFCURVE",
"359 -10 CURVE SMOOTH"
);
},
{
closed = 1;
nodes = (
"379 -135 OFFCURVE",
"394 -120 OFFCURVE",
"394 -100 CURVE SMOOTH",
"394 -80 OFFCURVE",
"379 -65 OFFCURVE",
"359 -65 CURVE SMOOTH",
"339 -65 OFFCURVE",
"324 -80 OFFCURVE",
"324 -100 CURVE SMOOTH",
"324 -120 OFFCURVE",
"339 -135 OFFCURVE",
"359 -135 CURVE SMOOTH"
);
},
{
closed = 1;
nodes = (
"188 18 OFFCURVE",
"92 140 OFFCURVE",
"92 346 CURVE SMOOTH",
"92 552 OFFCURVE",
"188 677 OFFCURVE",
"359 677 CURVE SMOOTH",
"530 677 OFFCURVE",
"626 552 OFFCURVE",
"626 346 CURVE SMOOTH",
"626 140 OFFCURVE",
"530 18 OFFCURVE",
"359 18 CURVE SMOOTH"
);
}
);
width = 735;
}
);
leftKerningGroup = O;
note = Ohorndotbelow;
rightKerningGroup = Ohorn;
unicode = 1EE2;
},
{
glyphname = Ohorngrave;
lastChange = "2015-07-21 14:43:15 +0000";
layers = (
{
layerId = "180D1874-17C2-44EB-BA68-42C2D2C9E124";
name = Light;
paths = (
{
closed = 1;
nodes = (
"547 -10 OFFCURVE",
"661 112 OFFCURVE",
"661 346 CURVE SMOOTH",
"661 455 OFFCURVE",
"636 540 OFFCURVE",
"591 600 CURVE",
"649 630 OFFCURVE",
"689 677 OFFCURVE",
"689 763 CURVE",
"655 763 LINE",
"655 691 OFFCURVE",
"625 646 OFFCURVE",
"571 624 CURVE",
"520 677 OFFCURVE",
"447 705 OFFCURVE",
"359 705 CURVE SMOOTH",
"171 705 OFFCURVE",
"57 580 OFFCURVE",
"57 346 CURVE SMOOTH",
"57 112 OFFCURVE",
"171 -10 OFFCURVE",
"359 -10 CURVE SMOOTH"
);
},
{
closed = 1;
nodes = (
"188 18 OFFCURVE",
"92 140 OFFCURVE",
"92 346 CURVE SMOOTH",
"92 552 OFFCURVE",
"188 677 OFFCURVE",
"359 677 CURVE SMOOTH",
"530 677 OFFCURVE",
"626 552 OFFCURVE",
"626 346 CURVE SMOOTH",
"626 140 OFFCURVE",
"530 18 OFFCURVE",
"359 18 CURVE SMOOTH"
);
},
{
closed = 1;
nodes = (
"408 763 LINE",
"336 881 LINE",
"306 863 LINE",
"386 750 LINE"
);
}
);
width = 735;
}
);
leftKerningGroup = O;
note = Ohorngrave;
rightKerningGroup = Ohorn;
unicode = 1EDC;
},
{
glyphname = Ohornhookabove;
lastChange = "2015-07-21 14:43:16 +0000";
layers = (
{
layerId = "180D1874-17C2-44EB-BA68-42C2D2C9E124";
name = Light;
paths = (
{
closed = 1;
nodes = (
"547 -10 OFFCURVE",
"661 112 OFFCURVE",
"661 346 CURVE SMOOTH",
"661 455 OFFCURVE",
"636 540 OFFCURVE",
"591 600 CURVE",
"649 630 OFFCURVE",
"689 677 OFFCURVE",
"689 763 CURVE",
"655 763 LINE",
"655 691 OFFCURVE",
"625 646 OFFCURVE",
"571 624 CURVE",
"520 677 OFFCURVE",
"447 705 OFFCURVE",
"359 705 CURVE SMOOTH",
"171 705 OFFCURVE",
"57 580 OFFCURVE",
"57 346 CURVE SMOOTH",
"57 112 OFFCURVE",
"171 -10 OFFCURVE",
"359 -10 CURVE SMOOTH"
);
},
{
closed = 1;
nodes = (
"188 18 OFFCURVE",
"92 140 OFFCURVE",
"92 346 CURVE SMOOTH",
"92 552 OFFCURVE",
"188 677 OFFCURVE",
"359 677 CURVE SMOOTH",
"530 677 OFFCURVE",
"626 552 OFFCURVE",
"626 346 CURVE SMOOTH",
"626 140 OFFCURVE",
"530 18 OFFCURVE",
"359 18 CURVE SMOOTH"
);
},
{
closed = 1;
nodes = (
"368 750 LINE",
"373 793 LINE",
"398 801 OFFCURVE",
"414 820 OFFCURVE",
"414 844 CURVE SMOOTH",
"414 881 OFFCURVE",
"384 898 OFFCURVE",
"353 898 CURVE SMOOTH",
"336 898 OFFCURVE",
"317 893 OFFCURVE",
"304 888 CURVE",
"309 866 LINE",
"319 869 OFFCURVE",
"335 873 OFFCURVE",
"348 873 CURVE SMOOTH",
"367 873 OFFCURVE",
"383 864 OFFCURVE",
"383 844 CURVE SMOOTH",
"383 824 OFFCURVE",
"369 810 OFFCURVE",
"340 801 CURVE",
"344 750 LINE"
);
}
);
width = 735;
}
);
leftKerningGroup = O;
note = Ohornhookabove;
rightKerningGroup = Ohorn;
unicode = 1EDE;
},
{
glyphname = Ohorntilde;
lastChange = "2015-07-21 14:43:15 +0000";
layers = (
{
layerId = "180D1874-17C2-44EB-BA68-42C2D2C9E124";
name = Light;
paths = (
{
closed = 1;
nodes = (
"547 -10 OFFCURVE",
"661 112 OFFCURVE",
"661 346 CURVE SMOOTH",
"661 455 OFFCURVE",
"636 540 OFFCURVE",
"591 600 CURVE",
"649 630 OFFCURVE",
"689 677 OFFCURVE",
"689 763 CURVE",
"655 763 LINE",
"655 691 OFFCURVE",
"625 646 OFFCURVE",
"571 624 CURVE",
"520 677 OFFCURVE",
"447 705 OFFCURVE",
"359 705 CURVE SMOOTH",
"171 705 OFFCURVE",
"57 580 OFFCURVE",
"57 346 CURVE SMOOTH",
"57 112 OFFCURVE",
"171 -10 OFFCURVE",
"359 -10 CURVE SMOOTH"
);
},
{
closed = 1;
nodes = (
"188 18 OFFCURVE",
"92 140 OFFCURVE",
"92 346 CURVE SMOOTH",
"92 552 OFFCURVE",
"188 677 OFFCURVE",
"359 677 CURVE SMOOTH",
"530 677 OFFCURVE",
"626 552 OFFCURVE",
"626 346 CURVE SMOOTH",
"626 140 OFFCURVE",
"530 18 OFFCURVE",
"359 18 CURVE SMOOTH"
);
},
{
closed = 1;
nodes = (
"441 760 OFFCURVE",
"472 779 OFFCURVE",
"495 800 CURVE",
"480 818 LINE",
"458 802 OFFCURVE",
"436 790 OFFCURVE",
"411 790 CURVE SMOOTH",
"383 790 OFFCURVE",
"343 821 OFFCURVE",
"309 821 CURVE SMOOTH",
"280 821 OFFCURVE",
"247 802 OFFCURVE",
"224 781 CURVE",
"239 763 LINE",
"261 779 OFFCURVE",
"283 791 OFFCURVE",
"308 791 CURVE SMOOTH",
"345 791 OFFCURVE",
"373 760 OFFCURVE",
"412 760 CURVE SMOOTH"
);
}
);
width = 735;
}
);
leftKerningGroup = O;
note = Ohorntilde;
rightKerningGroup = Ohorn;
unicode = 1EE0;
},
{
glyphname = Ohungarumlaut;
lastChange = "2015-07-21 14:43:00 +0000";
layers = (
{
layerId = "180D1874-17C2-44EB-BA68-42C2D2C9E124";
name = Light;
paths = (
{
closed = 1;
nodes = (
"547 -10 OFFCURVE",
"661 112 OFFCURVE",
"661 346 CURVE SMOOTH",
"661 580 OFFCURVE",
"547 705 OFFCURVE",
"359 705 CURVE SMOOTH",
"171 705 OFFCURVE",
"57 580 OFFCURVE",
"57 346 CURVE SMOOTH",
"57 112 OFFCURVE",
"171 -10 OFFCURVE",
"359 -10 CURVE SMOOTH"
);
},
{
closed = 1;
nodes = (
"188 18 OFFCURVE",
"92 140 OFFCURVE",
"92 346 CURVE SMOOTH",
"92 552 OFFCURVE",
"188 677 OFFCURVE",
"359 677 CURVE SMOOTH",
"530 677 OFFCURVE",
"626 552 OFFCURVE",
"626 346 CURVE SMOOTH",
"626 140 OFFCURVE",
"530 18 OFFCURVE",
"359 18 CURVE SMOOTH"
);
},
{
closed = 1;
nodes = (
"387 894 LINE",
"362 910 LINE",
"262 762 LINE",
"281 749 LINE"
);
},
{
closed = 1;
nodes = (
"547 894 LINE",
"522 910 LINE",
"422 762 LINE",
"441 749 LINE"
);
}
);
width = 718;
}
);
leftKerningGroup = O;
note = Ohungarumlaut;
rightKerningGroup = O;
unicode = 0150;
},
{
glyphname = Omacron;
lastChange = "2015-07-21 14:43:00 +0000";
layers = (
{
layerId = "180D1874-17C2-44EB-BA68-42C2D2C9E124";
name = Light;
paths = (
{
closed = 1;
nodes = (
"547 -10 OFFCURVE",
"661 112 OFFCURVE",
"661 346 CURVE SMOOTH",
"661 580 OFFCURVE",
"547 705 OFFCURVE",
"359 705 CURVE SMOOTH",
"171 705 OFFCURVE",
"57 580 OFFCURVE",
"57 346 CURVE SMOOTH",
"57 112 OFFCURVE",
"171 -10 OFFCURVE",
"359 -10 CURVE SMOOTH"
);
},
{
closed = 1;
nodes = (
"188 18 OFFCURVE",
"92 140 OFFCURVE",
"92 346 CURVE SMOOTH",
"92 552 OFFCURVE",
"188 677 OFFCURVE",
"359 677 CURVE SMOOTH",
"530 677 OFFCURVE",
"626 552 OFFCURVE",
"626 346 CURVE SMOOTH",
"626 140 OFFCURVE",
"530 18 OFFCURVE",
"359 18 CURVE SMOOTH"
);
},
{
closed = 1;
nodes = (
"493 772 LINE",
"493 800 LINE",
"223 800 LINE",
"223 772 LINE"
);
}
);
width = 718;
}
);
leftKerningGroup = O;
note = Omacron;
rightKerningGroup = O;
unicode = 014C;
},
{
glyphname = Oslash;
lastChange = "2015-07-21 14:43:00 +0000";
layers = (
{
layerId = "180D1874-17C2-44EB-BA68-42C2D2C9E124";
name = Light;
paths = (
{
closed = 1;
nodes = (
"196 34 LINE",
"242 5 OFFCURVE",
"299 -10 OFFCURVE",
"364 -10 CURVE SMOOTH",
"552 -10 OFFCURVE",
"666 112 OFFCURVE",
"666 346 CURVE SMOOTH",
"666 470 OFFCURVE",
"634 563 OFFCURVE",
"576 624 CURVE",
"639 722 LINE",
"610 738 LINE",
"551 646 LINE",
"502 685 OFFCURVE",
"439 705 OFFCURVE",
"364 705 CURVE SMOOTH",
"176 705 OFFCURVE",
"62 580 OFFCURVE",
"62 346 CURVE SMOOTH",
"62 210 OFFCURVE",
"100 112 OFFCURVE",
"169 54 CURVE",
"97 -59 LINE",
"126 -75 LINE"
);
},
{
closed = 1;
nodes = (
"129 138 OFFCURVE",
"97 228 OFFCURVE",
"97 346 CURVE SMOOTH",
"97 552 OFFCURVE",
"193 677 OFFCURVE",
"364 677 CURVE SMOOTH",
"433 677 OFFCURVE",
"490 657 OFFCURVE",
"533 619 CURVE",
"188 82 LINE"
);
},
{
closed = 1;
nodes = (
"304 18 OFFCURVE",
"254 33 OFFCURVE",
"213 61 CURVE",
"557 594 LINE",
"605 537 OFFCURVE",
"631 453 OFFCURVE",
"631 346 CURVE SMOOTH",
"631 140 OFFCURVE",
"535 18 OFFCURVE",
"364 18 CURVE SMOOTH"
);
}
);
width = 729;
}
);
leftKerningGroup = O;
note = Oslash;
rightKerningGroup = O;
unicode = 00D8;
},
{
glyphname = Oslashacute;
lastChange = "2015-07-21 14:43:00 +0000";
layers = (
{
layerId = "180D1874-17C2-44EB-BA68-42C2D2C9E124";
name = Light;
paths = (
{
closed = 1;
nodes = (
"196 34 LINE",
"242 5 OFFCURVE",
"299 -10 OFFCURVE",
"364 -10 CURVE SMOOTH",
"552 -10 OFFCURVE",
"666 112 OFFCURVE",
"666 346 CURVE SMOOTH",
"666 470 OFFCURVE",
"634 563 OFFCURVE",
"576 624 CURVE",
"639 722 LINE",
"610 738 LINE",
"551 646 LINE",
"502 685 OFFCURVE",
"439 705 OFFCURVE",
"364 705 CURVE SMOOTH",
"176 705 OFFCURVE",
"62 580 OFFCURVE",
"62 346 CURVE SMOOTH",
"62 210 OFFCURVE",
"100 112 OFFCURVE",
"169 54 CURVE",
"97 -59 LINE",
"126 -75 LINE"
);
},
{
closed = 1;
nodes = (
"129 138 OFFCURVE",
"97 228 OFFCURVE",
"97 346 CURVE SMOOTH",
"97 552 OFFCURVE",
"193 677 OFFCURVE",
"364 677 CURVE SMOOTH",
"433 677 OFFCURVE",
"490 657 OFFCURVE",
"533 619 CURVE",
"188 82 LINE"
);
},
{
closed = 1;
nodes = (
"304 18 OFFCURVE",
"254 33 OFFCURVE",
"213 61 CURVE",
"557 594 LINE",
"605 537 OFFCURVE",
"631 453 OFFCURVE",
"631 346 CURVE SMOOTH",
"631 140 OFFCURVE",
"535 18 OFFCURVE",
"364 18 CURVE SMOOTH"
);
},
{
closed = 1;
nodes = (
"416 862 LINE",
"386 880 LINE",
"314 762 LINE",
"336 749 LINE"
);
}
);
width = 729;
}
);
leftKerningGroup = O;
note = Oslashacute;
rightKerningGroup = O;
unicode = 01FE;
},
{
glyphname = Otilde;
lastChange = "2015-07-21 14:43:00 +0000";
layers = (
{
layerId = "180D1874-17C2-44EB-BA68-42C2D2C9E124";
name = Light;
paths = (
{
closed = 1;
nodes = (
"547 -10 OFFCURVE",
"661 112 OFFCURVE",
"661 346 CURVE SMOOTH",
"661 580 OFFCURVE",
"547 705 OFFCURVE",
"359 705 CURVE SMOOTH",
"171 705 OFFCURVE",
"57 580 OFFCURVE",
"57 346 CURVE SMOOTH",
"57 112 OFFCURVE",
"171 -10 OFFCURVE",
"359 -10 CURVE SMOOTH"
);
},
{
closed = 1;
nodes = (
"188 18 OFFCURVE",
"92 140 OFFCURVE",
"92 346 CURVE SMOOTH",
"92 552 OFFCURVE",
"188 677 OFFCURVE",
"359 677 CURVE SMOOTH",
"530 677 OFFCURVE",
"626 552 OFFCURVE",
"626 346 CURVE SMOOTH",
"626 140 OFFCURVE",
"530 18 OFFCURVE",
"359 18 CURVE SMOOTH"
);
},
{
closed = 1;
nodes = (
"441 760 OFFCURVE",
"472 779 OFFCURVE",
"495 800 CURVE",
"480 818 LINE",
"458 802 OFFCURVE",
"436 790 OFFCURVE",
"411 790 CURVE SMOOTH",
"383 790 OFFCURVE",
"343 821 OFFCURVE",
"309 821 CURVE SMOOTH",
"280 821 OFFCURVE",
"247 802 OFFCURVE",
"224 781 CURVE",
"239 763 LINE",
"261 779 OFFCURVE",
"283 791 OFFCURVE",
"308 791 CURVE SMOOTH",
"345 791 OFFCURVE",
"373 760 OFFCURVE",
"412 760 CURVE SMOOTH"
);
}
);
width = 718;
}
);
leftKerningGroup = O;
note = Otilde;
rightKerningGroup = O;
unicode = 00D5;
},
{
glyphname = OE;
lastChange = "2015-07-21 10:04:08 +0000";
layers = (
{
layerId = "180D1874-17C2-44EB-BA68-42C2D2C9E124";
name = Light;
paths = (
{
closed = 1;
nodes = (
"426 -10 OFFCURVE",
"468 -6 OFFCURVE",
"497 0 CURVE SMOOTH",
"924 0 LINE",
"924 103 LINE SMOOTH",
"924 108 OFFCURVE",
"921 112 OFFCURVE",
"915 112 CURVE SMOOTH",
"906 112 OFFCURVE",
"902 106 OFFCURVE",
"900 90 CURVE SMOOTH",
"893 27 LINE",
"509 27 LINE",
"509 342 LINE",
"834 342 LINE",
"842 291 LINE SMOOTH",
"845 274 OFFCURVE",
"848 269 OFFCURVE",
"856 269 CURVE SMOOTH",
"862 269 OFFCURVE",
"865 272 OFFCURVE",
"865 278 CURVE SMOOTH",
"865 434 LINE SMOOTH",
"865 440 OFFCURVE",
"862 443 OFFCURVE",
"856 443 CURVE SMOOTH",
"848 443 OFFCURVE",
"845 438 OFFCURVE",
"842 421 CURVE SMOOTH",
"834 370 LINE",
"509 370 LINE",
"509 668 LINE",
"881 668 LINE",
"888 611 LINE SMOOTH",
"890 595 OFFCURVE",
"894 589 OFFCURVE",
"903 589 CURVE SMOOTH",
"909 589 OFFCURVE",
"912 593 OFFCURVE",
"912 598 CURVE SMOOTH",
"912 695 LINE",
"477 695 LINE SMOOTH",
"449 702 OFFCURVE",
"411 705 OFFCURVE",
"383 705 CURVE SMOOTH",
"188 705 OFFCURVE",
"57 582 OFFCURVE",
"57 347 CURVE SMOOTH",
"57 112 OFFCURVE",
"196 -10 OFFCURVE",
"396 -10 CURVE SMOOTH"
);
},
{
closed = 1;
nodes = (
"212 19 OFFCURVE",
"92 141 OFFCURVE",
"92 347 CURVE SMOOTH",
"92 553 OFFCURVE",
"204 676 OFFCURVE",
"383 676 CURVE SMOOTH",
"411 676 OFFCURVE",
"449 673 OFFCURVE",
"475 667 CURVE SMOOTH",
"475 25 LINE SMOOTH",
"452 21 OFFCURVE",
"419 19 OFFCURVE",
"396 19 CURVE SMOOTH"
);
}
);
width = 1001;
}
);
note = OE;
unicode = 0152;
},
{
glyphname = P;
lastChange = "2015-07-21 10:04:08 +0000";
layers = (
{
layerId = "180D1874-17C2-44EB-BA68-42C2D2C9E124";
name = Light;
paths = (
{
closed = 1;
nodes = (
"231 0 LINE SMOOTH",
"237 0 OFFCURVE",
"238 5 OFFCURVE",
"238 8 CURVE SMOOTH",
"238 16 OFFCURVE",
"232 20 OFFCURVE",
"222 21 CURVE SMOOTH",
"164 27 LINE",
"164 307 LINE",
"345 307 LINE SMOOTH",
"460 307 OFFCURVE",
"550 367 OFFCURVE",
"550 501 CURVE SMOOTH",
"550 635 OFFCURVE",
"460 695 OFFCURVE",
"345 695 CURVE SMOOTH",
"73 695 LINE SMOOTH",
"68 695 OFFCURVE",
"65 691 OFFCURVE",
"65 686 CURVE SMOOTH",
"65 677 OFFCURVE",
"74 674 OFFCURVE",
"84 673 CURVE SMOOTH",
"130 667 LINE",
"130 26 LINE",
"84 26 LINE SMOOTH",
"72 26 OFFCURVE",
"66 20 OFFCURVE",
"66 12 CURVE SMOOTH",
"66 5 OFFCURVE",
"70 0 OFFCURVE",
"75 0 CURVE SMOOTH"
);
},
{
closed = 1;
nodes = (
"164 667 LINE",
"348 667 LINE SMOOTH",
"460 667 OFFCURVE",
"514 597 OFFCURVE",
"514 501 CURVE SMOOTH",
"514 405 OFFCURVE",
"460 335 OFFCURVE",
"348 335 CURVE SMOOTH",
"164 335 LINE"
);
}
);
width = 586;
}
);
note = P;
unicode = 0050;
},
{
glyphname = Thorn;
lastChange = "2015-07-21 10:04:08 +0000";
layers = (
{
layerId = "180D1874-17C2-44EB-BA68-42C2D2C9E124";
name = Light;
paths = (
{
closed = 1;
nodes = (
"230 0 LINE SMOOTH",
"236 0 OFFCURVE",
"237 5 OFFCURVE",
"237 8 CURVE SMOOTH",
"237 16 OFFCURVE",
"231 20 OFFCURVE",
"221 21 CURVE SMOOTH",
"163 27 LINE",
"163 158 LINE",
"208 144 OFFCURVE",
"255 138 OFFCURVE",
"299 138 CURVE SMOOTH",
"445 138 OFFCURVE",
"543 214 OFFCURVE",
"543 352 CURVE SMOOTH",
"543 490 OFFCURVE",
"445 566 OFFCURVE",
"299 566 CURVE SMOOTH",
"255 566 OFFCURVE",
"208 560 OFFCURVE",
"163 546 CURVE",
"163 668 LINE",
"221 674 LINE SMOOTH",
"231 675 OFFCURVE",
"237 679 OFFCURVE",
"237 687 CURVE SMOOTH",
"237 690 OFFCURVE",
"236 695 OFFCURVE",
"230 695 CURVE SMOOTH",
"82 695 LINE SMOOTH",
"70 695 OFFCURVE",
"65 689 OFFCURVE",
"65 681 CURVE SMOOTH",
"65 674 OFFCURVE",
"69 669 OFFCURVE",
"74 669 CURVE SMOOTH",
"129 669 LINE",
"129 26 LINE",
"83 26 LINE SMOOTH",
"71 26 OFFCURVE",
"65 20 OFFCURVE",
"65 12 CURVE SMOOTH",
"65 5 OFFCURVE",
"69 0 OFFCURVE",
"74 0 CURVE SMOOTH"
);
},
{
closed = 1;
nodes = (
"258 165 OFFCURVE",
"217 170 OFFCURVE",
"163 187 CURVE",
"163 517 LINE",
"217 534 OFFCURVE",
"258 539 OFFCURVE",
"299 539 CURVE SMOOTH",
"411 539 OFFCURVE",
"509 486 OFFCURVE",
"509 352 CURVE SMOOTH",
"509 218 OFFCURVE",
"411 165 OFFCURVE",
"299 165 CURVE SMOOTH"
);
}
);
width = 605;
}
);
note = Thorn;
unicode = 00DE;
},
{
glyphname = Q;
lastChange = "2015-07-21 16:31:37 +0000";
layers = (
{
layerId = "180D1874-17C2-44EB-BA68-42C2D2C9E124";
name = Light;
paths = (
{
closed = 1;
nodes = (
"564 -155 OFFCURVE",
"572 -149 OFFCURVE",
"572 -138 CURVE SMOOTH",
"572 -129 OFFCURVE",
"565 -126 OFFCURVE",
"552 -122 CURVE SMOOTH",
"517 -112 OFFCURVE",
"486 -95 OFFCURVE",
"457 -75 CURVE SMOOTH",
"430 -55 OFFCURVE",
"406 -33 OFFCURVE",
"383 -9 CURVE",
"557 1 OFFCURVE",
"661 122 OFFCURVE",
"661 346 CURVE SMOOTH",
"661 580 OFFCURVE",
"547 705 OFFCURVE",
"359 705 CURVE SMOOTH",
"171 705 OFFCURVE",
"57 580 OFFCURVE",
"57 346 CURVE SMOOTH",
"57 117 OFFCURVE",
"166 -4 OFFCURVE",
"346 -10 CURVE",
"371 -42 OFFCURVE",
"399 -71 OFFCURVE",
"430 -96 CURVE SMOOTH",
"466 -125 OFFCURVE",
"516 -155 OFFCURVE",
"552 -155 CURVE SMOOTH"
);
},
{
closed = 1;
nodes = (
"188 18 OFFCURVE",
"92 140 OFFCURVE",
"92 346 CURVE SMOOTH",
"92 552 OFFCURVE",
"188 677 OFFCURVE",
"359 677 CURVE SMOOTH",
"530 677 OFFCURVE",
"626 552 OFFCURVE",
"626 346 CURVE SMOOTH",
"626 140 OFFCURVE",
"530 18 OFFCURVE",
"359 18 CURVE SMOOTH"
);
}
);
width = 718;
}
);
note = Q;
unicode = 0051;
},
{
glyphname = R;
lastChange = "2015-07-21 14:44:26 +0000";
layers = (
{
layerId = "180D1874-17C2-44EB-BA68-42C2D2C9E124";
name = Light;
paths = (
{
closed = 1;
nodes = (
"231 0 LINE SMOOTH",
"237 0 OFFCURVE",
"238 5 OFFCURVE",
"238 8 CURVE SMOOTH",
"238 16 OFFCURVE",
"232 20 OFFCURVE",
"222 21 CURVE SMOOTH",
"164 27 LINE",
"164 349 LINE",
"509 0 LINE",
"590 0 LINE SMOOTH",
"596 0 OFFCURVE",
"597 5 OFFCURVE",
"597 8 CURVE SMOOTH",
"597 16 OFFCURVE",
"591 20 OFFCURVE",
"581 21 CURVE SMOOTH",
"530 27 LINE",
"209 349 LINE",
"336 349 LINE SMOOTH",
"451 349 OFFCURVE",
"541 391 OFFCURVE",
"541 521 CURVE SMOOTH",
"541 651 OFFCURVE",
"451 695 OFFCURVE",
"336 695 CURVE SMOOTH",
"73 695 LINE SMOOTH",
"68 695 OFFCURVE",
"65 691 OFFCURVE",
"65 686 CURVE SMOOTH",
"65 677 OFFCURVE",
"74 674 OFFCURVE",
"84 673 CURVE SMOOTH",
"130 667 LINE",
"130 26 LINE",
"84 26 LINE SMOOTH",
"72 26 OFFCURVE",
"66 20 OFFCURVE",
"66 12 CURVE SMOOTH",
"66 5 OFFCURVE",
"70 0 OFFCURVE",
"75 0 CURVE SMOOTH"
);
},
{
closed = 1;
nodes = (
"164 667 LINE",
"339 667 LINE SMOOTH",
"451 667 OFFCURVE",
"505 613 OFFCURVE",
"505 521 CURVE SMOOTH",
"505 429 OFFCURVE",
"451 377 OFFCURVE",
"339 377 CURVE SMOOTH",
"164 377 LINE"
);
}
);
width = 624;
}
);
leftKerningGroup = R;
note = R;
rightKerningGroup = R;
unicode = 0052;
},
{
glyphname = Racute;
lastChange = "2015-07-21 14:44:26 +0000";
layers = (
{
layerId = "180D1874-17C2-44EB-BA68-42C2D2C9E124";
name = Light;
paths = (
{
closed = 1;
nodes = (
"231 0 LINE SMOOTH",
"237 0 OFFCURVE",
"238 5 OFFCURVE",
"238 8 CURVE SMOOTH",
"238 16 OFFCURVE",
"232 20 OFFCURVE",
"222 21 CURVE SMOOTH",
"164 27 LINE",
"164 349 LINE",
"509 0 LINE",
"590 0 LINE SMOOTH",
"596 0 OFFCURVE",
"597 5 OFFCURVE",
"597 8 CURVE SMOOTH",
"597 16 OFFCURVE",
"591 20 OFFCURVE",
"581 21 CURVE SMOOTH",
"530 27 LINE",
"209 349 LINE",
"336 349 LINE SMOOTH",
"451 349 OFFCURVE",
"541 391 OFFCURVE",
"541 521 CURVE SMOOTH",
"541 651 OFFCURVE",
"451 695 OFFCURVE",
"336 695 CURVE SMOOTH",
"73 695 LINE SMOOTH",
"68 695 OFFCURVE",
"65 691 OFFCURVE",
"65 686 CURVE SMOOTH",
"65 677 OFFCURVE",
"74 674 OFFCURVE",
"84 673 CURVE SMOOTH",
"130 667 LINE",
"130 26 LINE",
"84 26 LINE SMOOTH",
"72 26 OFFCURVE",
"66 20 OFFCURVE",
"66 12 CURVE SMOOTH",
"66 5 OFFCURVE",
"70 0 OFFCURVE",
"75 0 CURVE SMOOTH"
);
},
{
closed = 1;
nodes = (
"164 667 LINE",
"339 667 LINE SMOOTH",
"451 667 OFFCURVE",
"505 613 OFFCURVE",
"505 521 CURVE SMOOTH",
"505 429 OFFCURVE",
"451 377 OFFCURVE",
"339 377 CURVE SMOOTH",
"164 377 LINE"
);
},
{
closed = 1;
nodes = (
"380 863 LINE",
"350 881 LINE",
"278 763 LINE",
"300 750 LINE"
);
}
);
width = 624;
}
);
leftKerningGroup = R;
note = Racute;
rightKerningGroup = R;
unicode = 0154;
},
{
glyphname = Rcaron;
lastChange = "2015-07-21 14:44:26 +0000";
layers = (
{
layerId = "180D1874-17C2-44EB-BA68-42C2D2C9E124";
name = Light;
paths = (
{
closed = 1;
nodes = (
"231 0 LINE SMOOTH",
"237 0 OFFCURVE",
"238 5 OFFCURVE",
"238 8 CURVE SMOOTH",
"238 16 OFFCURVE",
"232 20 OFFCURVE",
"222 21 CURVE SMOOTH",
"164 27 LINE",
"164 349 LINE",
"509 0 LINE",
"590 0 LINE SMOOTH",
"596 0 OFFCURVE",
"597 5 OFFCURVE",
"597 8 CURVE SMOOTH",
"597 16 OFFCURVE",
"591 20 OFFCURVE",
"581 21 CURVE SMOOTH",
"530 27 LINE",
"209 349 LINE",
"336 349 LINE SMOOTH",
"451 349 OFFCURVE",
"541 391 OFFCURVE",
"541 521 CURVE SMOOTH",
"541 651 OFFCURVE",
"451 695 OFFCURVE",
"336 695 CURVE SMOOTH",
"73 695 LINE SMOOTH",
"68 695 OFFCURVE",
"65 691 OFFCURVE",
"65 686 CURVE SMOOTH",
"65 677 OFFCURVE",
"74 674 OFFCURVE",
"84 673 CURVE SMOOTH",
"130 667 LINE",
"130 26 LINE",
"84 26 LINE SMOOTH",
"72 26 OFFCURVE",
"66 20 OFFCURVE",
"66 12 CURVE SMOOTH",
"66 5 OFFCURVE",
"70 0 OFFCURVE",
"75 0 CURVE SMOOTH"
);
},
{
closed = 1;
nodes = (
"164 667 LINE",
"339 667 LINE SMOOTH",
"451 667 OFFCURVE",
"505 613 OFFCURVE",
"505 521 CURVE SMOOTH",
"505 429 OFFCURVE",
"451 377 OFFCURVE",
"339 377 CURVE SMOOTH",
"164 377 LINE"
);
},
{
closed = 1;
nodes = (
"311 749 LINE",
"406 867 LINE",
"385 881 LINE",
"298 790 LINE",
"211 881 LINE",
"190 867 LINE",
"285 749 LINE"
);
}
);
width = 624;
}
);
leftKerningGroup = R;
note = Rcaron;
rightKerningGroup = R;
unicode = 0158;
},
{
glyphname = Rcommaaccent;
lastChange = "2015-07-21 14:44:26 +0000";
layers = (
{
layerId = "180D1874-17C2-44EB-BA68-42C2D2C9E124";
name = Light;
paths = (
{
closed = 1;
nodes = (
"231 0 LINE SMOOTH",
"237 0 OFFCURVE",
"238 5 OFFCURVE",
"238 8 CURVE SMOOTH",
"238 16 OFFCURVE",
"232 20 OFFCURVE",
"222 21 CURVE SMOOTH",
"164 27 LINE",
"164 349 LINE",
"509 0 LINE",
"590 0 LINE SMOOTH",
"596 0 OFFCURVE",
"597 5 OFFCURVE",
"597 8 CURVE SMOOTH",
"597 16 OFFCURVE",
"591 20 OFFCURVE",
"581 21 CURVE SMOOTH",
"530 27 LINE",
"209 349 LINE",
"336 349 LINE SMOOTH",
"451 349 OFFCURVE",
"541 391 OFFCURVE",
"541 521 CURVE SMOOTH",
"541 651 OFFCURVE",
"451 695 OFFCURVE",
"336 695 CURVE SMOOTH",
"73 695 LINE SMOOTH",
"68 695 OFFCURVE",
"65 691 OFFCURVE",
"65 686 CURVE SMOOTH",
"65 677 OFFCURVE",
"74 674 OFFCURVE",
"84 673 CURVE SMOOTH",
"130 667 LINE",
"130 26 LINE",
"84 26 LINE SMOOTH",
"72 26 OFFCURVE",
"66 20 OFFCURVE",
"66 12 CURVE SMOOTH",
"66 5 OFFCURVE",
"70 0 OFFCURVE",
"75 0 CURVE SMOOTH"
);
},
{
closed = 1;
nodes = (
"327 -154 OFFCURVE",
"347 -108 OFFCURVE",
"361 -51 CURVE",
"309 -38 LINE SMOOTH",
"296 -35 OFFCURVE",
"286 -40 OFFCURVE",
"286 -53 CURVE SMOOTH",
"286 -57 OFFCURVE",
"289 -60 OFFCURVE",
"292 -61 CURVE SMOOTH",
"323 -72 LINE",
"319 -103 OFFCURVE",
"301 -147 OFFCURVE",
"278 -183 CURVE",
"296 -195 LINE"
);
},
{
closed = 1;
nodes = (
"164 667 LINE",
"339 667 LINE SMOOTH",
"451 667 OFFCURVE",
"505 613 OFFCURVE",
"505 521 CURVE SMOOTH",
"505 429 OFFCURVE",
"451 377 OFFCURVE",
"339 377 CURVE SMOOTH",
"164 377 LINE"
);
}
);
width = 624;
}
);
leftKerningGroup = R;
note = Rcommaaccent;
rightKerningGroup = R;
unicode = 0156;
},
{
glyphname = Rdotbelow;
lastChange = "2015-07-21 14:44:26 +0000";
layers = (
{
layerId = "180D1874-17C2-44EB-BA68-42C2D2C9E124";
name = Light;
paths = (
{
closed = 1;
nodes = (
"231 0 LINE SMOOTH",
"237 0 OFFCURVE",
"238 5 OFFCURVE",
"238 8 CURVE SMOOTH",
"238 16 OFFCURVE",
"232 20 OFFCURVE",
"222 21 CURVE SMOOTH",
"164 27 LINE",
"164 349 LINE",
"509 0 LINE",
"590 0 LINE SMOOTH",
"596 0 OFFCURVE",
"597 5 OFFCURVE",
"597 8 CURVE SMOOTH",
"597 16 OFFCURVE",
"591 20 OFFCURVE",
"581 21 CURVE SMOOTH",
"530 27 LINE",
"209 349 LINE",
"336 349 LINE SMOOTH",
"451 349 OFFCURVE",
"541 391 OFFCURVE",
"541 521 CURVE SMOOTH",
"541 651 OFFCURVE",
"451 695 OFFCURVE",
"336 695 CURVE SMOOTH",
"73 695 LINE SMOOTH",
"68 695 OFFCURVE",
"65 691 OFFCURVE",
"65 686 CURVE SMOOTH",
"65 677 OFFCURVE",
"74 674 OFFCURVE",
"84 673 CURVE SMOOTH",
"130 667 LINE",
"130 26 LINE",
"84 26 LINE SMOOTH",
"72 26 OFFCURVE",
"66 20 OFFCURVE",
"66 12 CURVE SMOOTH",
"66 5 OFFCURVE",
"70 0 OFFCURVE",
"75 0 CURVE SMOOTH"
);
},
{
closed = 1;
nodes = (
"338 -135 OFFCURVE",
"353 -120 OFFCURVE",
"353 -100 CURVE SMOOTH",
"353 -80 OFFCURVE",
"338 -65 OFFCURVE",
"318 -65 CURVE SMOOTH",
"298 -65 OFFCURVE",
"283 -80 OFFCURVE",
"283 -100 CURVE SMOOTH",
"283 -120 OFFCURVE",
"298 -135 OFFCURVE",
"318 -135 CURVE SMOOTH"
);
},
{
closed = 1;
nodes = (
"164 667 LINE",
"339 667 LINE SMOOTH",
"451 667 OFFCURVE",
"505 613 OFFCURVE",
"505 521 CURVE SMOOTH",
"505 429 OFFCURVE",
"451 377 OFFCURVE",
"339 377 CURVE SMOOTH",
"164 377 LINE"
);
}
);
width = 624;
}
);
leftKerningGroup = R;
note = Rdotbelow;
rightKerningGroup = R;
unicode = 1E5A;
},
{
glyphname = Rdotbelowmacron;
lastChange = "2015-07-21 14:44:26 +0000";
layers = (
{
layerId = "180D1874-17C2-44EB-BA68-42C2D2C9E124";
name = Light;
paths = (
{
closed = 1;
nodes = (
"231 0 LINE SMOOTH",
"237 0 OFFCURVE",
"238 5 OFFCURVE",
"238 8 CURVE SMOOTH",
"238 16 OFFCURVE",
"232 20 OFFCURVE",
"222 21 CURVE SMOOTH",
"164 27 LINE",
"164 349 LINE",
"509 0 LINE",
"590 0 LINE SMOOTH",
"596 0 OFFCURVE",
"597 5 OFFCURVE",
"597 8 CURVE SMOOTH",
"597 16 OFFCURVE",
"591 20 OFFCURVE",
"581 21 CURVE SMOOTH",
"530 27 LINE",
"209 349 LINE",
"336 349 LINE SMOOTH",
"451 349 OFFCURVE",
"541 391 OFFCURVE",
"541 521 CURVE SMOOTH",
"541 651 OFFCURVE",
"451 695 OFFCURVE",
"336 695 CURVE SMOOTH",
"73 695 LINE SMOOTH",
"68 695 OFFCURVE",
"65 691 OFFCURVE",
"65 686 CURVE SMOOTH",
"65 677 OFFCURVE",
"74 674 OFFCURVE",
"84 673 CURVE SMOOTH",
"130 667 LINE",
"130 26 LINE",
"84 26 LINE SMOOTH",
"72 26 OFFCURVE",
"66 20 OFFCURVE",
"66 12 CURVE SMOOTH",
"66 5 OFFCURVE",
"70 0 OFFCURVE",
"75 0 CURVE SMOOTH"
);
},
{
closed = 1;
nodes = (
"338 -135 OFFCURVE",
"353 -120 OFFCURVE",
"353 -100 CURVE SMOOTH",
"353 -80 OFFCURVE",
"338 -65 OFFCURVE",
"318 -65 CURVE SMOOTH",
"298 -65 OFFCURVE",
"283 -80 OFFCURVE",
"283 -100 CURVE SMOOTH",
"283 -120 OFFCURVE",
"298 -135 OFFCURVE",
"318 -135 CURVE SMOOTH"
);
},
{
closed = 1;
nodes = (
"164 667 LINE",
"339 667 LINE SMOOTH",
"451 667 OFFCURVE",
"505 613 OFFCURVE",
"505 521 CURVE SMOOTH",
"505 429 OFFCURVE",
"451 377 OFFCURVE",
"339 377 CURVE SMOOTH",
"164 377 LINE"
);
},
{
closed = 1;
nodes = (
"438 772 LINE",
"438 800 LINE",
"168 800 LINE",
"168 772 LINE"
);
}
);
width = 624;
}
);
leftKerningGroup = R;
note = Rdotbelowmacron;
rightKerningGroup = R;
unicode = 1E5C;
},
{
glyphname = Rlinebelow;
lastChange = "2015-07-21 14:44:26 +0000";
layers = (
{
layerId = "180D1874-17C2-44EB-BA68-42C2D2C9E124";
name = Light;
paths = (
{
closed = 1;
nodes = (
"231 0 LINE SMOOTH",
"237 0 OFFCURVE",
"238 5 OFFCURVE",
"238 8 CURVE SMOOTH",
"238 16 OFFCURVE",
"232 20 OFFCURVE",
"222 21 CURVE SMOOTH",
"164 27 LINE",
"164 349 LINE",
"509 0 LINE",
"590 0 LINE SMOOTH",
"596 0 OFFCURVE",
"597 5 OFFCURVE",
"597 8 CURVE SMOOTH",
"597 16 OFFCURVE",
"591 20 OFFCURVE",
"581 21 CURVE SMOOTH",
"530 27 LINE",
"209 349 LINE",
"336 349 LINE SMOOTH",
"451 349 OFFCURVE",
"541 391 OFFCURVE",
"541 521 CURVE SMOOTH",
"541 651 OFFCURVE",
"451 695 OFFCURVE",
"336 695 CURVE SMOOTH",
"73 695 LINE SMOOTH",
"68 695 OFFCURVE",
"65 691 OFFCURVE",
"65 686 CURVE SMOOTH",
"65 677 OFFCURVE",
"74 674 OFFCURVE",
"84 673 CURVE SMOOTH",
"130 667 LINE",
"130 26 LINE",
"84 26 LINE SMOOTH",
"72 26 OFFCURVE",
"66 20 OFFCURVE",
"66 12 CURVE SMOOTH",
"66 5 OFFCURVE",
"70 0 OFFCURVE",
"75 0 CURVE SMOOTH"
);
},
{
closed = 1;
nodes = (
"504 -114 LINE",
"504 -88 LINE",
"150 -88 LINE",
"150 -114 LINE"
);
},
{
closed = 1;
nodes = (
"164 667 LINE",
"339 667 LINE SMOOTH",
"451 667 OFFCURVE",
"505 613 OFFCURVE",
"505 521 CURVE SMOOTH",
"505 429 OFFCURVE",
"451 377 OFFCURVE",
"339 377 CURVE SMOOTH",
"164 377 LINE"
);
}
);
width = 624;
}
);
leftKerningGroup = R;
note = Rlinebelow;
rightKerningGroup = R;
unicode = 1E5E;
},
{
glyphname = S;
lastChange = "2015-07-21 14:44:33 +0000";
layers = (
{
layerId = "180D1874-17C2-44EB-BA68-42C2D2C9E124";
name = Light;
paths = (
{
closed = 1;
nodes = (
"418 -10 OFFCURVE",
"532 35 OFFCURVE",
"532 159 CURVE SMOOTH",
"532 266 OFFCURVE",
"459 311 OFFCURVE",
"311 368 CURVE SMOOTH",
"178 419 OFFCURVE",
"98 452 OFFCURVE",
"98 546 CURVE SMOOTH",
"98 641 OFFCURVE",
"189 676 OFFCURVE",
"283 676 CURVE SMOOTH",
"346 676 OFFCURVE",
"418 660 OFFCURVE",
"466 620 CURVE",
"475 552 LINE SMOOTH",
"477 537 OFFCURVE",
"481 530 OFFCURVE",
"490 530 CURVE SMOOTH",
"496 530 OFFCURVE",
"499 534 OFFCURVE",
"499 539 CURVE SMOOTH",
"499 633 LINE",
"450 678 OFFCURVE",
"362 705 OFFCURVE",
"284 705 CURVE SMOOTH",
"174 705 OFFCURVE",
"62 664 OFFCURVE",
"62 540 CURVE SMOOTH",
"62 443 OFFCURVE",
"145 392 OFFCURVE",
"271 345 CURVE SMOOTH",
"426 287 OFFCURVE",
"496 253 OFFCURVE",
"496 158 CURVE SMOOTH",
"496 51 OFFCURVE",
"392 19 OFFCURVE",
"293 19 CURVE SMOOTH",
"235 19 OFFCURVE",
"145 33 OFFCURVE",
"92 74 CURVE",
"83 143 LINE SMOOTH",
"81 158 OFFCURVE",
"77 165 OFFCURVE",
"68 165 CURVE SMOOTH",
"62 165 OFFCURVE",
"59 161 OFFCURVE",
"59 156 CURVE SMOOTH",
"59 61 LINE",
"116 11 OFFCURVE",
"225 -10 OFFCURVE",
"293 -10 CURVE SMOOTH"
);
}
);
width = 591;
}
);
leftKerningGroup = S;
note = S;
rightKerningGroup = S;
unicode = 0053;
},
{
glyphname = Sacute;
lastChange = "2015-07-21 14:44:33 +0000";
layers = (
{
layerId = "180D1874-17C2-44EB-BA68-42C2D2C9E124";
name = Light;
paths = (
{
closed = 1;
nodes = (
"418 -10 OFFCURVE",
"532 35 OFFCURVE",
"532 159 CURVE SMOOTH",
"532 266 OFFCURVE",
"459 311 OFFCURVE",
"311 368 CURVE SMOOTH",
"178 419 OFFCURVE",
"98 452 OFFCURVE",
"98 546 CURVE SMOOTH",
"98 641 OFFCURVE",
"189 676 OFFCURVE",
"283 676 CURVE SMOOTH",
"346 676 OFFCURVE",
"418 660 OFFCURVE",
"466 620 CURVE",
"475 552 LINE SMOOTH",
"477 537 OFFCURVE",
"481 530 OFFCURVE",
"490 530 CURVE SMOOTH",
"496 530 OFFCURVE",
"499 534 OFFCURVE",
"499 539 CURVE SMOOTH",
"499 633 LINE",
"450 678 OFFCURVE",
"362 705 OFFCURVE",
"284 705 CURVE SMOOTH",
"174 705 OFFCURVE",
"62 664 OFFCURVE",
"62 540 CURVE SMOOTH",
"62 443 OFFCURVE",
"145 392 OFFCURVE",
"271 345 CURVE SMOOTH",
"426 287 OFFCURVE",
"496 253 OFFCURVE",
"496 158 CURVE SMOOTH",
"496 51 OFFCURVE",
"392 19 OFFCURVE",
"293 19 CURVE SMOOTH",
"235 19 OFFCURVE",
"145 33 OFFCURVE",
"92 74 CURVE",
"83 143 LINE SMOOTH",
"81 158 OFFCURVE",
"77 165 OFFCURVE",
"68 165 CURVE SMOOTH",
"62 165 OFFCURVE",
"59 161 OFFCURVE",
"59 156 CURVE SMOOTH",
"59 61 LINE",
"116 11 OFFCURVE",
"225 -10 OFFCURVE",
"293 -10 CURVE SMOOTH"
);
},
{
closed = 1;
nodes = (
"342 862 LINE",
"312 880 LINE",
"240 762 LINE",
"262 749 LINE"
);
}
);
width = 591;
}
);
leftKerningGroup = S;
note = Sacute;
rightKerningGroup = S;
unicode = 015A;
},
{
glyphname = Scaron;
lastChange = "2015-07-21 14:44:33 +0000";
layers = (
{
layerId = "180D1874-17C2-44EB-BA68-42C2D2C9E124";
name = Light;
paths = (
{
closed = 1;
nodes = (
"418 -10 OFFCURVE",
"532 35 OFFCURVE",
"532 159 CURVE SMOOTH",
"532 266 OFFCURVE",
"459 311 OFFCURVE",
"311 368 CURVE SMOOTH",
"178 419 OFFCURVE",
"98 452 OFFCURVE",
"98 546 CURVE SMOOTH",
"98 641 OFFCURVE",
"189 676 OFFCURVE",
"283 676 CURVE SMOOTH",
"346 676 OFFCURVE",
"418 660 OFFCURVE",
"466 620 CURVE",
"475 552 LINE SMOOTH",
"477 537 OFFCURVE",
"481 530 OFFCURVE",
"490 530 CURVE SMOOTH",
"496 530 OFFCURVE",
"499 534 OFFCURVE",
"499 539 CURVE SMOOTH",
"499 633 LINE",
"450 678 OFFCURVE",
"362 705 OFFCURVE",
"284 705 CURVE SMOOTH",
"174 705 OFFCURVE",
"62 664 OFFCURVE",
"62 540 CURVE SMOOTH",
"62 443 OFFCURVE",
"145 392 OFFCURVE",
"271 345 CURVE SMOOTH",
"426 287 OFFCURVE",
"496 253 OFFCURVE",
"496 158 CURVE SMOOTH",
"496 51 OFFCURVE",
"392 19 OFFCURVE",
"293 19 CURVE SMOOTH",
"235 19 OFFCURVE",
"145 33 OFFCURVE",
"92 74 CURVE",
"83 143 LINE SMOOTH",
"81 158 OFFCURVE",
"77 165 OFFCURVE",
"68 165 CURVE SMOOTH",
"62 165 OFFCURVE",
"59 161 OFFCURVE",
"59 156 CURVE SMOOTH",
"59 61 LINE",
"116 11 OFFCURVE",
"225 -10 OFFCURVE",
"293 -10 CURVE SMOOTH"
);
},
{
closed = 1;
nodes = (
"300 749 LINE",
"395 867 LINE",
"374 881 LINE",
"287 790 LINE",
"200 881 LINE",
"179 867 LINE",
"274 749 LINE"
);
}
);
width = 591;
}
);
leftKerningGroup = S;
note = Scaron;
rightKerningGroup = S;
unicode = 0160;
},
{
glyphname = Scedilla;
lastChange = "2015-07-21 14:44:33 +0000";
layers = (
{
layerId = "180D1874-17C2-44EB-BA68-42C2D2C9E124";
name = Light;
paths = (
{
closed = 1;
nodes = (
"289 -188 OFFCURVE",
"336 -156 OFFCURVE",
"336 -113 CURVE SMOOTH",
"336 -72 OFFCURVE",
"310 -54 OFFCURVE",
"287 -44 CURVE",
"303 -10 LINE",
"424 -7 OFFCURVE",
"532 38 OFFCURVE",
"532 159 CURVE SMOOTH",
"532 266 OFFCURVE",
"459 311 OFFCURVE",
"311 368 CURVE SMOOTH",
"178 419 OFFCURVE",
"98 452 OFFCURVE",
"98 546 CURVE SMOOTH",
"98 641 OFFCURVE",
"189 676 OFFCURVE",
"283 676 CURVE SMOOTH",
"346 676 OFFCURVE",
"418 660 OFFCURVE",
"466 620 CURVE",
"475 552 LINE SMOOTH",
"477 537 OFFCURVE",
"481 530 OFFCURVE",
"490 530 CURVE SMOOTH",
"496 530 OFFCURVE",
"499 534 OFFCURVE",
"499 539 CURVE SMOOTH",
"499 633 LINE",
"450 678 OFFCURVE",
"362 705 OFFCURVE",
"284 705 CURVE SMOOTH",
"174 705 OFFCURVE",
"62 664 OFFCURVE",
"62 540 CURVE SMOOTH",
"62 443 OFFCURVE",
"145 392 OFFCURVE",
"271 345 CURVE SMOOTH",
"426 287 OFFCURVE",
"496 253 OFFCURVE",
"496 158 CURVE SMOOTH",
"496 51 OFFCURVE",
"392 19 OFFCURVE",
"293 19 CURVE SMOOTH",
"235 19 OFFCURVE",
"145 33 OFFCURVE",
"92 74 CURVE",
"83 143 LINE SMOOTH",
"81 158 OFFCURVE",
"77 165 OFFCURVE",
"68 165 CURVE SMOOTH",
"62 165 OFFCURVE",
"59 161 OFFCURVE",
"59 156 CURVE SMOOTH",
"59 61 LINE",
"111 15 OFFCURVE",
"206 -6 OFFCURVE",
"274 -10 CURVE",
"257 -56 LINE",
"295 -67 OFFCURVE",
"306 -85 OFFCURVE",
"306 -113 CURVE SMOOTH",
"306 -141 OFFCURVE",
"282 -167 OFFCURVE",
"236 -182 CURVE",
"243 -201 LINE"
);
}
);
width = 591;
}
);
leftKerningGroup = S;
note = Scedilla;
rightKerningGroup = S;
unicode = 015E;
},
{
glyphname = Scircumflex;
lastChange = "2015-07-21 14:44:33 +0000";
layers = (
{
layerId = "180D1874-17C2-44EB-BA68-42C2D2C9E124";
name = Light;
paths = (
{
closed = 1;
nodes = (
"418 -10 OFFCURVE",
"532 35 OFFCURVE",
"532 159 CURVE SMOOTH",
"532 266 OFFCURVE",
"459 311 OFFCURVE",
"311 368 CURVE SMOOTH",
"178 419 OFFCURVE",
"98 452 OFFCURVE",
"98 546 CURVE SMOOTH",
"98 641 OFFCURVE",
"189 676 OFFCURVE",
"283 676 CURVE SMOOTH",
"346 676 OFFCURVE",
"418 660 OFFCURVE",
"466 620 CURVE",
"475 552 LINE SMOOTH",
"477 537 OFFCURVE",
"481 530 OFFCURVE",
"490 530 CURVE SMOOTH",
"496 530 OFFCURVE",
"499 534 OFFCURVE",
"499 539 CURVE SMOOTH",
"499 633 LINE",
"450 678 OFFCURVE",
"362 705 OFFCURVE",
"284 705 CURVE SMOOTH",
"174 705 OFFCURVE",
"62 664 OFFCURVE",
"62 540 CURVE SMOOTH",
"62 443 OFFCURVE",
"145 392 OFFCURVE",
"271 345 CURVE SMOOTH",
"426 287 OFFCURVE",
"496 253 OFFCURVE",
"496 158 CURVE SMOOTH",
"496 51 OFFCURVE",
"392 19 OFFCURVE",
"293 19 CURVE SMOOTH",
"235 19 OFFCURVE",
"145 33 OFFCURVE",
"92 74 CURVE",
"83 143 LINE SMOOTH",
"81 158 OFFCURVE",
"77 165 OFFCURVE",
"68 165 CURVE SMOOTH",
"62 165 OFFCURVE",
"59 161 OFFCURVE",
"59 156 CURVE SMOOTH",
"59 61 LINE",
"116 11 OFFCURVE",
"225 -10 OFFCURVE",
"293 -10 CURVE SMOOTH"
);
},
{
closed = 1;
nodes = (
"282 840 LINE",
"369 749 LINE",
"390 763 LINE",
"295 881 LINE",
"269 881 LINE",
"174 763 LINE",
"195 749 LINE"
);
}
);
width = 591;
}
);
leftKerningGroup = S;
note = Scircumflex;
rightKerningGroup = S;
unicode = 015C;
},
{
glyphname = Scommaaccent;
lastChange = "2015-07-21 14:44:33 +0000";
layers = (
{
layerId = "180D1874-17C2-44EB-BA68-42C2D2C9E124";
name = Light;
paths = (
{
closed = 1;
nodes = (
"418 -10 OFFCURVE",
"532 35 OFFCURVE",
"532 159 CURVE SMOOTH",
"532 266 OFFCURVE",
"459 311 OFFCURVE",
"311 368 CURVE SMOOTH",
"178 419 OFFCURVE",
"98 452 OFFCURVE",
"98 546 CURVE SMOOTH",
"98 641 OFFCURVE",
"189 676 OFFCURVE",
"283 676 CURVE SMOOTH",
"346 676 OFFCURVE",
"418 660 OFFCURVE",
"466 620 CURVE",
"475 552 LINE SMOOTH",
"477 537 OFFCURVE",
"481 530 OFFCURVE",
"490 530 CURVE SMOOTH",
"496 530 OFFCURVE",
"499 534 OFFCURVE",
"499 539 CURVE SMOOTH",
"499 633 LINE",
"450 678 OFFCURVE",
"362 705 OFFCURVE",
"284 705 CURVE SMOOTH",
"174 705 OFFCURVE",
"62 664 OFFCURVE",
"62 540 CURVE SMOOTH",
"62 443 OFFCURVE",
"145 392 OFFCURVE",
"271 345 CURVE SMOOTH",
"426 287 OFFCURVE",
"496 253 OFFCURVE",
"496 158 CURVE SMOOTH",
"496 51 OFFCURVE",
"392 19 OFFCURVE",
"293 19 CURVE SMOOTH",
"235 19 OFFCURVE",
"145 33 OFFCURVE",
"92 74 CURVE",
"83 143 LINE SMOOTH",
"81 158 OFFCURVE",
"77 165 OFFCURVE",
"68 165 CURVE SMOOTH",
"62 165 OFFCURVE",
"59 161 OFFCURVE",
"59 156 CURVE SMOOTH",
"59 61 LINE",
"116 11 OFFCURVE",
"225 -10 OFFCURVE",
"293 -10 CURVE SMOOTH"
);
},
{
closed = 1;
nodes = (
"299 -154 OFFCURVE",
"319 -108 OFFCURVE",
"333 -51 CURVE",
"281 -38 LINE SMOOTH",
"268 -35 OFFCURVE",
"258 -40 OFFCURVE",
"258 -53 CURVE SMOOTH",
"258 -57 OFFCURVE",
"261 -60 OFFCURVE",
"264 -61 CURVE SMOOTH",
"295 -72 LINE",
"291 -103 OFFCURVE",
"273 -147 OFFCURVE",
"250 -183 CURVE",
"268 -195 LINE"
);
}
);
width = 591;
}
);
leftKerningGroup = S;
note = Scommaaccent;
rightKerningGroup = S;
unicode = 0218;
},
{
glyphname = Sdotaccent;
lastChange = "2015-07-21 14:44:33 +0000";
layers = (
{
layerId = "180D1874-17C2-44EB-BA68-42C2D2C9E124";
name = Light;
paths = (
{
closed = 1;
nodes = (
"418 -10 OFFCURVE",
"532 35 OFFCURVE",
"532 159 CURVE SMOOTH",
"532 266 OFFCURVE",
"459 311 OFFCURVE",
"311 368 CURVE SMOOTH",
"178 419 OFFCURVE",
"98 452 OFFCURVE",
"98 546 CURVE SMOOTH",
"98 641 OFFCURVE",
"189 676 OFFCURVE",
"283 676 CURVE SMOOTH",
"346 676 OFFCURVE",
"418 660 OFFCURVE",
"466 620 CURVE",
"475 552 LINE SMOOTH",
"477 537 OFFCURVE",
"481 530 OFFCURVE",
"490 530 CURVE SMOOTH",
"496 530 OFFCURVE",
"499 534 OFFCURVE",
"499 539 CURVE SMOOTH",
"499 633 LINE",
"450 678 OFFCURVE",
"362 705 OFFCURVE",
"284 705 CURVE SMOOTH",
"174 705 OFFCURVE",
"62 664 OFFCURVE",
"62 540 CURVE SMOOTH",
"62 443 OFFCURVE",
"145 392 OFFCURVE",
"271 345 CURVE SMOOTH",
"426 287 OFFCURVE",
"496 253 OFFCURVE",
"496 158 CURVE SMOOTH",
"496 51 OFFCURVE",
"392 19 OFFCURVE",
"293 19 CURVE SMOOTH",
"235 19 OFFCURVE",
"145 33 OFFCURVE",
"92 74 CURVE",
"83 143 LINE SMOOTH",
"81 158 OFFCURVE",
"77 165 OFFCURVE",
"68 165 CURVE SMOOTH",
"62 165 OFFCURVE",
"59 161 OFFCURVE",
"59 156 CURVE SMOOTH",
"59 61 LINE",
"116 11 OFFCURVE",
"225 -10 OFFCURVE",
"293 -10 CURVE SMOOTH"
);
},
{
closed = 1;
nodes = (
"306 765 OFFCURVE",
"321 780 OFFCURVE",
"321 800 CURVE SMOOTH",
"321 820 OFFCURVE",
"306 835 OFFCURVE",
"286 835 CURVE SMOOTH",
"266 835 OFFCURVE",
"251 820 OFFCURVE",
"251 800 CURVE SMOOTH",
"251 780 OFFCURVE",
"266 765 OFFCURVE",
"286 765 CURVE SMOOTH"
);
}
);
width = 591;
}
);
leftKerningGroup = S;
note = Sdotaccent;
rightKerningGroup = S;
unicode = 1E60;
},
{
glyphname = Sdotbelow;
lastChange = "2015-07-21 14:44:33 +0000";
layers = (
{
layerId = "180D1874-17C2-44EB-BA68-42C2D2C9E124";
name = Light;
paths = (
{
closed = 1;
nodes = (
"418 -10 OFFCURVE",
"532 35 OFFCURVE",
"532 159 CURVE SMOOTH",
"532 266 OFFCURVE",
"459 311 OFFCURVE",
"311 368 CURVE SMOOTH",
"178 419 OFFCURVE",
"98 452 OFFCURVE",
"98 546 CURVE SMOOTH",
"98 641 OFFCURVE",
"189 676 OFFCURVE",
"283 676 CURVE SMOOTH",
"346 676 OFFCURVE",
"418 660 OFFCURVE",
"466 620 CURVE",
"475 552 LINE SMOOTH",
"477 537 OFFCURVE",
"481 530 OFFCURVE",
"490 530 CURVE SMOOTH",
"496 530 OFFCURVE",
"499 534 OFFCURVE",
"499 539 CURVE SMOOTH",
"499 633 LINE",
"450 678 OFFCURVE",
"362 705 OFFCURVE",
"284 705 CURVE SMOOTH",
"174 705 OFFCURVE",
"62 664 OFFCURVE",
"62 540 CURVE SMOOTH",
"62 443 OFFCURVE",
"145 392 OFFCURVE",
"271 345 CURVE SMOOTH",
"426 287 OFFCURVE",
"496 253 OFFCURVE",
"496 158 CURVE SMOOTH",
"496 51 OFFCURVE",
"392 19 OFFCURVE",
"293 19 CURVE SMOOTH",
"235 19 OFFCURVE",
"145 33 OFFCURVE",
"92 74 CURVE",
"83 143 LINE SMOOTH",
"81 158 OFFCURVE",
"77 165 OFFCURVE",
"68 165 CURVE SMOOTH",
"62 165 OFFCURVE",
"59 161 OFFCURVE",
"59 156 CURVE SMOOTH",
"59 61 LINE",
"116 11 OFFCURVE",
"225 -10 OFFCURVE",
"293 -10 CURVE SMOOTH"
);
},
{
closed = 1;
nodes = (
"307 -135 OFFCURVE",
"322 -120 OFFCURVE",
"322 -100 CURVE SMOOTH",
"322 -80 OFFCURVE",
"307 -65 OFFCURVE",
"287 -65 CURVE SMOOTH",
"267 -65 OFFCURVE",
"252 -80 OFFCURVE",
"252 -100 CURVE SMOOTH",
"252 -120 OFFCURVE",
"267 -135 OFFCURVE",
"287 -135 CURVE SMOOTH"
);
}
);
width = 591;
}
);
leftKerningGroup = S;
note = Sdotbelow;
rightKerningGroup = S;
unicode = 1E62;
},
{
glyphname = uni1E9E;
lastChange = "2015-07-21 10:04:07 +0000";
layers = (
{
layerId = "180D1874-17C2-44EB-BA68-42C2D2C9E124";
name = Light;
paths = (
{
closed = 1;
nodes = (
"493 -10 OFFCURVE",
"553 71 OFFCURVE",
"553 175 CURVE SMOOTH",
"553 281 OFFCURVE",
"503 365 OFFCURVE",
"369 365 CURVE SMOOTH",
"356 365 LINE",
"485 538 LINE",
"485 612 OFFCURVE",
"408 675 OFFCURVE",
"303 675 CURVE SMOOTH",
"177 675 OFFCURVE",
"117 603 OFFCURVE",
"117 486 CURVE SMOOTH",
"117 26 LINE",
"76 26 LINE SMOOTH",
"66 26 OFFCURVE",
"58 22 OFFCURVE",
"58 12 CURVE SMOOTH",
"58 4 OFFCURVE",
"62 0 OFFCURVE",
"67 0 CURVE SMOOTH",
"149 0 LINE",
"149 484 LINE SMOOTH",
"149 587 OFFCURVE",
"196 647 OFFCURVE",
"302 647 CURVE SMOOTH",
"386 647 OFFCURVE",
"453 603 OFFCURVE",
"453 542 CURVE",
"325 367 LINE",
"325 339 LINE",
"372 339 LINE SMOOTH",
"480 339 OFFCURVE",
"520 262 OFFCURVE",
"520 173 CURVE SMOOTH",
"520 85 OFFCURVE",
"469 17 OFFCURVE",
"384 17 CURVE SMOOTH",
"338 17 OFFCURVE",
"298 26 OFFCURVE",
"268 43 CURVE",
"261 87 LINE SMOOTH",
"259 100 OFFCURVE",
"256 106 OFFCURVE",
"249 106 CURVE SMOOTH",
"243 106 OFFCURVE",
"240 103 OFFCURVE",
"240 98 CURVE SMOOTH",
"240 27 LINE",
"276 3 OFFCURVE",
"328 -10 OFFCURVE",
"384 -10 CURVE SMOOTH"
);
}
);
width = 615;
}
);
note = uni1E9E;
unicode = 1E9E;
},
{
glyphname = uni018F;
lastChange = "2015-07-21 10:04:08 +0000";
layers = (
{
layerId = "180D1874-17C2-44EB-BA68-42C2D2C9E124";
name = Light;
paths = (
{
closed = 1;
nodes = (
"521 -10 OFFCURVE",
"624 145 OFFCURVE",
"624 351 CURVE SMOOTH",
"624 557 OFFCURVE",
"517 705 OFFCURVE",
"329 705 CURVE SMOOTH",
"255 705 OFFCURVE",
"192 687 OFFCURVE",
"130 651 CURVE SMOOTH",
"109 639 OFFCURVE",
"97 630 OFFCURVE",
"97 619 CURVE SMOOTH",
"97 612 OFFCURVE",
"102 606 OFFCURVE",
"109 606 CURVE SMOOTH",
"115 606 OFFCURVE",
"120 609 OFFCURVE",
"127 614 CURVE SMOOTH",
"186 653 OFFCURVE",
"252 677 OFFCURVE",
"329 677 CURVE SMOOTH",
"477 677 OFFCURVE",
"589 553 OFFCURVE",
"589 343 CURVE",
"70 343 LINE",
"63 327 OFFCURVE",
"57 297 OFFCURVE",
"57 277 CURVE SMOOTH",
"57 105 OFFCURVE",
"155 -10 OFFCURVE",
"325 -10 CURVE SMOOTH"
);
},
{
closed = 1;
nodes = (
"188 18 OFFCURVE",
"92 110 OFFCURVE",
"92 277 CURVE SMOOTH",
"92 289 OFFCURVE",
"93 306 OFFCURVE",
"96 315 CURVE",
"588 315 LINE",
"577 133 OFFCURVE",
"480 18 OFFCURVE",
"325 18 CURVE SMOOTH"
);
}
);
width = 681;
}
);
note = uni018F;
unicode = 018F;
},
{
glyphname = T;
lastChange = "2015-07-21 18:12:34 +0000";
layers = (
{
layerId = "180D1874-17C2-44EB-BA68-42C2D2C9E124";
name = Light;
paths = (
{
closed = 1;
nodes = (
"364 0 LINE SMOOTH",
"370 0 OFFCURVE",
"371 5 OFFCURVE",
"371 8 CURVE SMOOTH",
"371 16 OFFCURVE",
"365 20 OFFCURVE",
"355 21 CURVE SMOOTH",
"297 27 LINE",
"297 667 LINE",
"488 667 LINE",
"496 610 LINE SMOOTH",
"498 594 OFFCURVE",
"502 588 OFFCURVE",
"511 588 CURVE SMOOTH",
"517 588 OFFCURVE",
"520 591 OFFCURVE",
"520 597 CURVE SMOOTH",
"520 695 LINE",
"40 695 LINE",
"40 597 LINE SMOOTH",
"40 591 OFFCURVE",
"43 588 OFFCURVE",
"49 588 CURVE SMOOTH",
"58 588 OFFCURVE",
"62 594 OFFCURVE",
"64 610 CURVE SMOOTH",
"72 667 LINE",
"263 667 LINE",
"263 26 LINE",
"217 26 LINE SMOOTH",
"205 26 OFFCURVE",
"199 20 OFFCURVE",
"199 12 CURVE SMOOTH",
"199 5 OFFCURVE",
"203 0 OFFCURVE",
"208 0 CURVE SMOOTH"
);
}
);
width = 560;
}
);
leftKerningGroup = T;
note = T;
rightKerningGroup = T;
unicode = 0054;
},
{
glyphname = Tbar;
lastChange = "2015-07-21 14:44:39 +0000";
layers = (
{
layerId = "180D1874-17C2-44EB-BA68-42C2D2C9E124";
name = Light;
paths = (
{
closed = 1;
nodes = (
"367 0 LINE SMOOTH",
"373 0 OFFCURVE",
"374 5 OFFCURVE",
"374 8 CURVE SMOOTH",
"374 16 OFFCURVE",
"368 20 OFFCURVE",
"358 21 CURVE SMOOTH",
"300 27 LINE",
"300 368 LINE",
"453 368 LINE",
"453 398 LINE",
"300 398 LINE",
"300 667 LINE",
"491 667 LINE",
"499 610 LINE SMOOTH",
"501 594 OFFCURVE",
"505 588 OFFCURVE",
"514 588 CURVE SMOOTH",
"520 588 OFFCURVE",
"523 591 OFFCURVE",
"523 597 CURVE SMOOTH",
"523 695 LINE",
"43 695 LINE",
"43 597 LINE SMOOTH",
"43 591 OFFCURVE",
"46 588 OFFCURVE",
"52 588 CURVE SMOOTH",
"61 588 OFFCURVE",
"65 594 OFFCURVE",
"67 610 CURVE SMOOTH",
"75 667 LINE",
"266 667 LINE",
"266 398 LINE",
"115 398 LINE",
"115 368 LINE",
"266 368 LINE",
"266 26 LINE",
"220 26 LINE SMOOTH",
"208 26 OFFCURVE",
"202 20 OFFCURVE",
"202 12 CURVE SMOOTH",
"202 5 OFFCURVE",
"206 0 OFFCURVE",
"211 0 CURVE SMOOTH"
);
}
);
width = 566;
}
);
leftKerningGroup = T;
note = Tbar;
rightKerningGroup = T;
unicode = 0166;
},
{
glyphname = Tcaron;
lastChange = "2015-07-21 14:44:39 +0000";
layers = (
{
layerId = "180D1874-17C2-44EB-BA68-42C2D2C9E124";
name = Light;
paths = (
{
closed = 1;
nodes = (
"364 0 LINE SMOOTH",
"370 0 OFFCURVE",
"371 5 OFFCURVE",
"371 8 CURVE SMOOTH",
"371 16 OFFCURVE",
"365 20 OFFCURVE",
"355 21 CURVE SMOOTH",
"297 27 LINE",
"297 667 LINE",
"488 667 LINE",
"496 610 LINE SMOOTH",
"498 594 OFFCURVE",
"502 588 OFFCURVE",
"511 588 CURVE SMOOTH",
"517 588 OFFCURVE",
"520 591 OFFCURVE",
"520 597 CURVE SMOOTH",
"520 695 LINE",
"40 695 LINE",
"40 597 LINE SMOOTH",
"40 591 OFFCURVE",
"43 588 OFFCURVE",
"49 588 CURVE SMOOTH",
"58 588 OFFCURVE",
"62 594 OFFCURVE",
"64 610 CURVE SMOOTH",
"72 667 LINE",
"263 667 LINE",
"263 26 LINE",
"217 26 LINE SMOOTH",
"205 26 OFFCURVE",
"199 20 OFFCURVE",
"199 12 CURVE SMOOTH",
"199 5 OFFCURVE",
"203 0 OFFCURVE",
"208 0 CURVE SMOOTH"
);
},
{
closed = 1;
nodes = (
"293 749 LINE",
"388 867 LINE",
"367 881 LINE",
"280 790 LINE",
"193 881 LINE",
"172 867 LINE",
"267 749 LINE"
);
}
);
width = 560;
}
);
leftKerningGroup = T;
note = Tcaron;
rightKerningGroup = T;
unicode = 0164;
},
{
glyphname = Tcedilla;
lastChange = "2015-07-21 14:44:39 +0000";
layers = (
{
layerId = "180D1874-17C2-44EB-BA68-42C2D2C9E124";
name = Light;
paths = (
{
closed = 1;
nodes = (
"276 -188 OFFCURVE",
"323 -156 OFFCURVE",
"323 -113 CURVE SMOOTH",
"323 -72 OFFCURVE",
"297 -54 OFFCURVE",
"274 -44 CURVE",
"295 0 LINE",
"364 0 LINE SMOOTH",
"370 0 OFFCURVE",
"371 5 OFFCURVE",
"371 8 CURVE SMOOTH",
"371 16 OFFCURVE",
"365 20 OFFCURVE",
"355 21 CURVE SMOOTH",
"297 27 LINE",
"297 667 LINE",
"488 667 LINE",
"496 610 LINE SMOOTH",
"498 594 OFFCURVE",
"502 588 OFFCURVE",
"511 588 CURVE SMOOTH",
"517 588 OFFCURVE",
"520 591 OFFCURVE",
"520 597 CURVE SMOOTH",
"520 695 LINE",
"40 695 LINE",
"40 597 LINE SMOOTH",
"40 591 OFFCURVE",
"43 588 OFFCURVE",
"49 588 CURVE SMOOTH",
"58 588 OFFCURVE",
"62 594 OFFCURVE",
"64 610 CURVE SMOOTH",
"72 667 LINE",
"263 667 LINE",
"263 26 LINE",
"217 26 LINE SMOOTH",
"205 26 OFFCURVE",
"199 20 OFFCURVE",
"199 12 CURVE SMOOTH",
"199 5 OFFCURVE",
"203 0 OFFCURVE",
"208 0 CURVE SMOOTH",
"265 0 LINE",
"244 -56 LINE",
"282 -67 OFFCURVE",
"293 -85 OFFCURVE",
"293 -113 CURVE SMOOTH",
"293 -141 OFFCURVE",
"269 -167 OFFCURVE",
"223 -182 CURVE",
"230 -201 LINE"
);
}
);
width = 560;
}
);
leftKerningGroup = T;
note = Tcedilla;
rightKerningGroup = T;
unicode = 0162;
},
{
glyphname = Tcommaaccent;
lastChange = "2015-07-21 14:44:39 +0000";
layers = (
{
layerId = "180D1874-17C2-44EB-BA68-42C2D2C9E124";
name = Light;
paths = (
{
closed = 1;
nodes = (
"364 0 LINE SMOOTH",
"370 0 OFFCURVE",
"371 5 OFFCURVE",
"371 8 CURVE SMOOTH",
"371 16 OFFCURVE",
"365 20 OFFCURVE",
"355 21 CURVE SMOOTH",
"297 27 LINE",
"297 667 LINE",
"488 667 LINE",
"496 610 LINE SMOOTH",
"498 594 OFFCURVE",
"502 588 OFFCURVE",
"511 588 CURVE SMOOTH",
"517 588 OFFCURVE",
"520 591 OFFCURVE",
"520 597 CURVE SMOOTH",
"520 695 LINE",
"40 695 LINE",
"40 597 LINE SMOOTH",
"40 591 OFFCURVE",
"43 588 OFFCURVE",
"49 588 CURVE SMOOTH",
"58 588 OFFCURVE",
"62 594 OFFCURVE",
"64 610 CURVE SMOOTH",
"72 667 LINE",
"263 667 LINE",
"263 26 LINE",
"217 26 LINE SMOOTH",
"205 26 OFFCURVE",
"199 20 OFFCURVE",
"199 12 CURVE SMOOTH",
"199 5 OFFCURVE",
"203 0 OFFCURVE",
"208 0 CURVE SMOOTH"
);
},
{
closed = 1;
nodes = (
"283 -154 OFFCURVE",
"303 -108 OFFCURVE",
"317 -51 CURVE",
"265 -38 LINE SMOOTH",
"252 -35 OFFCURVE",
"242 -40 OFFCURVE",
"242 -53 CURVE SMOOTH",
"242 -57 OFFCURVE",
"245 -60 OFFCURVE",
"248 -61 CURVE SMOOTH",
"279 -72 LINE",
"275 -103 OFFCURVE",
"257 -147 OFFCURVE",
"234 -183 CURVE",
"252 -195 LINE"
);
}
);
width = 560;
}
);
leftKerningGroup = T;
note = Tcommaaccent;
rightKerningGroup = T;
unicode = 021A;
},
{
glyphname = Tdotbelow;
lastChange = "2015-07-21 14:44:39 +0000";
layers = (
{
layerId = "180D1874-17C2-44EB-BA68-42C2D2C9E124";
name = Light;
paths = (
{
closed = 1;
nodes = (
"364 0 LINE SMOOTH",
"370 0 OFFCURVE",
"371 5 OFFCURVE",
"371 8 CURVE SMOOTH",
"371 16 OFFCURVE",
"365 20 OFFCURVE",
"355 21 CURVE SMOOTH",
"297 27 LINE",
"297 667 LINE",
"488 667 LINE",
"496 610 LINE SMOOTH",
"498 594 OFFCURVE",
"502 588 OFFCURVE",
"511 588 CURVE SMOOTH",
"517 588 OFFCURVE",
"520 591 OFFCURVE",
"520 597 CURVE SMOOTH",
"520 695 LINE",
"40 695 LINE",
"40 597 LINE SMOOTH",
"40 591 OFFCURVE",
"43 588 OFFCURVE",
"49 588 CURVE SMOOTH",
"58 588 OFFCURVE",
"62 594 OFFCURVE",
"64 610 CURVE SMOOTH",
"72 667 LINE",
"263 667 LINE",
"263 26 LINE",
"217 26 LINE SMOOTH",
"205 26 OFFCURVE",
"199 20 OFFCURVE",
"199 12 CURVE SMOOTH",
"199 5 OFFCURVE",
"203 0 OFFCURVE",
"208 0 CURVE SMOOTH"
);
},
{
closed = 1;
nodes = (
"300 -135 OFFCURVE",
"315 -120 OFFCURVE",
"315 -100 CURVE SMOOTH",
"315 -80 OFFCURVE",
"300 -65 OFFCURVE",
"280 -65 CURVE SMOOTH",
"260 -65 OFFCURVE",
"245 -80 OFFCURVE",
"245 -100 CURVE SMOOTH",
"245 -120 OFFCURVE",
"260 -135 OFFCURVE",
"280 -135 CURVE SMOOTH"
);
}
);
width = 560;
}
);
leftKerningGroup = T;
note = Tdotbelow;
rightKerningGroup = T;
unicode = 1E6C;
},
{
glyphname = Tlinebelow;
lastChange = "2015-07-21 14:44:39 +0000";
layers = (
{
layerId = "180D1874-17C2-44EB-BA68-42C2D2C9E124";
name = Light;
paths = (
{
closed = 1;
nodes = (
"364 0 LINE SMOOTH",
"370 0 OFFCURVE",
"371 5 OFFCURVE",
"371 8 CURVE SMOOTH",
"371 16 OFFCURVE",
"365 20 OFFCURVE",
"355 21 CURVE SMOOTH",
"297 27 LINE",
"297 667 LINE",
"488 667 LINE",
"496 610 LINE SMOOTH",
"498 594 OFFCURVE",
"502 588 OFFCURVE",
"511 588 CURVE SMOOTH",
"517 588 OFFCURVE",
"520 591 OFFCURVE",
"520 597 CURVE SMOOTH",
"520 695 LINE",
"40 695 LINE",
"40 597 LINE SMOOTH",
"40 591 OFFCURVE",
"43 588 OFFCURVE",
"49 588 CURVE SMOOTH",
"58 588 OFFCURVE",
"62 594 OFFCURVE",
"64 610 CURVE SMOOTH",
"72 667 LINE",
"263 667 LINE",
"263 26 LINE",
"217 26 LINE SMOOTH",
"205 26 OFFCURVE",
"199 20 OFFCURVE",
"199 12 CURVE SMOOTH",
"199 5 OFFCURVE",
"203 0 OFFCURVE",
"208 0 CURVE SMOOTH"
);
},
{
closed = 1;
nodes = (
"457 -114 LINE",
"457 -88 LINE",
"103 -88 LINE",
"103 -114 LINE"
);
}
);
width = 560;
}
);
leftKerningGroup = T;
note = Tlinebelow;
rightKerningGroup = T;
unicode = 1E6E;
},
{
glyphname = U;
lastChange = "2015-07-21 18:13:08 +0000";
layers = (
{
layerId = "180D1874-17C2-44EB-BA68-42C2D2C9E124";
name = Light;
paths = (
{
closed = 1;
nodes = (
"550 -10 OFFCURVE",
"636 93 OFFCURVE",
"636 257 CURVE SMOOTH",
"636 668 LINE",
"688 674 LINE SMOOTH",
"698 675 OFFCURVE",
"704 679 OFFCURVE",
"704 687 CURVE SMOOTH",
"704 690 OFFCURVE",
"703 695 OFFCURVE",
"697 695 CURVE SMOOTH",
"554 695 LINE SMOOTH",
"542 695 OFFCURVE",
"537 689 OFFCURVE",
"537 681 CURVE SMOOTH",
"537 674 OFFCURVE",
"541 669 OFFCURVE",
"546 669 CURVE SMOOTH",
"606 669 LINE",
"606 263 LINE SMOOTH",
"606 105 OFFCURVE",
"527 20 OFFCURVE",
"377 20 CURVE SMOOTH",
"227 20 OFFCURVE",
"148 107 OFFCURVE",
"148 263 CURVE SMOOTH",
"148 668 LINE",
"206 674 LINE SMOOTH",
"216 675 OFFCURVE",
"222 679 OFFCURVE",
"222 687 CURVE SMOOTH",
"222 690 OFFCURVE",
"221 695 OFFCURVE",
"215 695 CURVE SMOOTH",
"67 695 LINE SMOOTH",
"55 695 OFFCURVE",
"50 689 OFFCURVE",
"50 681 CURVE SMOOTH",
"50 674 OFFCURVE",
"54 669 OFFCURVE",
"59 669 CURVE SMOOTH",
"114 669 LINE",
"114 257 LINE SMOOTH",
"114 91 OFFCURVE",
"204 -10 OFFCURVE",
"377 -10 CURVE SMOOTH"
);
}
);
width = 754;
}
);
leftKerningGroup = U;
note = U;
rightKerningGroup = U;
unicode = 0055;
},
